<?xml version="1.0" standalone="no"?>
<!DOCTYPE svg PUBLIC "-//W3C//DTD SVG 20010904//EN"
 "http://www.w3.org/TR/2001/REC-SVG-20010904/DTD/svg10.dtd">
<svg version="1.0" xmlns="http://www.w3.org/2000/svg"
 width="824.000000pt" height="824.000000pt" viewBox="0 0 824.000000 824.000000"
 preserveAspectRatio="xMidYMid meet">
<metadata>
Created by potrace 1.11, written by Peter Selinger 2001-2013
</metadata>
<g transform="translate(0.000000,824.000000) scale(0.100000,-0.100000)"
fill="#000000" stroke="none">
<path d="M4045 7666 c-16 -6 -32 -13 -35 -16 -3 -3 -18 -6 -35 -6 -56 -3 -115
-13 -134 -23 -10 -6 -37 -12 -60 -13 -22 -2 -41 -6 -41 -10 0 -4 -7 -5 -15 -2
-8 4 -15 1 -15 -4 0 -6 -10 -14 -22 -18 -13 -4 -25 -10 -28 -15 -3 -4 -22 -10
-41 -12 -22 -2 -47 -14 -63 -30 -27 -27 -42 -36 -31 -17 3 5 -8 2 -24 -8 -17
-9 -31 -21 -31 -25 0 -5 -4 -6 -9 -2 -11 6 -91 -69 -91 -86 0 -6 -9 -9 -20 -6
-13 3 -18 1 -13 -6 4 -6 0 -8 -9 -4 -9 3 -25 -3 -35 -13 -11 -10 -33 -21 -49
-24 -16 -4 -49 -24 -74 -46 -25 -22 -56 -50 -70 -63 -90 -79 -110 -98 -110
-107 0 -5 -10 -20 -22 -33 -44 -46 -63 -72 -60 -85 2 -7 -3 -11 -10 -10 -6 2
-12 -1 -13 -7 -1 -25 -28 -74 -38 -68 -6 4 -8 0 -4 -11 4 -11 -2 -24 -18 -38
-14 -12 -25 -25 -25 -30 0 -5 -17 -32 -38 -61 -22 -29 -37 -58 -34 -66 3 -8 0
-11 -6 -7 -6 3 -13 -7 -17 -24 -4 -16 -11 -30 -16 -30 -5 0 -9 -8 -9 -19 0
-10 -7 -24 -15 -31 -8 -7 -15 -25 -15 -40 0 -15 -7 -33 -15 -40 -8 -7 -15 -22
-15 -34 0 -12 -6 -30 -13 -41 -7 -11 -28 -63 -46 -115 -18 -52 -36 -104 -41
-115 -4 -11 -8 -33 -9 -50 0 -16 -9 -59 -20 -95 -15 -55 -18 -95 -16 -260 1
-107 6 -206 10 -219 6 -19 5 -22 -5 -16 -10 6 -12 2 -7 -16 4 -13 7 -46 7 -74
0 -32 3 -45 9 -36 9 14 24 -39 39 -140 7 -45 6 -58 -6 -66 -13 -8 -13 -12 -1
-33 8 -14 20 -30 28 -36 9 -7 12 -20 8 -34 -3 -12 -1 -31 6 -41 9 -14 9 -21
-1 -31 -10 -10 -15 -10 -22 2 -5 8 -13 11 -17 6 -4 -4 0 -14 10 -21 13 -9 15
-14 5 -17 -10 -4 -10 -8 -1 -20 14 -16 14 -110 1 -102 -4 3 -8 -3 -8 -14 0
-10 -9 -28 -21 -40 -11 -12 -17 -27 -14 -32 3 -6 1 -10 -5 -10 -27 0 -44 -40
-28 -66 4 -6 -1 -18 -12 -26 -19 -17 -21 -62 -4 -102 5 -14 4 -17 -4 -12 -7 4
-12 2 -12 -4 0 -6 11 -16 25 -22 14 -6 25 -15 25 -19 0 -4 14 -12 30 -18 22
-7 30 -16 30 -35 0 -14 4 -36 9 -49 6 -14 7 -28 3 -32 -4 -4 -7 -31 -7 -60 0
-30 3 -48 7 -42 5 7 8 1 8 -15 0 -16 -6 -28 -12 -28 -10 0 -9 -3 1 -9 10 -7
11 -13 2 -30 -7 -11 -8 -21 -3 -21 5 0 9 -7 9 -15 0 -8 -4 -15 -9 -15 -19 0
-6 -20 16 -26 25 -6 41 -29 27 -38 -10 -6 19 -142 37 -174 7 -12 16 -46 19
-75 3 -29 13 -62 21 -75 12 -18 12 -28 4 -47 -7 -14 -8 -25 -3 -25 5 0 11 -22
15 -48 4 -35 14 -56 36 -77 16 -15 27 -32 24 -37 -7 -11 25 -62 33 -54 6 5 33
-61 51 -119 6 -20 14 -32 45 -67 10 -11 20 -37 21 -57 3 -34 0 -39 -28 -51
-17 -7 -37 -13 -44 -14 -7 0 -16 -6 -20 -12 -4 -5 -24 -18 -45 -28 -22 -10
-55 -33 -75 -52 -20 -19 -41 -33 -47 -30 -12 4 -65 -25 -65 -36 0 -4 -9 -8
-20 -8 -11 0 -20 -4 -20 -9 0 -5 -10 -13 -22 -17 -12 -3 -28 -13 -36 -20 -7
-8 -22 -14 -33 -14 -10 0 -19 -4 -19 -9 0 -5 -23 -21 -51 -36 -28 -14 -48 -21
-44 -16 3 7 0 8 -10 5 -8 -4 -18 -17 -21 -31 -4 -16 -10 -21 -16 -15 -6 6 -17
8 -26 4 -22 -8 -52 -39 -44 -46 3 -3 0 -6 -5 -6 -6 0 -13 5 -15 11 -3 8 -9 6
-20 -4 -12 -12 -18 -13 -28 -4 -10 10 -12 8 -7 -5 4 -10 2 -18 -4 -18 -6 0 -9
-9 -6 -19 5 -19 -3 -21 -36 -6 -24 10 -47 -1 -47 -22 0 -15 -9 -18 -46 -18
-30 0 -50 -5 -57 -16 -7 -9 -18 -14 -25 -11 -7 2 -21 -6 -32 -18 -10 -12 -20
-21 -22 -20 -2 1 -11 -2 -21 -6 -15 -5 -16 -9 -5 -16 9 -6 2 -8 -20 -5 -25 3
-37 -1 -45 -15 -7 -10 -19 -18 -28 -18 -9 0 -22 -7 -29 -15 -7 -8 -18 -15 -25
-15 -8 0 -16 -6 -18 -12 -4 -10 -8 -9 -16 2 -10 15 -26 7 -26 -13 0 -7 -13
-11 -28 -10 -15 1 -27 -2 -27 -8 0 -5 -10 -9 -23 -9 -13 0 -33 -9 -44 -19 -12
-11 -24 -17 -27 -14 -3 4 -6 -2 -6 -13 0 -13 -3 -15 -8 -7 -8 13 -30 17 -71
15 l-24 -2 21 -23 c29 -31 28 -37 -8 -32 -19 2 -28 0 -24 -7 13 -21 -21 -28
-36 -8 -22 29 -76 18 -84 -16 -6 -24 -7 -24 -33 -7 -25 17 -25 17 -19 -5 6
-18 4 -21 -9 -15 -15 5 -16 1 -11 -28 5 -23 4 -29 -2 -20 -5 7 -15 10 -21 7
-6 -4 -11 -3 -11 2 0 8 -32 9 -65 3 -5 -1 0 -10 13 -21 22 -18 22 -20 6 -45
-19 -30 -21 -30 -42 -8 -16 16 -17 16 -20 0 -4 -19 -13 -22 -28 -7 -10 10
-104 -27 -104 -42 0 -4 12 -18 26 -32 15 -13 25 -30 22 -38 -3 -7 -2 -22 3
-33 7 -18 8 -18 8 -2 1 17 2 17 17 2 15 -14 15 -18 0 -40 -9 -14 -20 -25 -24
-25 -4 0 -24 -16 -46 -36 -33 -30 -37 -39 -29 -57 5 -12 16 -37 24 -55 14 -33
15 -34 63 -28 50 6 86 -6 86 -27 0 -7 5 -29 11 -50 9 -33 13 -37 32 -31 12 4
34 15 49 25 32 23 73 24 112 4 15 -8 37 -15 47 -15 11 0 19 -4 19 -8 0 -4 26
-9 57 -9 206 -6 213 -5 237 11 14 9 37 16 51 16 15 0 24 4 21 8 -3 5 16 6 42
2 52 -6 71 -5 152 4 30 4 103 9 162 10 73 2 113 8 125 17 11 9 14 10 9 2 -5
-9 -2 -11 8 -7 9 3 13 11 9 17 -4 6 2 8 16 4 12 -3 28 1 36 10 8 8 15 10 15 4
0 -5 14 -7 33 -5 76 12 97 12 97 2 0 -16 63 -1 77 19 11 13 13 14 18 2 3 -8
20 -15 38 -16 17 -1 26 1 19 4 -8 3 -11 16 -7 36 5 25 0 38 -20 61 -29 33 -30
37 -12 30 8 -3 18 9 27 31 9 22 20 35 32 35 10 0 18 -4 18 -9 0 -5 3 -16 6
-25 4 -11 1 -16 -10 -16 -9 0 -16 -7 -16 -16 0 -8 5 -12 10 -9 13 8 13 8 -5
-40 -17 -47 -18 -65 -6 -65 5 0 8 6 7 13 0 6 4 13 9 15 6 1 11 -7 11 -18 2
-31 3 -31 22 -12 13 12 18 31 17 62 -1 25 4 54 9 65 6 11 9 23 8 28 -1 4 3 7
9 7 6 0 9 9 6 20 -3 10 0 21 6 23 5 1 10 17 9 35 0 21 4 32 13 32 8 0 11 7 8
20 -7 27 14 26 22 -1 4 -13 2 -25 -5 -29 -9 -6 -9 -13 -1 -28 7 -14 8 -23 1
-27 -5 -3 -10 -13 -10 -21 0 -17 31 -18 50 -1 12 10 12 9 2 -4 -7 -9 -12 -21
-11 -25 1 -5 1 -16 0 -24 -1 -12 -5 -10 -17 5 -13 17 -16 18 -24 5 -5 -8 -10
-17 -10 -20 1 -7 69 -40 84 -40 20 0 36 -24 26 -39 -4 -8 -15 -11 -23 -8 -13
5 -14 2 -8 -16 5 -12 13 -22 20 -21 6 1 18 2 27 3 11 1 15 7 11 21 -7 26 9 36
21 13 8 -13 13 -14 24 -6 7 6 24 14 37 18 20 6 23 4 18 -9 -4 -10 -3 -15 3
-11 6 3 10 1 10 -4 0 -6 6 -11 14 -11 8 0 17 -8 20 -17 3 -10 4 -6 2 10 -4 35
10 44 34 22 10 -9 23 -14 28 -11 12 7 64 -18 56 -27 -3 -3 4 -3 15 0 12 3 24
9 27 14 9 16 43 9 54 -10 20 -39 91 -61 212 -65 14 -1 24 -4 21 -8 -2 -5 8 -8
22 -8 15 0 24 4 20 10 -3 6 -1 10 4 10 6 0 11 -5 11 -11 0 -6 9 -8 21 -4 14 5
19 3 15 -3 -9 -15 16 -9 44 11 21 15 25 25 25 72 0 50 -2 55 -22 55 -13 0 -23
-4 -23 -10 0 -5 -5 -10 -10 -10 -6 0 -10 8 -8 18 2 12 -5 18 -24 20 -32 4 -38
22 -9 22 29 0 33 14 11 38 -11 12 -20 28 -20 37 0 8 -6 15 -14 15 -8 0 -19 14
-25 31 -6 17 -20 33 -31 36 -11 3 -20 13 -20 23 0 9 -9 25 -20 35 -18 16 -20
16 -36 1 -16 -16 -15 -18 3 -22 28 -8 29 -80 2 -114 l-20 -25 6 34 c5 23 3 36
-6 42 -11 7 -10 11 6 23 11 8 17 18 13 22 -4 4 -13 2 -20 -4 -18 -14 -52 -19
-53 -7 0 6 -4 16 -9 24 -7 11 -10 11 -17 0 -7 -11 -9 -10 -9 3 0 9 4 18 10 20
5 2 7 19 3 42 -5 31 -12 41 -37 51 -36 16 -49 9 -22 -10 15 -12 46 -59 46 -71
0 -2 -14 -4 -31 -4 -24 0 -30 3 -25 16 3 8 -6 35 -20 60 -14 24 -23 51 -20 60
3 8 2 12 -4 9 -6 -3 -10 0 -10 9 0 8 5 16 12 18 7 3 5 13 -8 33 -10 16 -17 38
-16 48 2 12 -1 17 -7 13 -6 -4 -11 -3 -11 3 0 22 24 23 41 3 9 -12 27 -22 39
-22 15 0 20 -5 17 -15 -4 -8 -2 -17 3 -20 6 -4 10 -2 10 4 0 6 7 8 15 5 25
-10 17 12 -10 26 -14 7 -25 17 -25 22 0 4 -9 8 -20 8 -11 0 -23 8 -27 18 -3 9
-18 29 -32 43 -17 18 -26 40 -28 65 -2 36 -1 38 13 20 12 -17 14 -17 14 -4 0
9 -4 20 -10 23 -16 10 -12 23 11 36 18 9 20 8 15 -9 -4 -13 -1 -22 9 -25 8 -4
12 -13 9 -22 -3 -8 -1 -15 5 -15 6 0 11 5 11 10 0 6 7 10 15 10 22 0 18 -19
-6 -28 -19 -7 -19 -9 -5 -21 9 -8 16 -10 16 -6 0 4 7 2 15 -5 19 -16 20 -44 1
-37 -10 4 -12 0 -9 -14 3 -10 10 -19 17 -19 8 0 108 -45 125 -57 3 -2 -5 -13
-17 -26 -23 -24 -30 -77 -11 -77 6 0 9 -7 5 -15 -5 -13 -2 -14 17 -4 18 9 20
9 10 -2 -15 -16 -17 -55 -3 -64 6 -3 10 -2 10 4 0 5 12 4 27 -4 25 -13 28 -13
37 3 15 28 17 28 35 3 l18 -24 6 22 c3 12 -1 27 -9 35 -11 12 -10 15 12 20 18
5 30 1 42 -12 23 -25 95 -49 100 -33 5 15 34 14 67 -3 19 -10 36 -11 58 -5 34
10 50 3 27 -11 -8 -6 -10 -10 -4 -10 5 0 16 6 23 13 11 10 12 9 6 -2 -6 -11
-2 -13 18 -7 14 3 28 2 31 -3 3 -5 27 -12 52 -16 26 -3 53 -9 60 -12 8 -3 14
1 14 11 0 14 4 15 33 3 37 -16 63 -16 92 0 15 9 22 8 32 -5 12 -16 13 -15 19
4 3 12 16 27 30 34 13 7 22 16 20 19 -2 3 18 7 44 7 27 1 63 9 81 18 19 9 36
13 42 7 5 -5 18 0 32 12 23 21 105 32 105 14 0 -5 5 -5 10 -2 6 4 8 11 4 16
-10 17 27 49 57 49 15 0 30 4 33 8 3 5 18 7 34 4 17 -2 33 1 37 9 6 8 4 10 -5
4 -9 -5 -11 -4 -6 3 4 7 13 12 20 12 8 0 19 7 27 16 12 14 14 14 26 -2 12 -17
13 -17 13 3 0 11 16 37 35 57 19 21 35 41 35 46 0 19 83 98 96 93 9 -3 14 2
14 16 0 12 5 21 10 21 6 0 10 -6 10 -12 0 -7 8 -1 18 15 10 15 22 24 25 20 4
-3 7 3 7 15 0 11 -7 22 -17 24 -14 3 -15 5 -2 18 8 9 25 36 38 62 14 26 28 45
32 42 4 -2 10 5 14 16 3 11 12 20 20 20 8 0 15 12 17 27 2 20 10 29 28 33 14
3 25 11 26 18 2 28 4 33 13 28 5 -3 12 5 15 19 4 14 11 25 16 25 12 0 11 15
14 -155 1 -77 6 -190 11 -252 6 -82 5 -116 -4 -126 -6 -8 -9 -22 -5 -31 3 -9
0 -26 -8 -39 -8 -12 -23 -44 -33 -70 -21 -55 -78 -140 -88 -130 -4 3 -7 -1 -7
-10 0 -8 -12 -29 -27 -45 -16 -17 -32 -35 -38 -42 -5 -6 -32 -32 -58 -58 -66
-64 -77 -77 -77 -88 0 -5 -10 -14 -22 -19 -13 -6 -22 -16 -21 -22 2 -7 -6 -15
-16 -18 -33 -10 -146 -106 -146 -124 0 -11 -8 -15 -27 -14 -18 1 -25 -2 -22
-11 6 -16 -44 -19 -63 -4 -13 10 -63 -31 -63 -53 0 -8 -5 -6 -13 6 -13 17 -14
16 -13 -6 1 -19 -5 -25 -26 -27 -19 -2 -28 -9 -28 -21 0 -26 -65 -20 -92 8
-11 12 -23 20 -26 16 -4 -3 -1 -10 6 -14 17 -10 4 -41 -17 -42 -9 -1 -5 -4 9
-8 25 -7 25 -7 3 -13 -13 -3 -23 -2 -23 4 0 5 -4 7 -9 4 -5 -4 -7 2 -5 11 4
15 -2 18 -30 18 -20 0 -36 -3 -36 -6 0 -3 -24 -5 -52 -5 -42 1 -55 5 -61 20
-4 10 -13 16 -21 13 -7 -3 -22 0 -32 6 -11 7 -39 12 -64 12 -49 0 -76 22 -67
55 3 11 -3 26 -14 36 -21 19 -104 28 -89 9 19 -22 -4 -25 -27 -3 -26 24 -31
50 -8 42 8 -4 15 -2 15 4 0 17 -24 30 -52 27 -16 -2 -28 1 -28 6 0 5 -9 9 -20
9 -11 0 -20 4 -20 9 0 6 -9 9 -20 8 -13 -1 -16 -5 -10 -11 13 -13 13 -29 0
-21 -5 3 -10 2 -10 -4 0 -5 5 -13 10 -16 15 -9 12 -27 -2 -19 -7 4 -4 -2 6
-14 21 -25 15 -42 -8 -23 -12 10 -15 9 -13 -8 1 -12 5 -21 10 -21 4 0 6 -4 3
-9 -3 -5 4 -11 15 -14 15 -4 19 -2 15 8 -6 18 10 30 17 13 4 -10 8 -9 16 2 8
12 13 11 34 -8 23 -21 57 -22 57 -1 0 5 8 1 18 -8 11 -10 17 -21 15 -24 -1 -4
4 -9 11 -12 8 -3 16 -1 18 5 3 7 10 8 17 4 7 -5 10 -14 7 -22 -3 -8 0 -11 10
-7 17 6 19 -13 2 -21 -7 -3 -1 -4 14 -3 17 3 29 -1 33 -11 4 -11 -1 -13 -19
-10 -17 3 -23 1 -19 -8 2 -7 11 -10 18 -8 8 3 16 -4 20 -16 4 -13 12 -19 21
-16 7 3 16 1 19 -4 4 -6 1 -10 -4 -10 -6 0 -11 -9 -11 -20 0 -16 5 -19 23 -15
14 3 31 -3 46 -16 21 -17 23 -24 14 -38 -9 -14 -9 -21 0 -30 8 -8 7 -11 -4
-11 -12 0 -12 -2 0 -9 22 -14 44 -2 30 15 -9 11 -8 14 5 14 10 0 14 5 11 10
-4 7 2 9 19 4 15 -3 32 -2 39 4 7 6 30 9 51 8 25 -2 39 1 43 10 3 8 13 14 23
14 10 0 21 9 25 20 3 11 19 27 36 37 16 9 29 21 29 26 0 5 7 2 15 -7 9 -8 22
-13 31 -9 8 3 13 8 10 10 -11 11 32 38 64 41 48 3 63 6 77 15 33 21 265 87
304 87 13 0 18 4 13 12 -5 8 0 9 16 5 16 -4 23 -1 27 14 3 10 9 19 14 19 15 0
79 64 79 79 0 8 -7 19 -17 26 -18 13 -10 37 11 29 15 -6 39 20 41 46 1 12 -3
16 -12 13 -8 -3 -12 -12 -8 -22 5 -12 3 -13 -5 -5 -17 17 53 123 154 234 7 8
21 30 30 48 9 17 21 32 26 32 6 0 10 7 10 15 0 9 9 25 20 37 11 12 20 32 20
44 0 24 45 119 60 129 6 3 10 15 10 25 0 10 3 20 8 22 11 5 57 70 65 92 10 25
-18 45 -62 46 -52 0 -33 8 39 16 146 16 171 5 319 -145 64 -65 170 -166 236
-224 66 -57 173 -157 239 -221 66 -65 127 -116 137 -116 11 0 19 -6 19 -14 0
-8 5 -18 12 -22 7 -5 9 -2 4 7 -4 8 0 5 9 -6 9 -11 19 -19 23 -18 13 3 67 -27
94 -52 15 -14 37 -25 50 -25 21 0 63 -30 113 -80 12 -11 29 -20 38 -20 10 0
16 -4 13 -9 -3 -5 5 -8 18 -7 13 0 22 5 18 10 -3 6 3 6 14 2 47 -20 91 -24
142 -15 30 6 56 8 59 5 3 -3 14 -1 23 4 10 5 33 12 51 14 19 3 48 9 64 14 17
5 58 7 92 5 60 -4 63 -3 102 35 23 22 55 42 73 46 55 10 98 38 98 62 0 12 6
24 12 26 7 3 13 21 13 40 0 29 9 46 48 86 49 53 58 68 32 58 -9 -3 -20 3 -27
14 -12 18 -13 18 -33 2 -11 -9 -14 -10 -7 -2 14 16 16 34 3 25 -5 -3 -13 -1
-16 5 -4 6 -15 8 -24 5 -20 -6 -46 38 -35 57 5 7 2 8 -7 4 -8 -4 -6 -1 4 7 9
8 17 23 16 33 0 11 -3 14 -6 6 -6 -16 -33 3 -33 24 0 25 -30 45 -51 34 -20
-11 -27 -7 -68 33 -10 10 -33 19 -50 19 -23 1 -31 6 -31 19 0 10 -9 25 -21 33
-12 8 -19 18 -16 23 3 4 -11 9 -31 11 -20 1 -39 -3 -42 -9 -5 -7 -13 -5 -24 6
-11 11 -21 14 -29 8 -7 -6 -20 -13 -31 -17 -13 -4 -17 -2 -13 8 3 8 -1 17 -9
20 -8 3 -14 -1 -14 -9 0 -8 -4 -15 -10 -15 -5 0 -10 6 -10 14 0 8 -7 17 -16
20 -9 4 -14 13 -10 21 3 9 0 15 -8 15 -8 0 -17 -6 -19 -12 -3 -7 -8 2 -12 20
-8 34 -19 41 -29 17 -7 -20 -42 -19 -50 1 -5 13 -9 14 -22 3 -13 -10 -16 -9
-21 10 -4 18 -11 21 -29 17 -17 -5 -24 -2 -24 9 0 8 -5 15 -11 15 -6 0 -9 9
-6 20 3 12 0 20 -6 20 -21 0 -33 -14 -34 -37 -1 -35 -2 -36 -18 -23 -8 7 -15
23 -15 36 0 13 -5 24 -11 24 -6 0 -8 -9 -4 -22 3 -13 3 -18 -2 -13 -4 6 -20
16 -35 22 -20 9 -28 20 -28 38 0 21 -4 25 -19 20 -10 -3 -25 0 -32 7 -18 17
-66 38 -87 38 -9 0 -23 -9 -30 -21 -10 -15 -21 -20 -38 -16 -18 3 -24 0 -22
-12 2 -10 -5 -17 -19 -19 -13 -2 -23 2 -23 8 0 6 -9 21 -21 33 -11 12 -23 34
-26 49 -8 43 -20 24 -22 -33 0 -29 -2 -54 -4 -56 -8 -8 -37 10 -37 23 0 8 -4
14 -10 14 -5 0 -10 -4 -10 -10 0 -5 -5 -10 -11 -10 -7 0 -9 10 -5 24 3 14 1
28 -5 31 -6 5 -4 11 7 19 11 9 13 15 6 20 -6 3 -13 2 -17 -4 -3 -5 -13 -10
-21 -10 -8 0 -12 5 -9 10 3 6 3 20 -1 32 l-7 22 -18 -22 c-16 -20 -18 -21 -23
-5 -2 10 -4 -6 -3 -35 1 -36 -2 -52 -10 -52 -7 0 -13 8 -13 19 0 29 -24 45
-40 26 -11 -13 -10 -15 6 -9 15 4 16 4 5 -4 -8 -6 -20 -8 -28 -5 -7 3 -16 -2
-19 -11 -7 -19 -22 -21 -21 -3 2 48 -4 69 -17 64 -10 -4 -13 -1 -10 7 3 8 -3
12 -18 11 -14 -1 -24 -9 -26 -21 -6 -33 -19 -38 -56 -20 -33 15 -50 46 -26 46
6 0 10 7 10 15 0 19 -9 19 -30 0 -16 -14 -17 -14 -12 11 4 25 3 26 -19 21 -13
-4 -27 -7 -31 -7 -3 0 -9 -8 -11 -17 -4 -16 -5 -17 -6 -1 0 9 -13 29 -27 44
-24 23 -26 23 -22 6 4 -12 0 -23 -7 -26 -9 -3 -16 8 -20 37 -9 54 -14 61 -30
47 -10 -8 -19 -8 -34 0 -12 6 -21 8 -21 6 0 -3 -10 5 -23 17 -12 12 -21 31
-20 42 3 17 2 17 -6 -2 -11 -25 -37 -32 -27 -8 3 8 1 15 -4 15 -6 0 -10 7 -10
15 0 8 -6 15 -14 15 -19 0 -30 -17 -17 -25 6 -3 8 -12 4 -21 -4 -11 -8 -12
-20 -3 -7 7 -12 18 -9 25 6 16 -22 47 -35 39 -5 -4 -6 1 -3 9 3 9 1 16 -5 16
-25 0 0 121 33 160 7 8 19 31 26 50 7 19 21 44 30 55 10 11 21 30 24 41 4 12
15 29 26 39 11 10 20 26 20 35 0 9 10 28 23 42 16 18 23 39 26 84 2 32 9 71
17 86 8 15 13 31 12 35 -1 4 4 18 11 31 7 13 10 31 6 39 -3 9 0 20 7 24 9 6 9
11 -1 23 -9 11 -10 16 -2 16 6 0 10 6 8 13 -1 6 4 11 11 10 11 -3 16 12 15 44
-1 7 3 10 8 7 5 -3 9 2 9 11 0 8 7 18 15 21 11 5 13 10 5 19 -5 6 -8 14 -5 17
2 2 7 39 9 81 3 60 1 77 -9 77 -11 0 -12 6 -3 32 10 28 12 30 19 12 5 -12 8 3
8 43 1 34 6 65 11 68 6 4 8 11 5 16 -4 5 -1 9 6 9 7 0 9 10 7 25 -3 14 0 29 6
34 12 10 13 81 3 111 -11 31 -14 71 -6 76 4 2 6 11 2 19 -3 8 0 15 7 15 6 0
10 8 8 18 -1 9 1 22 5 29 4 6 3 22 -2 35 -5 13 -7 36 -4 50 3 18 0 27 -12 32
-16 6 -17 0 -13 -48 3 -30 2 -53 -2 -51 -3 2 -6 -4 -7 -13 0 -9 -2 -40 -3 -69
-2 -32 -7 -50 -13 -46 -6 3 -7 1 -3 -6 4 -6 2 -18 -4 -26 -6 -8 -8 -20 -4 -26
4 -7 3 -9 -3 -6 -13 8 -21 -18 -18 -61 1 -24 -1 -29 -11 -21 -18 15 -29 -27
-12 -48 9 -12 9 -15 1 -9 -9 5 -13 -1 -13 -19 0 -16 -4 -24 -11 -20 -6 4 -9 1
-8 -6 5 -22 -10 -69 -21 -69 -6 0 -10 -13 -10 -29 0 -43 -11 -91 -21 -86 -4 3
-11 0 -15 -6 -5 -8 -3 -9 5 -4 9 5 12 2 9 -11 -2 -11 -9 -18 -14 -17 -5 1 -8
-16 -6 -38 3 -24 0 -39 -7 -39 -6 0 -11 -7 -11 -15 0 -8 -3 -15 -7 -15 -5 0
-9 -17 -11 -37 -1 -21 -7 -42 -13 -48 -7 -7 -8 -5 -3 8 4 13 2 16 -9 12 -10
-4 -14 -18 -12 -45 2 -39 -8 -44 -42 -17 -9 6 -15 4 -20 -9 -3 -11 -11 -22
-17 -26 -8 -5 -7 -8 1 -8 7 0 10 -7 6 -16 -3 -9 -9 -12 -15 -6 -11 11 -58 3
-58 -10 0 -5 -6 -6 -12 -2 -9 5 -8 2 1 -9 12 -15 12 -17 -2 -11 -16 6 -42 -28
-30 -40 3 -3 1 -6 -5 -6 -18 0 -34 37 -19 43 7 4 6 6 -4 6 -10 1 -19 -9 -23
-24 -4 -14 -10 -25 -15 -25 -5 0 -7 -9 -4 -20 3 -12 0 -20 -7 -20 -9 0 -11 11
-7 35 3 19 3 34 -1 34 -26 -4 -41 5 -52 31 -7 16 -12 33 -13 37 0 4 -4 13 -9
18 -4 6 -18 24 -31 40 -13 17 -22 36 -20 43 3 6 0 12 -6 12 -6 0 -11 -6 -11
-13 0 -8 -7 -14 -15 -14 -10 0 -13 6 -9 19 3 10 1 18 -5 18 -6 0 -11 5 -11 11
0 6 -9 23 -20 39 -11 15 -17 30 -13 33 3 4 -2 9 -11 13 -9 3 -16 10 -16 15 0
11 -44 55 -64 62 -16 6 -37 -10 -56 -41 -8 -14 -11 -15 -19 -3 -13 20 -53 21
-67 3 -9 -12 -13 -12 -19 -2 -6 9 -4 11 5 5 8 -5 11 -4 7 2 -4 6 -16 13 -27
16 -17 4 -19 3 -9 -9 9 -11 8 -14 -4 -14 -15 0 -32 26 -28 47 1 6 -3 14 -9 18
-5 3 -10 17 -10 31 0 14 -4 22 -10 19 -6 -3 -10 1 -10 10 0 9 4 13 10 10 5 -3
7 0 4 8 -2 7 -11 14 -18 14 -7 0 -40 19 -74 43 -59 42 -62 43 -80 26 -11 -9
-39 -18 -63 -19 -24 -1 -50 -6 -57 -11 -7 -4 -16 -5 -19 -2 -3 3 -12 1 -19 -5
-14 -12 -38 -3 -29 11 3 5 -3 11 -13 15 -14 4 -18 12 -14 31 4 23 2 25 -16 20
-16 -5 -21 -2 -24 16 -2 17 -10 22 -33 22 -16 0 -34 4 -40 8 -5 4 -41 33 -79
63 -53 43 -75 54 -95 51 -14 -2 -30 -5 -34 -5 -5 -1 -5 -5 -2 -11 3 -5 -1 -10
-9 -10 -8 0 -20 -8 -25 -17 -7 -12 -10 -13 -11 -4 0 7 -6 11 -14 8 -29 -11
-62 72 -35 88 6 4 8 14 5 22 -6 14 32 93 60 124 8 8 14 21 14 28 0 7 7 19 15
28 20 20 13 27 -20 19 -14 -4 -25 -13 -25 -21 0 -8 -4 -15 -10 -15 -5 0 -10
-6 -10 -14 0 -8 -15 -30 -34 -50 -20 -20 -30 -36 -23 -39 12 -4 8 -16 -24 -79
-6 -11 -3 -18 8 -23 14 -5 13 -10 -11 -30 -20 -17 -26 -30 -22 -42 6 -13 1
-12 -18 6 l-24 23 8 -35 c4 -19 10 -39 14 -45 3 -5 -1 -15 -9 -22 -13 -10 -15
-8 -15 13 0 13 -7 30 -15 37 -12 10 -13 7 -9 -22 5 -30 3 -35 -22 -46 -20 -10
-24 -16 -16 -24 18 -18 14 -38 -8 -38 -11 0 -20 -5 -20 -11 0 -6 -7 -9 -15 -5
-9 3 -15 0 -15 -9 0 -8 -8 -15 -19 -15 -19 0 -43 -21 -40 -36 1 -5 1 -17 0
-26 -1 -22 -21 -24 -21 -3 0 8 -8 15 -17 15 -13 0 -15 2 -5 8 13 9 6 42 -8 42
-25 0 -40 -16 -46 -46 -3 -19 -10 -32 -14 -29 -4 3 -18 -11 -31 -30 -13 -19
-26 -35 -29 -35 -18 1 -40 31 -38 51 4 32 -27 37 -52 7 -18 -22 -19 -22 -20
-3 -1 15 -8 9 -26 -22 -14 -24 -31 -43 -36 -43 -6 0 -6 -5 1 -14 9 -11 9 -16
0 -21 -14 -9 -27 10 -35 55 -4 19 -12 46 -20 60 -11 22 -13 23 -19 8 -4 -10
-14 -18 -22 -18 -12 0 -13 -8 -8 -42 7 -39 6 -41 -10 -25 -9 10 -21 15 -26 11
-16 -10 -40 17 -34 37 11 33 -10 21 -23 -13 -16 -43 -33 -25 -40 42 -3 38 -8
50 -18 46 -8 -3 -14 1 -14 10 0 9 5 12 12 8 7 -4 2 6 -10 23 -12 17 -22 37
-22 45 0 8 -9 32 -20 53 -11 22 -18 46 -15 54 3 8 0 11 -9 8 -10 -4 -13 -1
-10 7 3 7 -2 18 -10 25 -8 7 -13 18 -10 26 3 7 0 16 -6 20 -6 4 -8 16 -4 27 3
11 3 35 -1 55 -4 25 -10 33 -21 29 -11 -4 -15 0 -13 17 2 24 -12 65 -38 111
-11 20 -13 31 -6 33 8 3 8 14 2 36 -5 17 -7 48 -4 69 4 28 1 40 -9 44 -8 3
-12 12 -9 20 3 8 8 12 12 10 3 -2 6 29 6 69 0 40 3 71 8 68 8 -5 8 -6 12 57 2
24 8 46 15 48 8 3 7 9 -2 20 -11 12 -11 16 0 20 10 3 10 7 1 18 -9 11 -9 17 1
28 6 8 11 23 10 33 -1 10 -1 20 0 23 1 3 3 28 4 55 1 28 6 59 11 70 5 11 9 35
9 52 0 18 4 33 9 33 5 0 7 6 4 14 -3 8 3 33 14 56 11 22 17 45 14 50 -4 6 1
13 9 16 9 3 13 10 10 15 -3 5 2 29 11 54 10 24 15 56 13 70 -4 17 -1 25 8 25
8 0 14 5 14 11 0 5 -4 7 -10 4 -5 -3 -10 -2 -10 3 0 6 6 12 13 15 8 3 14 20
15 38 0 17 6 35 12 39 7 4 11 11 10 16 -2 19 22 104 29 100 4 -3 5 8 3 25 -2
16 -9 29 -14 29 -5 0 -6 5 -2 11 12 21 12 100 -1 113 -13 13 -15 106 -3 136
13 31 15 70 4 70 -6 0 0 7 13 16 16 12 19 19 11 24 -9 6 -8 15 3 37 9 16 15
44 15 61 -1 18 2 35 5 39 4 3 7 -2 7 -13 0 -16 2 -17 10 -4 5 8 7 22 5 31 -3
8 3 24 13 35 10 11 17 25 14 32 -2 6 2 12 8 12 7 0 10 7 6 15 -3 9 7 27 24 45
17 17 30 35 30 39 0 5 9 11 20 14 13 3 18 10 14 21 -3 9 -2 16 3 16 11 0 47
27 77 56 12 11 29 23 39 27 9 3 17 12 17 18 0 8 -6 7 -17 -2 -16 -13 -17 -12
-4 3 7 10 17 15 22 13 4 -3 12 3 18 12 6 10 11 15 11 11 0 -9 45 29 83 70 17
17 36 32 42 32 7 0 17 12 24 26 7 17 17 24 27 20 12 -5 14 -1 9 17 -5 20 -5
20 5 4 11 -17 13 -17 24 -2 6 9 28 18 47 19 20 2 41 6 47 10 7 4 35 9 63 11
33 3 57 11 65 22 11 14 14 14 12 3 -2 -10 5 -15 24 -15 14 1 25 -2 22 -6 -2
-4 7 -10 21 -13 14 -4 25 -11 25 -17 0 -8 5 -7 15 1 8 7 32 10 55 8 23 -2 40
1 40 7 0 5 6 3 13 -5 16 -20 104 -21 116 -1 5 8 14 10 22 5 16 -10 99 -12 93
-3 -2 4 8 6 23 5 16 -2 38 0 51 5 14 6 21 5 17 0 -7 -12 36 -11 52 1 7 5 14 5
18 -2 5 -8 11 -8 20 0 7 6 34 11 61 12 27 1 57 5 67 10 11 6 17 5 17 -3 0 -8
4 -8 15 1 9 8 15 8 15 2 0 -11 53 -9 81 2 9 4 21 1 28 -8 10 -11 19 -12 42 -4
23 8 35 7 56 -7 25 -17 27 -17 41 1 9 13 16 15 19 7 2 -7 10 -10 18 -7 7 3 16
0 21 -7 5 -8 3 -10 -6 -4 -9 5 -11 4 -6 -4 5 -8 12 -9 20 -2 15 13 79 -3 96
-24 7 -8 18 -15 25 -15 18 0 89 -42 125 -73 16 -15 34 -27 39 -27 11 0 134
-123 211 -211 70 -79 184 -252 201 -304 7 -22 16 -44 20 -50 13 -18 39 -117
33 -126 -3 -5 -1 -9 5 -9 12 0 41 -88 48 -144 2 -22 11 -55 19 -74 7 -19 11
-39 8 -44 -4 -6 -1 -14 6 -18 9 -6 9 -13 2 -26 -8 -15 -7 -24 6 -38 9 -11 12
-16 6 -13 -7 4 -14 0 -18 -8 -3 -8 -2 -15 2 -15 4 0 8 -16 10 -36 2 -29 -1
-35 -13 -30 -10 3 -13 2 -10 -5 4 -6 13 -8 20 -5 7 2 16 -2 19 -10 9 -23 7
-36 -4 -29 -6 3 -13 -1 -16 -9 -3 -9 -10 -13 -15 -10 -5 3 -9 1 -9 -5 0 -5 4
-12 9 -15 5 -3 11 -15 14 -26 3 -11 1 -18 -3 -15 -5 3 -7 -11 -6 -30 2 -20 -1
-38 -6 -41 -5 -3 -2 -14 8 -25 12 -13 14 -22 7 -31 -13 -16 -13 -29 -12 -183
0 -27 0 -54 -1 -60 -2 -5 -1 -14 0 -20 8 -27 7 -194 -1 -189 -5 3 -9 -13 -9
-35 0 -36 3 -41 23 -42 l22 0 -23 -11 c-31 -15 -29 -88 3 -117 23 -19 23 -19
21 4 0 13 -5 21 -10 18 -5 -3 -6 0 -4 8 3 8 12 13 22 11 15 -3 21 25 19 86 -1
7 4 11 11 9 6 -2 10 -14 8 -26 -1 -15 3 -21 10 -19 8 3 12 18 10 38 -3 24 0
32 10 28 10 -4 13 4 12 28 -2 32 15 84 26 84 3 0 5 24 5 54 0 30 4 52 8 49 5
-3 4 4 -2 16 -8 15 -9 27 -1 40 6 13 7 22 0 26 -5 3 -6 13 -3 22 6 15 7 14 14
-3 6 -15 8 -15 8 -3 1 9 -6 22 -14 29 -8 7 -15 23 -15 36 0 27 -12 31 -30 9
-20 -24 -30 -17 -30 22 0 35 1 36 15 17 9 -12 14 -14 15 -6 0 7 4 11 9 7 17
-10 20 11 7 50 -15 42 -8 75 20 106 10 11 12 18 4 21 -6 2 -8 11 -4 21 3 10
12 16 20 13 18 -7 36 18 27 39 -4 12 -3 16 5 11 13 -8 10 68 -7 154 -6 30 -13
64 -15 75 -2 11 -9 40 -16 65 -13 46 -14 51 -25 128 -3 23 -13 61 -20 83 -8
23 -13 45 -10 49 3 5 -5 19 -17 32 -29 31 -48 63 -48 83 0 9 -4 13 -10 10 -6
-3 -10 4 -10 17 0 13 -7 32 -15 42 -8 11 -15 28 -15 39 0 10 -4 15 -10 12 -6
-3 -10 5 -10 18 0 30 -17 65 -47 95 -22 21 -33 69 -13 57 20 -12 -3 27 -36 62
-18 19 -36 44 -39 54 -4 10 -11 19 -16 19 -5 0 -9 7 -9 16 0 16 -23 44 -37 44
-4 0 -19 12 -32 25 -12 14 -27 22 -32 19 -5 -3 -9 1 -9 8 0 7 -11 25 -25 38
-14 14 -39 40 -57 57 -17 18 -34 30 -39 28 -4 -3 -10 3 -14 14 -3 11 -19 26
-35 33 -17 7 -30 16 -30 20 0 5 -9 8 -19 8 -11 0 -23 9 -26 20 -3 11 -12 20
-19 20 -7 0 -30 13 -52 30 -21 16 -45 30 -51 30 -7 0 -13 5 -13 11 0 6 -7 8
-17 5 -10 -4 -14 -4 -10 0 4 4 -2 14 -13 21 -11 8 -18 18 -15 23 3 5 -7 12
-22 15 -42 9 -74 26 -111 57 -18 16 -44 28 -57 28 -14 0 -25 5 -25 11 0 6 -13
9 -29 7 -16 -1 -35 3 -42 9 -18 14 -106 44 -144 48 -93 10 -192 17 -284 20
-57 2 -107 7 -110 12 -3 5 -19 5 -36 -1z m1729 -1658 c-4 -26 -11 -48 -16 -48
-5 0 -6 9 -3 20 4 11 2 20 -4 20 -6 0 -10 3 -9 8 1 4 -2 28 -6 54 -11 63 1 78
25 31 15 -29 18 -49 13 -85z m-4 -79 c0 -6 -4 -7 -10 -4 -5 3 -10 11 -10 16 0
6 5 7 10 4 6 -3 10 -11 10 -16z m-7 -62 c3 -8 -1 -14 -8 -14 -7 0 -11 6 -8 14
3 7 6 13 8 13 2 0 5 -6 8 -13z m-88 -137 c3 -5 1 -10 -4 -10 -6 0 -11 5 -11
10 0 6 2 10 4 10 3 0 8 -4 11 -10z m54 -304 c7 -8 8 -17 3 -20 -6 -3 -12 3
-15 14 -6 24 -4 25 12 6z m27 -111 c0 -14 -4 -25 -8 -25 -12 0 -20 20 -14 35
9 24 24 17 22 -10z m-2126 -951 c0 -2 -9 -4 -21 -4 -11 0 -18 4 -14 10 5 8 35
3 35 -6z m-17 -59 c-3 -9 -8 -14 -10 -11 -3 3 -2 9 2 15 9 16 15 13 8 -4z
m-123 -52 c0 -5 -5 -15 -10 -23 -8 -12 -10 -11 -10 8 0 12 5 22 10 22 6 0 10
-3 10 -7z m-293 -127 c-3 -6 1 -20 9 -31 12 -17 11 -22 -13 -47 -15 -15 -33
-28 -40 -28 -7 0 -13 -7 -13 -15 0 -8 -4 -15 -10 -15 -5 0 -10 4 -10 9 0 5
-10 11 -22 13 -12 2 -23 9 -26 16 -2 7 2 10 11 6 8 -3 17 2 21 13 6 15 8 15
16 3 7 -11 10 -12 10 -2 0 7 5 10 10 7 15 -9 12 39 -4 61 -13 17 -12 20 17 34
27 13 33 14 40 2 5 -7 7 -19 4 -26z m985 -228 c-6 -6 -15 -8 -19 -4 -4 4 -1
11 7 16 19 12 27 3 12 -12z m1215 0 c-3 -8 -6 -5 -6 6 -1 11 2 17 5 13 3 -3 4
-12 1 -19z m-887 -48 c-18 -12 -30 -13 -30 -2 0 4 10 9 22 9 18 2 20 0 8 -7z
m-551 -62 c1 -5 -3 -8 -9 -8 -5 0 -10 12 -9 28 0 24 1 25 9 7 5 -11 9 -23 9
-27z m137 6 c4 -20 2 -40 -3 -45 -14 -14 -63 0 -63 17 0 8 -6 11 -17 7 -10 -4
-4 8 14 25 43 42 60 41 69 -4z m74 28 c0 -10 76 -9 86 1 4 4 15 0 24 -8 10 -9
21 -15 26 -14 20 3 34 -2 34 -13 0 -9 -3 -9 -11 -1 -9 9 -17 6 -31 -13 -17
-21 -27 -24 -84 -24 -41 0 -64 -4 -64 -11 0 -8 -4 -8 -15 1 -16 13 -15 34 3
68 12 21 32 30 32 14z m350 -82 c-20 -13 -10 -12 28 1 24 8 37 7 61 -6 30 -15
36 -33 34 -93 -1 -7 4 -11 11 -9 15 6 39 -30 30 -44 -3 -5 0 -17 7 -25 9 -11
9 -18 1 -26 -7 -7 -8 -17 -2 -27 6 -12 -1 -23 -31 -46 l-39 -29 26 -23 c25
-21 21 -29 -9 -24 -5 1 -6 -3 -2 -9 3 -5 -1 -10 -9 -10 -9 0 -16 -9 -16 -20 0
-22 -7 -25 -29 -11 -11 7 -10 10 4 18 16 9 15 12 -6 27 -13 9 -29 16 -35 16
-7 0 -11 11 -9 25 1 14 -2 25 -6 25 -5 0 -9 -5 -9 -10 0 -6 -11 -3 -24 7 -13
10 -24 20 -23 23 0 3 -3 13 -7 23 -10 22 -30 23 -22 1 5 -13 3 -14 -6 -7 -7 6
-20 10 -28 10 -51 1 -172 13 -180 18 -21 13 -74 14 -82 2 -5 -9 -10 -9 -19 0
-6 6 -18 9 -27 6 -10 -4 -13 -2 -8 5 9 16 -7 15 -22 0 -9 -9 -12 -8 -12 5 0
10 -8 17 -20 17 -11 0 -20 5 -20 11 0 8 -4 8 -12 1 -9 -7 -19 -4 -33 11 l-20
20 28 -5 c26 -5 28 -4 22 20 -5 21 -4 24 8 13 12 -9 16 -7 21 14 5 21 12 25
46 25 29 0 40 4 40 15 0 8 5 15 10 15 6 0 10 -7 10 -14 0 -13 4 -13 34 -1 30
13 36 13 46 0 9 -11 16 -12 25 -5 6 5 15 7 18 3 4 -3 7 -1 7 6 0 8 6 11 16 7
8 -3 12 -2 9 4 -3 6 0 12 7 14 7 1 29 8 48 15 19 7 52 13 73 15 21 2 40 5 42
8 3 3 20 5 37 6 23 1 28 -2 18 -8z m-627 -104 c11 4 54 -53 45 -61 -1 -1 -14
1 -27 6 -15 6 -21 14 -17 24 3 9 0 15 -10 15 -8 0 -12 -4 -9 -10 3 -6 -1 -7
-9 -4 -19 7 -19 9 -3 34 9 16 13 17 15 6 2 -8 9 -13 15 -10z m322 -126 c3 -5
1 -10 -4 -10 -6 0 -11 5 -11 10 0 6 2 10 4 10 3 0 8 -4 11 -10z m450 -150 c3
-5 -1 -10 -10 -10 -9 0 -13 5 -10 10 3 6 8 10 10 10 2 0 7 -4 10 -10z m-115
-46 c0 -8 -4 -12 -10 -9 -5 3 -10 13 -10 21 0 8 5 12 10 9 6 -3 10 -13 10 -21z
m-1495 -454 c-9 -15 17 -83 38 -98 19 -15 14 -31 -23 -70 -11 -12 -18 -27 -14
-34 4 -7 3 -8 -4 -4 -16 10 -15 35 3 52 8 9 15 26 15 39 0 12 -7 25 -15 29 -8
3 -15 10 -15 16 0 6 5 8 10 5 13 -8 13 1 -1 26 -10 20 -6 49 6 49 4 0 3 -5 0
-10z m3305 -100 c0 -5 -4 -10 -10 -10 -5 0 -10 5 -10 10 0 6 5 10 10 10 6 0
10 -4 10 -10z m-3300 -32 c0 -5 -4 -8 -10 -8 -5 0 -10 10 -10 23 0 18 2 19 10
7 5 -8 10 -18 10 -22z m3139 -47 c-6 -16 -25 1 -34 29 l-7 25 22 -21 c12 -12
21 -27 19 -33z m116 30 c3 -5 1 -12 -5 -16 -5 -3 -10 1 -10 9 0 18 6 21 15 7z
m-185 -17 c0 -8 -5 -12 -10 -9 -6 4 -8 11 -5 16 9 14 15 11 15 -7z m150 -11
c0 -22 -2 -25 -10 -13 -13 20 -13 40 0 40 6 0 10 -12 10 -27z m206 -10 c16 2
18 -3 16 -33 -4 -39 -12 -52 -20 -31 -4 11 -6 11 -14 0 -7 -10 -8 -6 -5 13 2
16 -2 33 -9 39 -8 6 -14 19 -14 28 1 15 2 14 13 -1 7 -9 22 -16 33 -15z m193
-85 c-7 -13 -14 -18 -16 -11 -3 7 2 19 9 27 18 20 22 12 7 -16z m-3590 -82
c-3 -3 -11 5 -18 17 -13 21 -12 21 5 5 10 -10 16 -20 13 -22z m-1559 4 c0 -5
-5 -10 -11 -10 -5 0 -7 5 -4 10 3 6 8 10 11 10 2 0 4 -4 4 -10z m1805 -78 c1
-4 7 -18 14 -30 16 -30 8 -38 -24 -24 -24 11 -35 42 -15 42 6 0 10 8 10 17 0
15 15 10 15 -5z m2865 -2 c0 -5 -12 -10 -27 -10 -22 0 -25 2 -13 10 20 13 40
13 40 0z m30 0 c0 -5 -2 -10 -4 -10 -3 0 -8 5 -11 10 -3 6 -1 10 4 10 6 0 11
-4 11 -10z m-3126 -25 c3 -8 1 -15 -4 -15 -6 0 -10 7 -10 15 0 8 2 15 4 15 2
0 6 -7 10 -15z m4090 -4 c3 -5 -1 -12 -10 -15 -20 -8 -29 -1 -19 13 8 13 22
14 29 2z m-810 -27 c21 -14 44 -27 52 -28 22 -3 74 -45 74 -60 0 -8 -7 -16
-15 -20 -8 -3 -15 0 -15 7 0 7 -18 18 -40 24 -22 5 -40 6 -40 2 0 -5 -9 -4
-19 3 -18 11 -18 13 -3 25 15 11 14 12 -10 13 -29 0 -45 15 -28 25 8 5 7 11
-1 21 -18 22 3 16 45 -12z m-2994 -38 c0 -2 -7 -7 -16 -10 -8 -3 -12 -2 -9 4
6 10 25 14 25 6z m60 -6 c0 -5 -5 -10 -11 -10 -5 0 -7 5 -4 10 3 6 8 10 11 10
2 0 4 -4 4 -10z m80 -5 c0 -8 -2 -15 -4 -15 -2 0 -6 7 -10 15 -3 8 -1 15 4 15
6 0 10 -7 10 -15z m165 -5 c3 -5 1 -10 -5 -10 -6 0 -9 -4 -6 -8 2 -4 -5 -9
-17 -9 -25 -2 -41 18 -24 29 17 11 45 10 52 -2z m2884 -53 c16 -3 42 -18 60
-32 17 -15 43 -30 57 -34 20 -5 28 -14 30 -34 2 -23 -1 -27 -22 -27 -15 0 -24
6 -24 15 0 8 -7 15 -15 15 -8 0 -24 9 -36 21 -15 15 -24 18 -32 10 -17 -17
-24 -13 -22 13 2 18 -3 26 -20 30 -24 6 -40 42 -21 49 6 2 12 -2 14 -8 2 -7
16 -15 31 -18z m-5421 6 c2 -7 -2 -13 -8 -13 -8 0 -9 -5 -4 -13 5 -7 2 -5 -8
5 -17 19 -33 25 -23 8 3 -6 -1 -7 -9 -4 -16 6 -20 16 -11 26 10 10 58 3 63 -9z
m-195 -30 c-7 -2 -19 -2 -25 0 -7 3 -2 5 12 5 14 0 19 -2 13 -5z m5727 -29 c0
-2 -9 0 -20 6 -11 6 -20 13 -20 16 0 2 9 0 20 -6 11 -6 20 -13 20 -16z m-4070
-4 c0 -5 -5 -10 -11 -10 -5 0 -7 5 -4 10 3 6 8 10 11 10 2 0 4 -4 4 -10z m565
-29 c3 -5 1 -12 -5 -16 -5 -3 -10 1 -10 9 0 18 6 21 15 7z m3629 -52 c40 -45
41 -67 2 -30 -19 18 -31 21 -54 16 -27 -6 -29 -4 -28 24 2 45 34 41 80 -10z
m-4041 -14 c4 -8 2 -17 -3 -20 -6 -4 -10 -4 -10 -1 0 2 -3 11 -6 20 -3 9 -2
16 4 16 5 0 12 -7 15 -15z m-160 -40 c-3 -8 -9 -15 -14 -15 -10 0 -12 24 -3
33 11 11 24 -3 17 -18z m817 5 c0 -5 -5 -10 -11 -10 -5 0 -7 5 -4 10 3 6 8 10
11 10 2 0 4 -4 4 -10z m-820 -40 c0 -5 -4 -10 -10 -10 -5 0 -10 5 -10 10 0 6
5 10 10 10 6 0 10 -4 10 -10z m400 -70 c0 -5 -5 -10 -11 -10 -5 0 -7 5 -4 10
3 6 8 10 11 10 2 0 4 -4 4 -10z m-544 -22 c-9 -5 -15 -12 -12 -16 2 -4 -12 -8
-33 -9 -27 -1 -31 1 -16 7 11 5 14 9 8 9 -7 1 -13 5 -13 10 0 4 19 8 41 8 31
0 37 -2 25 -9z m1084 -104 c0 -8 -4 -12 -10 -9 -5 3 -10 10 -10 16 0 5 5 9 10
9 6 0 10 -7 10 -16z m156 -3 c14 -11 20 -22 15 -25 -5 -4 -13 -1 -17 5 -4 8
-9 8 -13 1 -10 -17 -32 2 -25 21 8 21 10 21 40 -2z m221 -175 c-4 -9 -11 -16
-17 -16 -7 0 -8 6 -1 19 6 10 9 21 7 23 -1 3 2 2 7 -3 5 -4 7 -15 4 -23z"/>
<path d="M4660 3600 c0 -5 5 -10 11 -10 5 0 7 5 4 10 -3 6 -8 10 -11 10 -2 0
-4 -4 -4 -10z"/>
<path d="M4515 3510 c-3 -5 -1 -10 4 -10 6 0 11 5 11 10 0 6 -2 10 -4 10 -3 0
-8 -4 -11 -10z"/>
<path d="M4535 3470 c3 -5 10 -10 16 -10 5 0 9 5 9 10 0 6 -7 10 -16 10 -8 0
-12 -4 -9 -10z"/>
<path d="M6695 2180 c3 -5 8 -10 11 -10 2 0 4 5 4 10 0 6 -5 10 -11 10 -5 0
-7 -4 -4 -10z"/>
<path d="M3142 6075 c-7 -14 -12 -32 -12 -39 0 -17 -68 -72 -84 -69 -15 4 -46
-49 -46 -78 0 -12 -8 -32 -19 -43 -10 -12 -22 -31 -26 -43 -5 -19 -2 -23 15
-23 11 0 23 -7 26 -15 4 -8 13 -15 21 -15 8 0 11 4 8 10 -3 6 1 7 9 4 10 -4
16 -1 16 9 0 9 8 18 18 20 10 3 6 5 -11 6 l-29 1 31 26 c23 19 35 23 47 16 17
-10 54 -5 54 7 0 3 14 12 31 20 27 12 32 11 44 -5 11 -16 16 -17 38 -5 23 12
29 11 61 -8 20 -13 41 -19 47 -15 23 14 69 12 69 -2 0 -9 -6 -11 -17 -7 -15 6
-16 5 -3 -9 11 -11 17 -12 22 -4 6 8 13 8 28 -1 27 -17 50 -16 50 2 0 8 5 15
10 15 6 0 10 -4 10 -10 0 -5 9 -19 20 -30 l20 -20 0 20 c0 11 7 20 15 20 8 0
15 5 15 10 0 16 18 12 40 -10 19 -19 20 -19 20 -1 0 24 23 43 44 35 13 -5 14
-9 5 -21 -10 -12 -8 -14 17 -10 31 4 44 31 25 50 -13 13 -15 41 -2 33 5 -3 4
12 -1 33 -8 31 -17 42 -40 50 -19 7 -27 15 -22 22 4 8 3 9 -5 5 -6 -4 -14 -1
-17 7 -3 9 -13 13 -25 10 -10 -3 -19 0 -19 6 0 6 -13 11 -29 11 -16 0 -34 7
-42 16 -7 8 -21 13 -31 11 -10 -3 -21 -1 -24 5 -3 5 -13 7 -21 4 -8 -3 -24 -1
-36 5 -16 9 -22 9 -25 0 -3 -9 -8 -9 -20 1 -12 11 -16 11 -20 0 -3 -10 -7 -10
-19 0 -14 11 -15 10 -9 -10 7 -22 7 -22 -31 -8 -55 21 -110 28 -118 16 -4 -6
-12 -5 -21 5 -22 22 -39 18 -52 -10z m218 -185 c0 -5 -7 -10 -16 -10 -8 0 -12
5 -9 10 3 6 10 10 16 10 5 0 9 -4 9 -10z m25 -31 c-8 -12 -35 -11 -35 2 0 5 5
7 10 4 6 -3 10 -1 10 5 0 6 5 8 10 5 6 -4 8 -11 5 -16z m35 1 c0 -5 -4 -10
-10 -10 -5 0 -10 5 -10 10 0 6 5 10 10 10 6 0 10 -4 10 -10z"/>
<path d="M3105 6050 c3 -5 8 -10 11 -10 2 0 4 5 4 10 0 6 -5 10 -11 10 -5 0
-7 -4 -4 -10z"/>
<path d="M3191 5804 c0 -11 3 -14 6 -6 3 7 2 16 -1 19 -3 4 -6 -2 -5 -13z"/>
<path d="M5827 5798 c-4 -12 -4 -24 -2 -27 3 -2 5 1 5 8 0 7 5 9 10 6 6 -3 10
1 10 9 0 25 -17 27 -23 4z"/>
<path d="M4866 5801 c-3 -5 -15 -7 -26 -4 -16 4 -19 2 -14 -11 4 -11 1 -16
-11 -16 -12 0 -16 -6 -12 -20 3 -11 1 -18 -4 -14 -20 12 -7 -10 23 -37 24 -23
33 -27 39 -17 5 7 9 9 9 3 0 -5 5 -3 10 5 7 11 10 12 10 2 0 -9 7 -11 20 -7
10 3 29 1 41 -5 17 -10 20 -9 14 1 -6 9 2 11 34 5 32 -5 43 -3 47 9 4 8 12 15
20 15 8 0 14 7 14 15 0 9 7 18 15 21 8 4 15 10 15 16 0 5 -4 7 -9 4 -5 -4 -11
-2 -13 3 -1 5 -29 12 -60 14 -32 2 -55 0 -52 -5 8 -12 -10 -10 -25 5 -11 10
-13 9 -7 -1 10 -17 -73 -55 -91 -41 -15 13 5 52 24 45 7 -3 10 1 6 10 -6 16
-10 17 -17 5z"/>
<path d="M3600 5780 c0 -5 5 -10 10 -10 6 0 10 5 10 10 0 6 -4 10 -10 10 -5 0
-10 -4 -10 -10z"/>
<path d="M3720 5780 c0 -5 5 -10 11 -10 5 0 7 5 4 10 -3 6 -8 10 -11 10 -2 0
-4 -4 -4 -10z"/>
<path d="M3345 5770 c3 -5 8 -10 11 -10 2 0 4 5 4 10 0 6 -5 10 -11 10 -5 0
-7 -4 -4 -10z"/>
<path d="M3396 5765 c-3 -8 -1 -15 3 -15 5 0 11 7 15 15 3 8 1 15 -3 15 -5 0
-11 -7 -15 -15z"/>
<path d="M3205 5760 c-3 -6 1 -7 9 -4 18 7 21 14 7 14 -6 0 -13 -4 -16 -10z"/>
<path d="M3249 5741 c-26 -25 -29 -33 -20 -50 7 -13 17 -18 27 -14 12 4 13 8
3 13 -13 9 -6 40 10 40 5 0 16 -11 25 -24 17 -27 79 -35 69 -10 -3 8 -9 11
-14 8 -5 -3 -9 9 -9 27 0 34 -14 30 -23 -6 -4 -16 -5 -14 -6 6 -2 39 -27 43
-62 10z"/>
<path d="M3450 5760 c-13 -8 -13 -11 2 -26 16 -16 18 -16 34 0 14 15 15 19 3
27 -18 11 -21 11 -39 -1z"/>
<path d="M3530 5739 c0 -6 7 -9 15 -5 8 3 15 1 15 -5 0 -6 5 -7 10 -4 6 4 8
11 5 16 -9 13 -45 11 -45 -2z"/>
<path d="M3590 5742 c0 -4 5 -13 12 -20 9 -9 8 -12 -4 -12 -8 0 -21 -7 -28
-16 -17 -19 -56 -41 -46 -25 9 15 -3 13 -33 -3 -19 -10 -31 -11 -48 -3 -16 7
-30 7 -48 -1 -32 -15 -38 -15 -30 -2 3 6 -1 7 -9 4 -9 -3 -16 -11 -16 -16 0
-5 -6 -8 -12 -5 -7 2 -28 -5 -46 -15 -35 -19 -57 -24 -48 -9 3 5 0 14 -8 20
-11 9 -15 7 -19 -8 -3 -11 0 -22 7 -24 6 -2 0 -9 -13 -16 -20 -11 -25 -11 -33
3 -5 9 -21 16 -35 16 -14 0 -32 8 -40 18 -13 16 -14 15 -8 -5 5 -17 2 -23 -9
-23 -9 0 -16 -9 -16 -20 0 -11 5 -20 10 -20 20 0 9 -21 -15 -30 -15 -6 -25
-17 -25 -29 0 -11 -11 -41 -25 -66 -25 -44 -23 -57 5 -32 8 6 4 0 -9 -15 -25
-28 -23 -50 2 -30 8 7 17 8 21 4 4 -4 -9 -12 -31 -19 -21 -6 -30 -12 -20 -12
9 -1 17 -5 17 -11 0 -5 -8 -14 -17 -19 -15 -8 -15 -11 -3 -12 8 -1 18 -1 23 0
16 2 5 -17 -15 -27 -13 -6 -17 -11 -10 -11 6 -1 12 -8 12 -16 0 -8 9 -19 20
-25 12 -7 17 -16 13 -28 -4 -11 1 -9 16 7 11 13 24 21 28 17 4 -4 1 -11 -7
-16 -8 -5 -11 -13 -6 -17 4 -4 15 1 23 12 11 14 17 16 20 8 3 -7 12 -13 21
-12 14 0 12 3 -5 16 -26 18 -30 33 -9 33 8 0 22 7 30 16 9 8 16 11 16 5 0 -22
20 -10 21 12 1 18 2 18 6 4 3 -11 11 -16 19 -13 7 3 18 -4 24 -15 6 -11 15
-17 20 -14 5 3 28 -8 51 -25 43 -30 62 -33 39 -5 -16 20 7 21 33 1 10 -8 27
-12 37 -9 14 4 20 0 20 -10 0 -11 -15 -20 -42 -27 -24 -6 -56 -15 -72 -20 -15
-6 -39 -7 -52 -4 -13 3 -24 2 -24 -4 0 -5 -13 -12 -29 -15 -16 -3 -31 -13 -34
-22 -5 -12 -1 -14 20 -9 18 5 24 4 19 -5 -5 -8 0 -8 19 -1 37 14 58 13 52 -3
-3 -8 -1 -20 4 -28 7 -11 9 -11 9 4 0 9 4 17 9 17 5 0 8 -6 7 -14 0 -8 3 -15
8 -15 5 1 12 -5 17 -13 6 -10 11 -10 21 0 19 19 30 14 17 -9 -7 -15 -8 -24 0
-32 7 -7 7 -16 0 -30 -8 -14 -8 -22 1 -31 8 -8 10 -7 5 5 -4 10 3 22 19 33 28
18 36 42 11 32 -17 -6 -19 3 -4 24 8 11 12 12 16 3 6 -17 33 -17 33 -1 0 7 16
-4 36 -24 20 -22 41 -35 50 -31 18 7 18 13 -3 30 -10 8 -13 12 -6 9 6 -4 14
-2 18 4 10 17 22 11 29 -12 4 -18 8 -20 18 -10 6 6 22 12 35 12 13 0 23 5 23
10 0 6 -4 10 -10 10 -5 0 -10 5 -10 10 0 6 9 10 21 10 15 0 19 4 15 16 -5 13
-2 15 13 11 15 -3 18 -1 14 11 -4 10 -2 13 5 8 6 -3 13 -2 17 4 3 5 20 10 36
10 21 0 32 -6 39 -22 8 -21 9 -20 9 10 1 17 6 32 12 32 5 0 7 5 4 10 -3 6 3
10 14 10 14 0 23 9 27 25 5 21 74 86 74 69 0 -3 7 -1 15 6 8 7 22 10 30 6 21
-8 19 4 -7 31 -15 17 -17 23 -7 23 8 0 19 10 24 23 6 12 16 21 23 19 15 -3 16
14 1 24 -8 5 -6 10 5 16 16 9 16 11 -1 24 -17 13 -17 14 0 25 15 9 16 13 5 26
-10 13 -10 17 0 20 17 6 15 23 -2 23 -19 0 -86 60 -86 78 0 7 -8 21 -17 30
-16 16 -21 18 -50 21 -7 0 -13 8 -13 16 0 9 -6 12 -17 8 -13 -5 -15 -2 -11 15
5 18 3 20 -10 13 -19 -9 -45 -3 -37 9 3 4 -1 7 -8 6 -6 0 -13 4 -13 9 -1 6 3
9 10 7 7 -2 7 1 -2 10 -10 10 -16 10 -33 0 -17 -11 -23 -10 -40 10 -13 16 -17
18 -13 6 9 -25 -22 -23 -38 2 -13 20 -38 28 -38 12z m-463 -157 c-4 -8 -2 -17
3 -20 5 -3 12 4 15 16 6 16 9 18 15 8 5 -7 4 -22 -3 -33 -6 -12 -11 -23 -10
-26 1 -3 -7 -7 -18 -7 -17 -2 -18 1 -8 13 10 12 8 19 -11 39 l-23 25 22 0 c16
0 21 -4 18 -15z m289 -10 c1 -8 -2 -13 -7 -9 -5 3 -9 12 -9 21 0 19 13 9 16
-12z m-61 -5 c0 -21 -54 -45 -68 -31 -16 16 -27 14 -27 -5 0 -11 -6 -14 -20
-9 -15 5 -18 3 -14 -10 4 -9 3 -15 -2 -14 -22 4 -34 -2 -34 -16 0 -8 -9 -15
-20 -15 -25 0 -25 5 0 40 21 30 84 64 104 57 6 -3 21 2 31 9 24 18 50 14 50
-6z m320 -147 c1 -29 -26 -63 -50 -63 -8 0 -15 -4 -15 -10 0 -13 -27 -13 -35
0 -4 6 -3 16 2 23 6 7 16 28 23 47 27 67 72 69 75 3z m-327 -46 c15 -23 31
-46 37 -50 15 -12 -46 4 -77 20 -16 7 -28 20 -28 29 0 8 -4 12 -10 9 -13 -8
-13 -3 0 30 8 22 13 24 30 15 11 -6 33 -30 48 -53z"/>
<path d="M2970 5720 c0 -5 5 -10 11 -10 5 0 7 5 4 10 -3 6 -8 10 -11 10 -2 0
-4 -4 -4 -10z"/>
<path d="M3510 5702 c0 -5 7 -13 16 -16 10 -4 14 -1 12 6 -5 15 -28 23 -28 10z"/>
<path d="M3179 5677 c5 -5 7 -16 4 -23 -7 -19 5 -18 24 1 18 18 12 28 -18 30
-12 1 -16 -2 -10 -8z"/>
<path d="M3851 5644 c0 -11 3 -14 6 -6 3 7 2 16 -1 19 -3 4 -6 -2 -5 -13z"/>
<path d="M4838 5575 c-2 -3 -19 -7 -38 -9 -18 -2 -36 -10 -41 -17 -7 -11 -9
-10 -9 3 0 15 -4 15 -30 6 -32 -11 -55 -41 -45 -58 9 -15 -8 -12 -32 5 -19 13
-22 13 -27 0 -3 -8 -1 -15 4 -15 11 0 9 -42 -2 -50 -4 -4 -19 -28 -32 -55 -28
-54 -25 -65 26 -91 26 -13 28 -17 16 -32 -9 -11 -10 -14 0 -8 11 7 16 -4 13
-31 -1 -6 11 -13 26 -15 15 -2 27 -8 26 -14 -1 -6 10 -17 24 -23 24 -11 25
-10 20 10 -3 11 -3 18 0 15 4 -3 12 -1 19 5 8 6 20 9 28 6 8 -3 19 0 26 7 6 9
32 14 68 13 98 0 145 22 178 85 12 23 16 25 38 15 13 -7 22 -15 20 -19 -3 -5
0 -8 5 -8 6 0 21 -11 33 -25 12 -14 27 -25 34 -25 7 0 20 -10 28 -22 22 -31
31 -15 15 24 -11 28 -63 88 -75 88 -2 0 -25 15 -51 33 -27 19 -55 37 -63 40
-8 4 -22 11 -30 16 -20 12 -72 34 -88 37 -8 1 -17 6 -20 10 -4 4 2 4 12 0 16
-5 17 -4 6 9 -10 12 -9 16 4 21 20 8 21 28 1 44 -12 10 -15 10 -15 0 0 -10 -3
-10 -15 0 -8 7 -24 10 -36 7 -15 -4 -19 -2 -15 9 5 14 3 18 -6 9z m-52 -205
c0 -19 4 -48 9 -64 7 -26 6 -28 -16 -21 -42 13 -69 37 -69 58 0 26 39 67 60
64 10 -1 15 -14 16 -37z"/>
<path d="M4965 5520 c3 -5 10 -10 16 -10 5 0 9 5 9 10 0 6 -7 10 -16 10 -8 0
-12 -4 -9 -10z"/>
<path d="M4045 5440 c3 -5 8 -10 11 -10 2 0 4 5 4 10 0 6 -5 10 -11 10 -5 0
-7 -4 -4 -10z"/>
<path d="M5622 5400 c0 -14 2 -19 5 -12 2 6 2 18 0 25 -3 6 -5 1 -5 -13z"/>
<path d="M5610 5340 c0 -5 5 -10 10 -10 6 0 10 5 10 10 0 6 -4 10 -10 10 -5 0
-10 -4 -10 -10z"/>
<path d="M4810 5195 c-10 -12 -10 -15 4 -15 9 0 16 7 16 15 0 8 -2 15 -4 15
-2 0 -9 -7 -16 -15z"/>
<path d="M2330 5183 c-23 -9 -28 -22 -25 -72 1 -25 -2 -55 -8 -65 -8 -16 -6
-18 9 -12 17 7 17 6 -1 -12 -18 -17 -21 -17 -27 -3 -8 18 -8 18 -13 -29 -4
-34 11 -90 24 -90 4 0 7 -10 8 -22 2 -32 25 -98 32 -94 3 2 6 -10 6 -27 0 -22
4 -31 14 -29 8 2 11 -3 8 -13 -4 -8 -2 -15 3 -15 9 0 15 38 12 80 0 7 6 27 15
43 8 16 12 31 9 35 -3 3 -6 -1 -6 -8 0 -7 -3 -11 -6 -8 -3 4 -1 16 6 27 6 13
7 21 1 21 -5 0 -9 18 -8 40 2 22 -1 40 -5 40 -3 0 -6 14 -6 30 1 17 -2 33 -5
37 -4 3 -7 -2 -7 -13 0 -16 -2 -17 -10 -4 -5 8 -7 22 -4 31 2 9 -1 23 -9 31
-18 17 -18 48 0 41 7 -3 11 -9 8 -14 -3 -4 8 -3 25 2 16 6 30 14 31 17 5 40 4
50 -2 46 -4 -2 -10 0 -14 6 -7 11 -31 12 -55 3z m52 -45 c-9 -9 -15 -9 -24 0
-9 9 -7 12 12 12 19 0 21 -3 12 -12z"/>
<path d="M3875 5181 c-6 -11 9 -23 19 -14 9 9 7 23 -3 23 -6 0 -12 -4 -16 -9z"/>
<path d="M3130 5170 c0 -5 5 -10 11 -10 5 0 7 5 4 10 -3 6 -8 10 -11 10 -2 0
-4 -4 -4 -10z"/>
<path d="M4675 5150 c3 -5 12 -10 20 -10 7 0 23 -11 33 -25 18 -22 21 -23 24
-8 2 13 -8 23 -35 36 -45 20 -50 21 -42 7z"/>
<path d="M5620 5030 c0 -11 5 -20 10 -20 6 0 10 9 10 20 0 11 -4 20 -10 20 -5
0 -10 -9 -10 -20z"/>
<path d="M5647 5002 c-14 -3 -17 -10 -13 -25 3 -12 6 -25 6 -29 0 -5 4 -8 9
-8 7 0 23 63 17 66 0 0 -9 -2 -19 -4z"/>
<path d="M3434 4985 c-4 -8 -3 -27 1 -42 l6 -26 22 22 c21 21 21 23 5 35 -10
7 -15 16 -11 19 3 4 1 7 -6 7 -6 0 -14 -7 -17 -15z"/>
<path d="M3480 4916 c0 -17 14 -29 23 -20 8 8 -3 34 -14 34 -5 0 -9 -6 -9 -14z"/>
<path d="M3576 4909 c-12 -18 -13 -25 -3 -31 8 -5 14 2 19 19 10 35 4 40 -16
12z"/>
<path d="M5640 4909 c0 -5 5 -7 10 -4 6 3 10 8 10 11 0 2 -4 4 -10 4 -5 0 -10
-5 -10 -11z"/>
<path d="M3695 4900 c-3 -5 -1 -10 4 -10 6 0 11 5 11 10 0 6 -2 10 -4 10 -3 0
-8 -4 -11 -10z"/>
<path d="M4393 4464 c-29 -13 -53 -31 -53 -40 0 -16 39 -35 54 -26 5 3 6 0 2
-6 -4 -7 -2 -12 5 -12 6 0 18 -8 25 -17 10 -15 15 -16 26 -5 11 11 10 12 -6 6
-13 -5 -17 -4 -12 4 4 7 16 12 27 12 10 0 19 5 19 11 0 5 4 8 9 5 4 -3 7 10 5
29 -1 20 2 33 7 29 14 -8 11 3 -7 20 -21 22 -40 20 -101 -10z"/>
<path d="M2470 4460 c0 -5 5 -10 10 -10 6 0 10 5 10 10 0 6 -4 10 -10 10 -5 0
-10 -4 -10 -10z"/>
<path d="M3022 4440 c7 -10 14 -18 15 -16 6 6 -9 36 -18 36 -5 0 -4 -9 3 -20z"/>
<path d="M2470 4428 c0 -15 18 -17 30 -3 9 11 8 14 -9 12 -12 -1 -21 -5 -21
-9z"/>
<path d="M3221 4356 c-16 -19 -11 -29 8 -17 7 5 12 14 9 21 -3 9 -8 7 -17 -4z"/>
<path d="M3042 4332 c-7 -16 -23 -35 -37 -42 -14 -7 -25 -19 -25 -27 0 -7 -4
-13 -9 -13 -5 0 -7 -9 -4 -20 5 -20 32 -28 34 -10 1 6 2 14 3 19 0 5 11 21 24
36 12 14 20 30 17 34 -2 5 5 11 16 14 12 3 19 11 17 18 -8 23 -23 19 -36 -9z"/>
<path d="M5095 3811 c-7 -12 12 -24 25 -16 11 7 4 25 -10 25 -5 0 -11 -4 -15
-9z"/>
<path d="M5891 2914 c0 -11 3 -14 6 -6 3 7 2 16 -1 19 -3 4 -6 -2 -5 -13z"/>
<path d="M5945 2850 c-3 -5 -1 -10 4 -10 6 0 11 5 11 10 0 6 -2 10 -4 10 -3 0
-8 -4 -11 -10z"/>
<path d="M6200 2810 c-9 -6 -10 -10 -3 -10 6 0 15 5 18 10 8 12 4 12 -15 0z"/>
<path d="M4971 2634 c0 -11 3 -14 6 -6 3 7 2 16 -1 19 -3 4 -6 -2 -5 -13z"/>
<path d="M7150 2485 c7 -9 15 -13 17 -11 7 7 -7 26 -19 26 -6 0 -6 -6 2 -15z"/>
<path d="M3180 2368 c0 -8 7 -15 15 -15 18 0 15 19 -3 25 -7 2 -12 -3 -12 -10z"/>
<path d="M3512 2216 c2 -20 9 -32 21 -34 16 -3 17 -1 7 18 -6 12 -9 27 -7 34
3 7 -1 13 -9 13 -11 0 -14 -9 -12 -31z"/>
<path d="M7438 2243 c6 -2 9 -10 6 -15 -4 -7 -2 -8 5 -4 13 9 5 26 -12 25 -9
0 -8 -2 1 -6z"/>
<path d="M3312 2228 c-14 -14 -16 -28 -3 -28 5 0 11 9 14 20 6 23 5 24 -11 8z"/>
<path d="M3700 2230 c0 -5 5 -10 10 -10 6 0 10 5 10 10 0 6 -4 10 -10 10 -5 0
-10 -4 -10 -10z"/>
<path d="M3595 2210 c-3 -5 -1 -10 4 -10 6 0 11 5 11 10 0 6 -2 10 -4 10 -3 0
-8 -4 -11 -10z"/>
<path d="M3276 2173 c-6 -14 -5 -15 5 -6 7 7 10 15 7 18 -3 3 -9 -2 -12 -12z"/>
<path d="M3416 2161 c-4 -7 -5 -15 -2 -18 9 -9 19 4 14 18 -4 11 -6 11 -12 0z"/>
<path d="M2640 2005 c0 -11 36 -41 63 -53 34 -15 37 -15 37 -2 0 6 -7 10 -15
10 -8 0 -25 11 -39 25 -23 23 -46 33 -46 20z"/>
<path d="M3580 1960 c0 -5 5 -10 10 -10 6 0 10 5 10 10 0 6 -4 10 -10 10 -5 0
-10 -4 -10 -10z"/>
<path d="M2632 1928 c-12 -43 -5 -58 25 -58 21 0 25 4 21 25 -4 20 -2 23 12
15 15 -8 17 -6 13 9 -4 15 -41 41 -58 41 -3 0 -8 -15 -13 -32z"/>
<path d="M530 1901 l-24 -7 23 -23 c23 -23 43 -22 23 2 -9 10 -8 17 0 25 7 7
10 12 8 11 -3 -1 -16 -4 -30 -8z"/>
<path d="M255 1890 c-3 -5 -1 -10 4 -10 6 0 11 5 11 10 0 6 -2 10 -4 10 -3 0
-8 -4 -11 -10z"/>
<path d="M592 1889 c2 -7 10 -15 17 -17 8 -3 12 1 9 9 -2 7 -10 15 -17 17 -8
3 -12 -1 -9 -9z"/>
<path d="M647 1894 c-4 -4 -4 -18 -1 -30 6 -24 -2 -29 -35 -24 -8 1 -18 -4
-23 -12 -6 -9 -7 -6 -3 9 3 12 1 24 -5 28 -6 3 -10 -3 -10 -14 0 -28 -14 -26
-44 6 -26 28 -49 26 -26 -2 8 -10 9 -15 1 -15 -21 0 -26 2 -23 11 1 5 -5 9
-13 9 -8 0 -15 -7 -15 -16 0 -11 -5 -14 -17 -9 -10 4 -31 9 -48 11 -16 2 -31
8 -33 14 -2 5 -8 10 -14 10 -6 0 -8 -12 -4 -32 5 -25 4 -30 -6 -20 -7 7 -20
12 -29 12 -9 0 -19 7 -23 15 -3 8 -13 15 -23 15 -13 0 -14 -3 -5 -12 18 -18
14 -32 -5 -17 -12 10 -14 10 -9 1 10 -17 -20 -27 -38 -13 -7 6 -20 9 -29 5 -8
-3 -18 -1 -21 4 -3 6 1 12 9 16 8 3 15 11 15 17 0 7 -11 3 -23 -10 -16 -14
-31 -19 -43 -15 -15 5 -16 4 -4 -5 8 -5 11 -14 6 -18 -4 -4 -13 -1 -19 7 -7 8
-21 14 -32 14 -11 -1 -28 -2 -37 -3 -10 -1 -18 -6 -18 -11 0 -7 7 -7 22 0 l23
11 -22 -17 c-22 -16 -23 -21 -23 -201 0 -157 2 -184 14 -174 32 27 149 10 206
-29 30 -20 60 -22 78 -3 7 7 21 13 30 13 18 0 113 34 147 53 20 11 114 46 126
47 3 0 4 -11 1 -25 -5 -28 5 -32 33 -11 16 12 17 16 6 29 -11 14 -7 17 26 22
21 3 46 10 55 16 36 19 62 7 38 -17 -8 -8 4 -9 37 -4 56 9 61 7 39 -15 -9 -9
-16 -24 -16 -33 1 -21 23 -52 38 -52 6 0 14 -9 17 -20 3 -11 13 -20 21 -20 8
0 14 -7 14 -15 0 -8 9 -20 20 -27 11 -7 20 -19 20 -26 0 -7 4 -11 9 -8 5 3 12
-10 15 -29 4 -19 11 -35 16 -35 5 0 7 -6 4 -14 -3 -8 -1 -17 5 -21 6 -3 11
-13 11 -22 0 -14 43 -63 56 -63 2 0 4 7 4 15 0 20 16 19 24 -2 6 -14 9 -14 27
6 11 12 24 19 30 16 10 -7 73 34 150 97 26 21 52 38 58 38 6 0 8 7 5 15 -4 10
0 15 12 16 44 3 49 5 46 18 -2 8 3 11 12 8 8 -3 20 1 26 9 14 16 35 20 25 4
-3 -6 1 -7 9 -4 10 4 18 -1 22 -11 5 -13 9 -14 15 -4 5 9 17 2 43 -26 19 -21
33 -42 30 -46 -2 -4 0 -10 6 -14 5 -3 10 -15 10 -26 0 -11 4 -17 10 -14 12 8
7 -113 -9 -180 -6 -27 -14 -60 -16 -73 -3 -13 -10 -20 -17 -16 -7 5 -9 -5 -6
-30 3 -30 1 -35 -13 -31 -12 4 -16 0 -15 -12 0 -10 6 -21 11 -25 6 -5 3 -8 -7
-8 -34 0 -35 -85 -1 -136 17 -26 12 -30 -18 -14 -13 7 -19 7 -19 1 0 -6 -11
-13 -25 -17 -14 -3 -25 -9 -25 -13 0 -12 20 -36 20 -25 0 8 11 9 36 4 20 -5
42 -6 49 -4 7 3 15 -3 19 -12 8 -21 5 -25 -28 -27 -15 -1 -31 -8 -35 -16 -5
-8 -16 -11 -24 -8 -21 8 -28 -2 -14 -18 7 -7 19 -10 27 -6 24 11 63 7 67 -6 3
-7 0 -13 -6 -13 -6 0 -11 6 -11 13 0 6 -5 4 -11 -6 -9 -15 -7 -21 8 -32 15
-11 16 -16 5 -27 -11 -11 -13 -10 -10 2 2 8 -3 15 -9 14 -7 -1 -24 -2 -38 -2
-14 -1 -25 -7 -25 -13 0 -6 6 -9 14 -6 19 8 28 -3 15 -19 -8 -9 -5 -11 10 -7
12 3 21 1 21 -5 0 -16 -36 -33 -54 -26 -9 4 -16 1 -16 -6 0 -8 -10 -11 -27 -7
-15 3 -32 -1 -39 -8 -16 -15 -8 -25 20 -25 15 0 17 -3 8 -12 -7 -7 -11 -23
-11 -38 1 -16 3 -19 6 -8 9 37 23 16 19 -28 -4 -46 -37 -96 -53 -80 -4 4 -1
11 7 16 20 13 3 12 -21 0 -10 -6 -19 -18 -19 -26 0 -8 -11 -35 -25 -60 -26
-46 -23 -50 19 -34 21 8 26 7 26 -6 0 -12 -6 -15 -20 -11 -17 4 -20 2 -15 -14
5 -15 1 -19 -14 -19 -12 0 -21 5 -21 10 0 6 -6 10 -14 10 -8 0 -17 6 -19 13
-3 6 -6 2 -6 -10 -1 -12 5 -24 12 -27 6 -3 2 -3 -10 0 -31 7 -28 -7 5 -31 24
-17 46 -20 175 -23 102 -2 147 0 147 8 0 6 7 27 16 48 10 20 18 42 19 47 4 31
18 65 27 65 5 0 8 6 7 13 -5 21 12 75 26 87 8 6 11 18 9 25 -3 7 3 22 13 32
10 10 19 32 20 48 1 28 20 89 48 160 7 17 16 47 19 68 4 20 11 37 15 37 5 0
12 25 16 55 3 30 11 55 16 55 6 0 7 5 3 11 -3 6 -1 14 5 18 10 7 13 18 27 104
3 20 10 37 15 37 5 0 9 11 9 25 0 14 3 25 8 25 4 0 7 15 6 33 0 43 5 57 23 57
11 0 13 7 9 24 -6 23 18 87 25 67 7 -19 53 13 71 49 10 19 18 31 18 25 0 -7 3
-7 8 0 4 6 17 18 29 29 20 16 25 17 52 5 17 -8 31 -18 31 -22 0 -5 5 -5 12 -1
6 4 8 3 5 -3 -4 -5 7 -23 23 -38 17 -16 30 -35 30 -42 0 -7 4 -13 8 -13 4 0 8
-8 9 -17 3 -38 10 -54 30 -68 21 -15 22 -61 0 -48 -6 3 -7 1 -3 -6 6 -9 11 -9
21 -1 16 13 22 5 30 -40 3 -18 9 -38 12 -43 3 -6 1 -7 -5 -3 -17 10 -15 -4 3
-23 8 -9 27 -30 42 -48 24 -28 36 -33 89 -37 77 -6 117 -24 111 -48 -3 -9 1
-22 9 -29 8 -6 14 -17 14 -24 0 -7 7 -18 15 -25 11 -9 15 -27 13 -57 -1 -27 3
-48 11 -52 6 -4 12 -19 13 -32 0 -13 7 -39 15 -57 8 -19 12 -43 9 -55 -3 -11
0 -27 6 -34 6 -8 6 -13 1 -13 -11 0 -9 -85 2 -119 4 -12 2 -21 -4 -21 -16 0
-25 -48 -11 -64 8 -11 9 -20 0 -36 -8 -16 -7 -25 5 -42 16 -24 21 -53 6 -44
-10 6 -23 -33 -15 -46 3 -4 18 -8 34 -8 27 0 29 2 39 68 6 37 13 144 16 239 3
94 12 236 20 315 11 99 15 225 13 408 -3 320 -16 433 -60 504 -16 27 -28 57
-25 66 4 14 -3 19 -27 23 -17 3 -38 -1 -46 -7 -21 -16 -70 -20 -70 -6 0 8 -9
10 -25 6 -14 -4 -25 -2 -25 3 0 6 -6 8 -14 5 -8 -3 -34 4 -59 15 -48 22 -107
28 -107 11 0 -5 5 -10 12 -10 6 0 8 -3 5 -6 -4 -4 -13 -1 -22 6 -8 7 -22 10
-30 6 -9 -3 -13 -2 -10 4 3 6 2 10 -4 10 -6 0 -15 -9 -21 -20 -6 -11 -16 -20
-22 -20 -7 0 -6 5 2 15 7 8 8 15 2 15 -5 0 -15 -6 -21 -13 -11 -14 -67 -17
-88 -4 -6 4 -14 3 -18 -3 -4 -6 -13 -7 -23 -1 -9 4 -22 6 -29 4 -6 -2 -14 0
-17 6 -4 6 -13 8 -22 4 -8 -3 -21 3 -29 13 -14 18 -14 18 -15 -2 0 -19 -6 -22
-42 -22 -43 -1 -98 16 -98 30 0 5 -7 8 -15 8 -8 0 -15 5 -15 11 0 5 -4 8 -10
4 -5 -3 -18 3 -30 15 -30 30 -51 26 -44 -9 5 -23 2 -32 -16 -41 -17 -9 -25 -9
-39 4 -15 13 -24 14 -50 5 -23 -8 -35 -8 -46 1 -11 9 -18 9 -32 0 -17 -11 -17
-11 0 -6 11 3 15 2 12 -4 -3 -6 -1 -10 6 -10 7 0 10 -2 7 -5 -3 -3 -23 1 -45
9 -40 14 -41 14 -35 -7 5 -20 4 -21 -12 -7 -17 13 -81 40 -99 40 -5 0 -5 -4
-2 -10 8 -13 2 -13 -30 2 -16 7 -21 14 -14 18 7 5 8 10 1 14 -6 3 -13 -2 -17
-13 -8 -27 -33 -34 -52 -15 -11 11 -19 12 -26 5 -14 -14 -47 -14 -47 0 0 5 -5
7 -11 4 -6 -4 -8 -13 -5 -21 8 -20 -23 -5 -35 18 -16 30 -51 39 -67 17 -13
-19 -52 -27 -52 -10 0 4 -14 7 -31 5 -24 -3 -32 0 -36 17 -3 12 -11 18 -19 15
-8 -3 -19 4 -25 16 -11 21 -12 21 -25 4 -8 -12 -21 -17 -33 -13 -11 3 -23 0
-26 -7 -3 -6 -3 -1 -1 11 2 14 0 20 -9 17 -7 -3 -15 4 -18 15 -3 12 0 21 6 21
7 0 -3 9 -22 21 -19 11 -42 18 -53 16 -20 -6 -25 8 -5 17 6 4 2 4 -10 2 -19
-3 -21 -1 -14 12 5 10 5 22 -2 33 -9 14 -15 15 -35 6 -20 -9 -26 -9 -30 1 -4
13 -15 16 -25 6z m70 -56 c-3 -8 -6 -5 -6 6 -1 11 2 17 5 13 3 -3 4 -12 1 -19z
m-332 -8 c8 -13 -5 -13 -25 0 -13 8 -13 10 2 10 9 0 20 -4 23 -10z m145 -10
c-8 -5 -19 -10 -25 -10 -5 0 -3 5 5 10 8 5 20 10 25 10 6 0 3 -5 -5 -10z
m-210 -4 c0 -11 -19 -15 -25 -6 -3 5 1 10 9 10 9 0 16 -2 16 -4z m598 -140
c-7 -8 -16 -12 -21 -9 -11 7 2 23 19 23 12 0 12 -2 2 -14z m719 -62 c-3 -3
-12 -4 -19 -1 -8 3 -5 6 6 6 11 1 17 -2 13 -5z m-997 -114 c0 -5 -4 -10 -10
-10 -5 0 -10 5 -10 10 0 6 5 10 10 10 6 0 10 -4 10 -10z m930 -684 c0 -3 -4
-8 -10 -11 -5 -3 -10 -1 -10 4 0 6 5 11 10 11 6 0 10 -2 10 -4z m-20 -476 c0
-5 -9 -10 -21 -10 -11 0 -17 -4 -14 -10 3 -5 2 -10 -3 -10 -16 0 -22 13 -11
27 13 15 49 18 49 3z m-44 -67 c-7 -7 -26 7 -26 19 0 6 6 6 15 -2 9 -7 13 -15
11 -17z m1223 -64 c-16 -10 -23 -4 -14 10 3 6 11 8 17 5 6 -4 5 -9 -3 -15z
m-1315 -38 c6 -10 -16 -21 -41 -21 -13 0 -13 3 -3 15 14 17 36 20 44 6z"/>
<path d="M415 1870 c3 -5 10 -10 16 -10 5 0 9 5 9 10 0 6 -7 10 -16 10 -8 0
-12 -4 -9 -10z"/>
<path d="M10 1860 c8 -5 20 -10 25 -10 6 0 3 5 -5 10 -8 5 -19 10 -25 10 -6 0
-3 -5 5 -10z"/>
<path d="M85 1860 c-3 -5 1 -10 9 -10 9 0 16 5 16 10 0 6 -4 10 -9 10 -6 0
-13 -4 -16 -10z"/>
<path d="M190 1845 c0 -8 7 -15 15 -15 9 0 12 6 9 15 -4 8 -10 15 -15 15 -5 0
-9 -7 -9 -15z"/>
<path d="M8181 1811 c-8 -5 -38 -8 -67 -6 -30 1 -54 -2 -54 -7 0 -5 -8 -5 -18
1 -17 9 -84 8 -154 -3 -16 -2 -30 0 -33 5 -3 4 -16 4 -29 -1 -13 -5 -26 -7
-28 -4 -6 5 -85 6 -143 1 -22 -2 -43 1 -46 6 -10 14 -57 -4 -62 -24 -4 -15 1
-23 19 -29 14 -6 28 -9 32 -8 12 2 66 -14 79 -24 7 -5 17 -7 23 -3 6 4 18 1
26 -6 20 -16 92 -23 108 -9 22 17 109 14 152 -5 21 -10 58 -33 81 -52 23 -18
46 -33 52 -33 6 0 11 -3 11 -7 0 -5 25 -42 55 -83 l55 -75 0 188 0 187 -22 0
c-13 0 -29 -4 -37 -9z"/>
<path d="M870 1780 c-25 -19 -25 -19 -2 -17 12 1 22 7 22 13 0 7 6 15 13 17 6
3 8 6 2 6 -5 0 -21 -8 -35 -19z"/>
<path d="M3913 1773 c-7 -2 -13 -11 -13 -19 0 -9 4 -13 9 -10 5 4 12 0 14 -6
3 -7 6 -1 6 15 1 15 0 27 -1 26 -2 0 -9 -3 -15 -6z"/>
<path d="M3750 1760 c0 -5 5 -10 11 -10 5 0 7 5 4 10 -3 6 -8 10 -11 10 -2 0
-4 -4 -4 -10z"/>
<path d="M2210 1730 c0 -5 5 -10 10 -10 6 0 10 5 10 10 0 6 -4 10 -10 10 -5 0
-10 -4 -10 -10z"/>
<path d="M2283 1700 c-1 -11 2 -20 8 -20 5 0 9 9 9 20 0 11 -4 20 -8 20 -4 0
-8 -9 -9 -20z"/>
<path d="M1886 1702 c-3 -6 -1 -14 5 -17 15 -10 25 3 12 16 -7 7 -13 7 -17 1z"/>
<path d="M1990 1700 c0 -5 5 -10 10 -10 6 0 10 5 10 10 0 6 -4 10 -10 10 -5 0
-10 -4 -10 -10z"/>
<path d="M1946 1685 c-8 -21 3 -45 20 -45 16 0 16 5 8 38 -7 25 -19 29 -28 7z"/>
<path d="M1554 1674 c-18 -14 -18 -15 4 -4 12 6 22 13 22 15 0 8 -5 6 -26 -11z"/>
<path d="M3239 1669 c-8 -17 -8 -20 2 -17 7 2 13 12 15 21 3 23 -3 21 -17 -4z"/>
<path d="M2873 1668 c-39 -13 -41 -20 -10 -45 26 -20 40 -54 91 -223 41 -132
66 -246 66 -295 0 -19 5 -37 10 -40 6 -4 8 -10 6 -13 -2 -4 0 -68 5 -142 7
-101 23 -668 21 -745 0 -5 -2 -45 -5 -88 l-4 -78 71 3 c55 2 71 6 71 18 0 9
-13 17 -35 21 -30 6 -31 7 -7 8 27 1 31 7 27 49 -1 13 6 32 15 42 13 15 14 18
1 23 -10 4 -13 20 -12 56 1 28 -1 51 -4 51 -4 0 -7 14 -7 30 0 17 4 30 9 30
14 0 9 23 -14 69 -17 32 -20 45 -11 48 10 4 10 10 2 25 -8 15 -8 19 0 14 6 -4
2 14 -10 40 -11 26 -21 65 -23 86 -2 21 -8 44 -15 51 -6 8 -8 17 -4 20 3 4 1
13 -6 20 -6 8 -9 22 -5 31 3 9 1 16 -5 16 -6 0 -8 6 -5 14 3 8 0 17 -6 21 -8
5 -8 10 0 20 8 10 8 19 0 34 -7 13 -7 27 -2 39 5 9 7 31 5 48 -3 18 0 41 6 53
8 13 8 21 2 21 -7 0 -7 8 -2 23 9 22 11 32 11 43 0 4 7 1 15 -6 10 -9 15 -9
15 -1 0 6 -4 11 -10 11 -16 0 -12 14 10 37 18 20 18 22 2 26 -12 3 -10 5 6 6
13 0 32 6 43 11 11 7 19 7 19 1 0 -9 34 -1 85 20 29 12 74 6 80 -10 3 -8 3
-16 0 -19 -3 -3 -5 0 -5 7 0 7 -4 10 -10 6 -20 -12 2 -35 29 -29 51 13 85 64
42 64 -26 0 -36 17 -21 35 17 20 27 19 35 -5 4 -11 11 -18 16 -14 5 3 6 11 2
17 -4 7 -6 22 -5 34 2 12 -1 30 -7 41 -9 17 -7 18 14 14 14 -2 25 -8 25 -13 0
-5 5 -9 10 -9 6 0 10 7 10 16 0 10 6 14 14 11 19 -7 56 34 56 61 0 13 7 25 15
28 23 9 18 23 -6 17 -19 -5 -20 -4 -10 14 14 27 40 36 57 22 11 -9 14 -8 14 2
-1 20 -31 56 -37 43 -2 -7 -21 -10 -44 -8 -24 2 -38 0 -34 -6 3 -6 2 -10 -4
-10 -5 0 -9 12 -7 28 1 19 7 26 19 24 18 -3 24 23 7 33 -16 10 -12 22 25 59
19 20 35 39 35 41 0 12 -29 3 -44 -14 -17 -19 -102 -48 -112 -39 -3 3 -23 2
-46 -3 -35 -8 -42 -7 -59 12 -11 12 -22 19 -27 14 -4 -4 -1 -10 6 -12 6 -3 12
-9 12 -14 0 -12 -84 -3 -88 10 -2 6 -13 11 -23 11 -11 0 -17 5 -14 10 4 6 3
10 -2 9 -29 -5 -53 2 -47 14 6 9 4 9 -7 1 -16 -12 -122 -17 -115 -6 3 5 -4 9
-15 9 -10 1 -19 -2 -19 -6 0 -9 -37 -8 -46 1 -3 4 -12 4 -20 1 -8 -3 -14 0
-14 6 0 13 -4 13 -47 -1z m581 -143 c-19 -29 -12 -44 10 -26 8 7 20 9 27 5 8
-5 7 -9 -5 -16 -9 -5 -14 -13 -11 -19 4 -5 3 -9 -2 -10 -4 0 -18 -2 -30 -3
-18 -2 -20 0 -12 11 9 10 6 15 -11 21 -22 8 -22 9 10 35 39 34 45 34 24 2z
m49 -161 c3 -3 1 -14 -5 -24 -13 -20 -48 -15 -48 7 0 8 4 12 9 8 5 -3 12 -1
16 5 7 11 19 13 28 4z m-396 -220 c-3 -3 -12 -4 -19 -1 -8 3 -5 6 6 6 11 1 17
-2 13 -5z"/>
<path d="M2278 1663 c7 -3 16 -2 19 1 4 3 -2 6 -13 5 -11 0 -14 -3 -6 -6z"/>
<path d="M7429 1651 c-19 -10 -41 -15 -48 -13 -8 3 -11 0 -8 -5 8 -13 -79 -47
-111 -45 -13 1 -20 -2 -17 -8 4 -6 -6 -7 -25 -4 -16 4 -30 2 -30 -3 0 -13 -73
-12 -83 1 -5 7 -11 5 -17 -6 -8 -14 -15 -14 -46 -5 -26 8 -44 8 -66 -1 -22 -8
-35 -8 -44 -1 -8 7 -19 7 -31 1 -21 -11 -344 -9 -362 2 -6 4 -37 10 -69 12
-31 2 -71 6 -89 9 -17 3 -34 1 -38 -5 -3 -5 -11 -10 -16 -10 -6 0 -7 5 -3 11
4 7 -14 10 -60 7 -36 -1 -66 1 -66 5 0 5 -48 8 -107 7 -60 0 -157 0 -218 1
-60 0 -128 -3 -150 -8 -36 -7 -132 -8 -210 -1 -24 2 -31 -1 -33 -17 -4 -27 35
-84 77 -112 39 -27 45 -27 63 -10 7 7 26 12 43 12 37 0 116 -72 110 -101 -2
-10 -4 -23 -4 -28 -1 -5 -4 -6 -8 -3 -12 12 -32 -29 -39 -81 -3 -29 -10 -52
-14 -52 -5 0 -6 -8 -3 -18 2 -10 -3 -24 -11 -31 -9 -8 -16 -20 -16 -27 0 -8
-4 -14 -10 -14 -5 0 -10 -8 -10 -18 0 -10 -5 -23 -11 -29 -8 -8 -7 -50 5 -155
16 -149 23 -181 36 -173 4 3 11 -7 15 -22 5 -20 8 -24 15 -13 5 8 6 18 4 22
-3 4 0 8 5 8 6 0 11 7 11 15 0 8 -4 15 -9 15 -18 0 -18 39 0 56 10 9 19 26 19
36 0 11 4 17 10 13 5 -3 14 14 21 37 7 24 19 48 26 55 9 6 10 14 4 17 -5 3
-11 0 -14 -6 -2 -7 -7 -10 -11 -7 -4 4 4 19 18 34 15 16 26 33 27 39 1 6 2 18
3 26 2 8 3 26 4 40 2 19 4 22 11 11 8 -12 12 -9 22 13 12 25 17 27 55 23 30
-3 45 0 48 9 4 11 11 12 31 2 22 -10 28 -9 36 3 7 12 9 12 10 -1 1 -8 1 -18 0
-22 0 -3 13 -12 29 -20 28 -12 50 -50 50 -85 0 -8 9 -26 20 -40 11 -14 17 -30
14 -35 -7 -11 15 -68 26 -68 4 0 15 -16 26 -35 10 -19 22 -35 27 -35 5 0 5 -9
2 -20 -4 -13 -1 -22 9 -26 9 -4 16 -11 15 -18 -2 -19 13 -56 23 -56 6 0 8 -6
5 -13 -4 -10 3 -12 25 -9 22 3 29 1 24 -7 -4 -7 -2 -18 4 -26 10 -12 9 -15 -6
-16 -16 0 -16 -2 4 -11 13 -6 21 -17 18 -24 -3 -8 -1 -16 5 -19 5 -4 7 -11 4
-16 -4 -5 -1 -9 4 -9 6 0 11 -6 11 -14 0 -7 12 -22 27 -31 24 -16 27 -16 38
-1 7 9 17 16 24 16 7 0 9 9 5 25 -5 19 -2 25 10 25 9 0 16 5 16 10 0 14 -38
12 -43 -2 -2 -7 -4 0 -4 16 0 15 2 24 6 20 9 -13 41 -17 41 -5 0 5 -6 12 -12
15 -10 5 -10 7 0 12 6 3 12 15 12 27 0 12 -4 18 -8 12 -4 -5 -12 -11 -19 -12
-8 -2 -9 7 -1 33 5 20 7 38 4 42 -3 3 -6 -3 -6 -13 0 -12 -3 -15 -9 -10 -4 6
-5 36 -2 67 4 31 4 55 0 52 -14 -9 -18 41 -4 56 8 9 15 24 15 33 0 22 -19 32
-26 13 -8 -20 -24 -21 -24 -1 0 9 7 18 15 21 18 7 16 52 -3 72 -10 11 -9 17 4
29 11 11 14 25 9 42 -4 14 -7 36 -8 48 -1 15 -6 18 -13 12 -8 -7 -13 0 -16 25
-3 24 0 32 9 29 7 -3 13 0 13 6 0 6 -5 11 -11 11 -6 0 -9 6 -6 14 3 7 1 18 -5
24 -11 11 7 51 30 65 6 4 12 21 12 37 0 15 6 30 13 33 8 3 6 9 -8 20 -20 15
-20 16 5 26 14 5 21 10 17 10 -4 1 -2 7 5 15 9 10 18 11 32 4 13 -7 16 -7 12
1 -11 16 4 13 59 -14 28 -14 56 -25 63 -25 6 0 12 -4 12 -10 0 -5 6 -10 14
-10 7 0 19 -7 26 -15 7 -8 18 -15 26 -15 7 0 33 -13 57 -30 25 -16 48 -30 52
-30 4 0 17 -8 30 -18 13 -11 37 -18 53 -17 19 1 28 -3 26 -10 -6 -14 54 -75
75 -75 5 0 11 -5 13 -11 3 -9 22 -16 52 -18 4 -1 5 -8 2 -17 -3 -8 -2 -13 3
-10 4 3 17 -4 29 -14 12 -11 26 -20 32 -20 6 0 9 -4 6 -9 -3 -5 7 -15 22 -22
15 -8 27 -19 27 -26 0 -6 16 -22 35 -35 19 -13 37 -32 39 -43 4 -21 14 -33 51
-58 13 -9 19 -17 12 -17 -6 0 -12 -5 -12 -11 0 -6 6 -9 13 -6 7 3 19 -4 25
-14 7 -10 19 -19 27 -19 23 0 18 18 -7 26 -21 6 -20 8 13 23 24 12 33 22 31
36 -2 11 -5 32 -7 47 -3 15 0 30 5 33 13 8 13 82 0 90 -15 10 -12 35 5 35 18
0 20 16 3 23 -10 4 -10 7 -1 14 8 6 9 14 3 23 -14 22 -12 40 5 40 8 0 15 5 15
11 0 6 -9 9 -20 6 -13 -3 -20 0 -20 8 0 19 17 28 23 13 3 -9 7 -7 12 5 5 12 2
22 -9 30 -15 11 -18 49 -4 62 3 4 0 18 -8 33 -8 17 -10 28 -3 32 5 4 7 21 4
39 -3 18 2 59 11 91 23 82 19 93 -27 71z m4 -456 c-3 -9 -8 -14 -10 -11 -3 3
-2 9 2 15 9 16 15 13 8 -4z m2 -114 c3 -5 1 -12 -5 -16 -5 -3 -10 1 -10 9 0
18 6 21 15 7z m-995 -235 c0 -8 -4 -17 -9 -21 -12 -7 -24 12 -16 25 9 15 25
12 25 -4z"/>
<path d="M3260 1630 c0 -5 5 -10 11 -10 5 0 7 5 4 10 -3 6 -8 10 -11 10 -2 0
-4 -4 -4 -10z"/>
<path d="M3435 1630 c3 -5 15 -10 26 -10 10 0 19 5 19 10 0 6 -12 10 -26 10
-14 0 -23 -4 -19 -10z"/>
<path d="M5110 1623 c0 -14 -2 -15 -9 -4 -5 8 -14 10 -22 5 -7 -4 -32 -7 -55
-5 -51 3 -121 -15 -131 -33 -4 -8 -18 -16 -31 -18 -22 -3 -22 -4 -7 -23 14
-17 16 -17 11 -2 -3 9 -1 17 4 17 6 0 10 -4 10 -10 0 -5 12 -10 26 -10 24 0
26 -3 21 -28 -5 -22 -1 -29 20 -39 14 -7 30 -10 34 -7 5 3 9 0 9 -5 0 -15 -23
-14 -39 2 -11 10 -11 8 -2 -10 9 -18 8 -25 -11 -43 -16 -15 -24 -17 -30 -8 -5
9 -8 10 -8 1 0 -6 7 -19 16 -27 9 -10 11 -16 4 -16 -7 0 0 -14 15 -31 14 -17
24 -36 22 -42 -2 -6 4 -19 12 -28 32 -35 42 -49 35 -49 -4 0 2 -8 12 -17 12
-11 18 -27 16 -42 -3 -20 0 -23 17 -18 12 3 19 1 15 -4 -3 -5 1 -9 9 -9 8 0
22 -9 32 -20 20 -22 46 -25 75 -10 16 8 18 8 14 -5 -4 -8 -3 -15 1 -15 13 0
55 55 54 70 -4 43 3 61 26 72 13 6 22 15 19 19 -3 5 -1 9 4 9 6 0 8 10 4 22
-4 17 -2 20 14 16 17 -4 19 0 16 36 -2 23 4 72 12 109 9 38 16 99 16 138 l0
69 -42 1 c-51 2 -79 1 -133 -4 -22 -1 -48 1 -57 5 -14 7 -18 4 -18 -9z"/>
<path d="M4625 1580 c3 -5 11 -10 16 -10 6 0 7 5 4 10 -3 6 -11 10 -16 10 -6
0 -7 -4 -4 -10z"/>
<path d="M705 1526 l-30 -13 33 0 c20 0 32 5 32 14 0 7 -1 13 -2 13 -2 -1 -16
-7 -33 -14z"/>
<path d="M554 1479 c-4 -8 -3 -9 4 -5 7 4 12 2 12 -3 0 -6 5 -11 11 -11 13 0
7 22 -8 27 -6 2 -15 -1 -19 -8z"/>
<path d="M3987 1433 c-12 -12 -7 -22 11 -21 9 0 23 -1 31 -3 7 -2 15 1 18 8 2
6 -4 10 -14 8 -10 -1 -23 1 -29 6 -6 5 -14 6 -17 2z"/>
<path d="M4072 1400 c0 -16 4 -30 9 -30 5 0 9 14 9 30 0 17 -4 30 -8 30 -5 0
-9 -13 -10 -30z"/>
<path d="M3730 1376 c0 -28 11 -39 34 -30 12 5 13 10 4 30 -15 31 -38 31 -38
0z"/>
<path d="M7475 1360 c-3 -5 -1 -10 4 -10 6 0 11 5 11 10 0 6 -2 10 -4 10 -3 0
-8 -4 -11 -10z"/>
<path d="M3768 1312 c-4 -12 0 -26 8 -33 16 -13 18 2 5 35 -7 19 -8 19 -13 -2z"/>
<path d="M1347 1279 c7 -7 15 -10 18 -7 3 3 -2 9 -12 12 -14 6 -15 5 -6 -5z"/>
<path d="M7 1253 c-4 -3 -7 -67 -7 -141 0 -119 2 -139 21 -168 11 -19 24 -34
29 -34 4 0 10 -9 13 -21 4 -14 10 -18 19 -13 7 4 10 4 6 -1 -12 -12 24 -65 44
-65 11 0 18 -7 18 -19 0 -13 6 -18 18 -15 12 3 25 -10 44 -42 19 -30 32 -43
40 -38 9 5 9 2 -1 -9 -16 -21 0 -47 30 -47 24 0 33 -18 19 -35 -10 -12 -9 -15
4 -15 9 0 16 5 16 11 0 8 5 8 15 -1 12 -10 13 -16 4 -26 -6 -8 -15 -11 -20 -8
-5 3 -9 -9 -9 -26 0 -23 -6 -33 -22 -39 l-23 -8 25 -9 c14 -4 32 -7 42 -5 9 1
19 -3 22 -8 4 -6 13 -8 21 -4 9 3 15 -1 15 -8 0 -7 8 -21 17 -31 16 -18 16
-19 -5 -25 -12 -3 -22 -8 -22 -12 0 -3 -11 -6 -25 -6 -14 0 -25 4 -25 10 0 5
-5 4 -12 -3 -7 -7 -21 -12 -31 -12 -13 0 -17 -5 -13 -15 7 -19 2 -19 -17 -1
-8 8 -19 11 -27 6 -12 -8 -11 -16 8 -50 31 -55 33 -61 18 -75 -9 -10 -17 -11
-21 -5 -3 5 -1 10 4 10 6 0 11 5 11 10 0 18 -20 11 -46 -17 -22 -24 -23 -28
-9 -43 8 -9 15 -22 15 -28 0 -7 10 -12 22 -12 16 0 19 -3 11 -11 -8 -8 4 -30
45 -80 l57 -68 168 -1 c96 0 167 4 167 9 0 5 -7 17 -16 26 -9 8 -14 21 -11 28
3 7 -4 30 -14 52 -10 21 -19 50 -19 65 0 14 -4 30 -9 35 -5 6 -23 53 -40 105
-17 52 -40 111 -50 130 -18 35 -43 122 -39 137 1 5 -8 28 -20 52 -12 25 -22
53 -22 63 0 10 -16 32 -35 49 -19 17 -33 35 -30 40 3 5 -6 18 -20 31 -14 12
-25 26 -25 31 0 5 -11 18 -25 29 -14 11 -25 26 -25 35 0 16 -30 74 -43 84 -5
3 -9 10 -9 15 -1 11 -10 44 -12 44 -1 0 -16 -4 -33 -9 -20 -6 -35 -6 -38 0 -4
5 3 9 14 9 13 0 21 6 21 18 -1 26 -25 52 -50 52 -15 0 -20 4 -17 14 4 11 1 13
-10 9 -12 -5 -15 -2 -10 10 4 12 1 17 -11 17 -28 1 -52 25 -52 54 0 25 -10 33
-23 19z m47 -117 c-6 -16 -8 -17 -16 -2 -11 19 0 42 13 29 6 -6 7 -18 3 -27z
m42 -50 c21 -21 17 -32 -4 -13 -10 10 -22 14 -27 10 -4 -5 -5 -2 -1 5 9 16 14
15 32 -2z m334 -735 c0 -5 -7 -11 -15 -15 -8 -3 -15 -1 -15 4 0 5 -8 11 -17
13 -10 3 -3 5 15 6 17 0 32 -3 32 -8z m-15 -91 c4 -6 16 -8 28 -4 19 6 20 5 5
-10 -18 -17 -51 -11 -55 12 -4 15 13 16 22 2z m-180 -60 c-5 -8 -11 -8 -17 -2
-6 6 -7 16 -3 22 5 8 11 8 17 2 6 -6 7 -16 3 -22z"/>
<path d="M3505 1250 c-3 -5 -1 -10 4 -10 6 0 11 5 11 10 0 6 -2 10 -4 10 -3 0
-8 -4 -11 -10z"/>
<path d="M4060 1241 c0 -10 6 -21 13 -24 8 -3 14 0 14 7 0 6 -6 17 -14 24 -10
10 -13 9 -13 -7z"/>
<path d="M3786 1239 c-9 -25 -1 -69 11 -69 9 0 11 11 7 38 -7 43 -12 51 -18
31z"/>
<path d="M3470 1215 c0 -8 -4 -15 -10 -15 -5 0 -10 -9 -10 -20 0 -13 7 -20 18
-20 37 0 58 52 26 64 -22 9 -24 8 -24 -9z"/>
<path d="M370 1208 c0 -9 5 -20 11 -23 17 -11 20 0 4 21 -13 17 -14 17 -15 2z"/>
<path d="M3520 1210 c0 -5 5 -10 10 -10 6 0 10 5 10 10 0 6 -4 10 -10 10 -5 0
-10 -4 -10 -10z"/>
<path d="M5305 1180 c-3 -5 -1 -10 4 -10 6 0 11 5 11 10 0 6 -2 10 -4 10 -3 0
-8 -4 -11 -10z"/>
<path d="M381 1154 c0 -11 3 -14 6 -6 3 7 2 16 -1 19 -3 4 -6 -2 -5 -13z"/>
<path d="M380 1090 c0 -5 5 -10 11 -10 5 0 7 5 4 10 -3 6 -8 10 -11 10 -2 0
-4 -4 -4 -10z"/>
<path d="M6845 1070 c-3 -5 1 -10 9 -10 9 0 16 5 16 10 0 6 -4 10 -9 10 -6 0
-13 -4 -16 -10z"/>
<path d="M380 1060 c0 -5 7 -10 15 -10 8 0 15 5 15 10 0 6 -7 10 -15 10 -8 0
-15 -4 -15 -10z"/>
<path d="M6930 1010 c0 -5 6 -10 14 -10 8 0 18 5 21 10 3 6 -3 10 -14 10 -12
0 -21 -4 -21 -10z"/>
<path d="M3806 993 c-6 -14 -5 -15 5 -6 7 7 10 15 7 18 -3 3 -9 -2 -12 -12z"/>
<path d="M6861 983 c-20 -27 -20 -27 -21 -5 0 12 -4 22 -10 22 -17 0 -11 -37
7 -44 11 -5 24 2 40 20 26 30 27 34 14 34 -5 0 -19 -12 -30 -27z"/>
<path d="M2317 952 c3 -7 9 -10 12 -5 3 4 10 11 15 15 4 4 -1 6 -12 5 -12 -1
-18 -6 -15 -15z"/>
<path d="M6910 936 c0 -7 -13 -16 -30 -19 -34 -7 -39 -22 -10 -30 11 -3 20 -1
20 4 0 5 13 9 30 9 28 0 29 1 18 25 -12 27 -28 33 -28 11z"/>
<path d="M6869 834 c-29 -36 -12 -89 34 -107 22 -8 74 27 56 38 -6 4 -16 2
-22 -4 -14 -14 -27 -14 -27 -1 0 17 40 51 52 44 7 -4 8 -3 4 4 -4 7 -2 12 3
12 6 0 11 5 11 11 0 6 -7 9 -15 5 -8 -3 -15 -1 -15 4 0 14 -27 12 -33 -2 -4
-10 -6 -10 -6 0 -1 17 -26 15 -42 -4z"/>
<path d="M7032 770 c-6 -10 -8 -21 -3 -24 5 -3 11 4 14 16 8 29 4 32 -11 8z"/>
<path d="M7089 781 c7 -5 10 -14 7 -20 -10 -16 9 -14 23 3 9 11 8 15 -5 20
-24 9 -41 7 -25 -3z"/>
<path d="M1490 749 c0 -5 5 -7 10 -4 6 3 10 8 10 11 0 2 -4 4 -10 4 -5 0 -10
-5 -10 -11z"/>
<path d="M7726 739 c-9 -13 -19 -18 -28 -14 -10 6 -10 5 -1 -5 12 -13 7 -39
-13 -55 -7 -5 -12 -26 -12 -45 0 -19 -2 -42 -5 -50 -11 -30 -14 -71 -6 -76 5
-2 4 -17 -2 -32 -7 -18 -7 -28 0 -30 6 -2 8 -9 4 -15 -9 -15 -11 -33 -17 -169
-3 -88 -1 -108 11 -112 10 -4 13 -2 10 8 -7 17 21 58 34 51 5 -4 4 6 -3 20 -7
16 -8 29 -2 33 5 4 15 19 23 35 11 21 12 30 3 39 -17 17 -15 31 3 24 12 -4 14
0 9 18 -3 13 -1 27 4 30 6 3 8 15 5 26 -3 11 2 27 12 37 14 14 15 18 4 22 -29
9 -37 33 -17 53 18 18 24 38 11 38 -10 0 -9 68 0 77 4 3 2 12 -4 19 -6 7 -7
19 -3 25 10 18 13 69 3 69 -4 0 -15 -9 -23 -21z m19 -39 c-3 -5 -11 -10 -16
-10 -6 0 -7 5 -4 10 3 6 11 10 16 10 6 0 7 -4 4 -10z m-63 -499 c-5 -3 -14
-15 -21 -26 -10 -17 -12 -17 -7 -2 3 10 6 25 6 33 0 8 6 11 16 7 9 -3 12 -9 6
-12z"/>
<path d="M7085 720 c-3 -5 -1 -10 4 -10 6 0 11 5 11 10 0 6 -2 10 -4 10 -3 0
-8 -4 -11 -10z"/>
<path d="M6985 703 c-11 -10 -28 -17 -38 -15 -10 2 -31 1 -45 -3 -22 -5 -24
-8 -11 -16 10 -5 15 -17 12 -32 -4 -20 0 -25 26 -30 34 -7 81 6 81 23 0 6 -4
9 -8 6 -4 -2 -14 0 -22 5 -13 8 -11 13 8 29 13 11 22 27 20 35 -3 14 -5 14
-23 -2z"/>
<path d="M5680 697 c0 -4 11 -20 25 -35 22 -23 25 -24 25 -8 0 11 -3 17 -6 13
-4 -3 -15 4 -25 16 -10 12 -18 18 -19 14z"/>
<path d="M7035 650 c3 -5 8 -10 11 -10 2 0 4 5 4 10 0 6 -5 10 -11 10 -5 0 -7
-4 -4 -10z"/>
<path d="M5690 636 c0 -8 4 -17 9 -20 5 -4 7 3 4 14 -6 23 -13 26 -13 6z"/>
<path d="M1490 620 c0 -5 5 -10 11 -10 5 0 7 5 4 10 -3 6 -8 10 -11 10 -2 0
-4 -4 -4 -10z"/>
<path d="M7125 610 c-3 -5 -1 -10 4 -10 6 0 11 5 11 10 0 6 -2 10 -4 10 -3 0
-8 -4 -11 -10z"/>
<path d="M7009 568 c-17 -16 -34 -23 -57 -22 -25 1 -32 -2 -30 -15 6 -32 78
-71 78 -41 0 6 5 10 11 10 5 0 -1 -15 -15 -33 -15 -19 -26 -37 -26 -41 0 -3
11 -19 26 -35 23 -27 74 -40 74 -20 0 9 -14 13 -37 10 -7 -1 -13 4 -13 10 0 7
3 10 6 7 6 -7 54 39 54 51 0 5 10 15 21 23 20 13 21 16 8 51 -7 20 -19 37 -27
37 -11 0 -12 3 -4 13 8 10 6 13 -8 14 -10 1 -20 -7 -23 -18 -3 -10 -11 -19
-17 -19 -10 0 -10 4 0 15 21 26 4 28 -21 3z m81 -43 c0 -8 -4 -15 -10 -15 -5
0 -10 7 -10 15 0 8 5 15 10 15 6 0 10 -7 10 -15z m-35 -45 c3 -5 -1 -10 -10
-10 -9 0 -13 5 -10 10 3 6 8 10 10 10 2 0 7 -4 10 -10z"/>
<path d="M7142 544 c2 -11 11 -20 22 -22 13 -3 17 1 14 14 -2 11 -11 20 -22
22 -13 3 -17 -1 -14 -14z"/>
<path d="M60 476 c0 -9 5 -16 10 -16 6 0 10 4 10 9 0 6 -4 13 -10 16 -5 3 -10
-1 -10 -9z"/>
<path d="M5395 479 c-4 -6 -5 -12 -2 -15 2 -3 7 2 10 11 7 17 1 20 -8 4z"/>
<path d="M6458 483 c-23 -6 -30 -29 -12 -44 10 -8 11 -15 4 -24 -12 -14 -3
-45 12 -45 7 0 6 5 -1 13 -6 8 -8 17 -4 20 3 4 12 -1 19 -11 11 -14 13 -14 14
-2 0 8 -4 21 -9 29 -6 9 -4 19 5 28 25 25 10 44 -28 36z"/>
<path d="M7230 479 c0 -6 -7 -9 -15 -5 -8 3 -15 1 -15 -4 0 -6 9 -10 20 -10
11 0 20 7 20 15 0 8 -2 15 -5 15 -3 0 -5 -5 -5 -11z"/>
<path d="M5416 471 c-4 -7 -5 -15 -2 -18 9 -9 19 4 14 18 -4 11 -6 11 -12 0z"/>
<path d="M115 450 c3 -5 8 -10 11 -10 2 0 4 5 4 10 0 6 -5 10 -11 10 -5 0 -7
-4 -4 -10z"/>
<path d="M1410 451 c0 -6 5 -13 10 -16 6 -3 10 1 10 9 0 9 -4 16 -10 16 -5 0
-10 -4 -10 -9z"/>
<path d="M5263 433 c-31 -21 -29 -30 7 -31 31 -1 33 2 22 29 -6 15 -9 15 -29
2z"/>
<path d="M5374 428 c-5 -7 -3 -8 6 -3 10 6 11 4 5 -11 -4 -10 -7 -29 -6 -41 1
-26 -9 -28 -59 -12 -19 6 -43 12 -52 13 -10 1 -27 13 -39 27 -20 24 -21 24
-34 4 -8 -11 -18 -24 -22 -30 -4 -5 -9 -23 -9 -40 -1 -16 -2 -38 -3 -47 0 -10
-10 -27 -21 -38 -11 -11 -19 -23 -18 -27 0 -5 -2 -16 -6 -25 -12 -26 -3 -63
15 -62 9 1 16 -5 16 -13 0 -8 -7 -13 -16 -10 -21 5 -43 -18 -39 -41 1 -9 -1
-23 -5 -29 -5 -8 -3 -13 3 -13 7 0 10 -7 6 -15 -4 -11 2 -15 25 -15 18 0 28 4
24 10 -3 5 -2 10 4 10 5 0 13 -5 16 -10 10 -17 185 -11 192 6 3 8 10 14 15 14
6 0 5 -7 -2 -16 -12 -13 -7 -15 48 -13 55 2 60 4 51 20 -7 15 -6 17 6 13 8 -4
15 -1 15 6 0 6 5 8 10 5 6 -3 10 -1 10 5 0 7 -8 9 -22 4 -21 -6 -21 -5 -9 10
13 15 12 17 -12 12 -30 -5 -37 9 -9 18 17 6 25 56 8 56 -5 0 -3 7 5 16 7 9 9
18 3 22 -5 4 -10 36 -12 72 -1 38 -7 69 -15 75 -7 6 -11 18 -9 28 3 15 0 18
-17 12 -25 -8 -27 1 -4 23 16 16 15 17 0 20 -10 2 -15 8 -12 13 4 5 -1 9 -9 9
-8 0 -18 -5 -22 -12z m-164 -46 c0 -10 -7 -19 -14 -19 -11 0 -13 5 -5 19 5 10
12 18 14 18 3 0 5 -8 5 -18z m21 -160 c-12 -2 -21 -8 -21 -15 0 -8 -4 -7 -12
1 -10 10 -10 15 1 21 8 6 9 11 3 15 -6 3 -13 2 -17 -4 -14 -22 -23 -8 -12 19
l10 28 35 -31 c31 -28 33 -31 13 -34z m227 -79 c2 -8 -5 -13 -17 -13 -12 0
-21 6 -21 16 0 18 31 15 38 -3z"/>
<path d="M250 410 c0 -5 5 -10 10 -10 6 0 10 5 10 10 0 6 -4 10 -10 10 -5 0
-10 -4 -10 -10z"/>
<path d="M7111 401 c-8 -6 -9 -11 -3 -15 6 -3 14 -1 17 5 9 14 2 20 -14 10z"/>
<path d="M170 355 c0 -8 5 -15 10 -15 6 0 10 7 10 15 0 8 -4 15 -10 15 -5 0
-10 -7 -10 -15z"/>
<path d="M7073 349 c-14 -14 -5 -46 15 -54 9 -3 24 2 34 12 17 18 17 19 -10
35 -20 12 -32 14 -39 7z"/>
<path d="M8142 269 c-15 -18 -19 -30 -11 -34 6 -4 16 -2 22 5 9 10 9 11 0 6
-18 -10 -16 4 4 26 9 10 14 20 12 22 -2 2 -14 -9 -27 -25z"/>
<path d="M7023 255 c4 -8 2 -17 -3 -20 -14 -9 -12 -27 2 -23 15 5 22 58 7 58
-6 0 -9 -7 -6 -15z"/>
<path d="M7070 251 c0 -17 27 -37 37 -27 7 7 -17 46 -27 46 -6 0 -10 -9 -10
-19z"/>
<path d="M1335 190 c-3 -5 -1 -10 4 -10 6 0 11 5 11 10 0 6 -2 10 -4 10 -3 0
-8 -4 -11 -10z"/>
<path d="M7102 169 c-13 -5 -28 -6 -34 -3 -6 4 -8 -4 -6 -17 5 -41 54 -34 63
9 2 12 3 22 2 21 -1 0 -13 -4 -25 -10z"/>
<path d="M7940 90 c-33 -33 -64 -60 -69 -60 -5 0 -14 -7 -21 -15 -11 -13 -6
-15 37 -15 39 0 54 5 71 23 12 13 22 27 22 31 0 4 9 15 19 24 27 24 35 58 16
66 -10 3 -36 -15 -75 -54z"/>
<path d="M7185 130 c-8 -13 5 -13 25 0 13 8 13 10 -2 10 -9 0 -20 -4 -23 -10z"/>
<path d="M7097 113 c-13 -12 -7 -20 15 -18 27 2 37 25 11 25 -11 0 -23 -3 -26
-7z"/>
<path d="M7640 110 c0 -5 5 -10 11 -10 5 0 7 5 4 10 -3 6 -8 10 -11 10 -2 0
-4 -4 -4 -10z"/>
<path d="M7155 100 c3 -5 8 -10 11 -10 2 0 4 5 4 10 0 6 -5 10 -11 10 -5 0 -7
-4 -4 -10z"/>
<path d="M3945 69 c-4 -6 -5 -12 -2 -15 2 -3 7 2 10 11 7 17 1 20 -8 4z"/>
<path d="M7144 35 c-9 -22 1 -29 15 -11 8 10 9 16 1 21 -5 3 -13 -1 -16 -10z"/>
<path d="M7270 31 c0 -17 18 -21 24 -6 3 9 0 15 -9 15 -8 0 -15 -4 -15 -9z"/>
</g>
</svg>
