<?xml version="1.0" standalone="no"?>
<!DOCTYPE svg PUBLIC "-//W3C//DTD SVG 20010904//EN"
 "http://www.w3.org/TR/2001/REC-SVG-20010904/DTD/svg10.dtd">
<svg version="1.0" xmlns="http://www.w3.org/2000/svg"
 width="820.000000pt" height="820.000000pt" viewBox="0 0 820.000000 820.000000"
 preserveAspectRatio="xMidYMid meet">
<metadata>
Created by potrace 1.11, written by Peter Selinger 2001-2013
</metadata>
<g transform="translate(0.000000,820.000000) scale(0.100000,-0.100000)"
fill="#000000" stroke="none">
<path d="M2 8123 l3 -78 60 -7 c247 -30 498 -60 540 -65 28 -3 110 -13 184
-22 109 -14 134 -15 138 -4 3 7 12 13 20 13 8 0 11 -5 7 -12 -4 -7 -3 -8 4 -4
6 4 49 -2 94 -14 46 -11 145 -28 221 -37 l138 -16 22 22 c12 12 18 21 12 20
-12 -3 -85 14 -180 42 -38 11 -79 22 -90 24 -51 10 -109 32 -113 43 -2 6 1 12
7 12 6 0 11 -4 11 -9 0 -6 16 -7 35 -4 35 6 119 -12 142 -29 7 -6 14 -4 19 3
5 9 10 5 16 -11 7 -18 11 -21 20 -12 14 14 32 16 23 3 -3 -5 0 -13 6 -17 8 -5
9 -3 4 6 -6 10 -4 12 11 6 10 -5 31 -12 47 -16 25 -8 27 -6 27 19 0 25 -2 27
-36 23 -27 -3 -35 -1 -29 8 6 9 3 9 -12 2 -12 -7 -25 -7 -34 -1 -12 7 -12 9 0
9 32 0 -3 14 -42 17 -70 4 -74 6 -69 25 3 13 8 15 22 8 9 -5 19 -7 22 -5 4 4
64 -12 118 -32 8 -3 22 -7 30 -8 8 -1 42 -10 75 -19 49 -15 56 -20 42 -28 -21
-11 -51 -3 -42 12 3 6 -1 7 -9 4 -16 -6 -22 -45 -10 -57 8 -8 40 9 68 34 11
11 25 19 31 19 7 0 20 9 30 20 10 11 23 20 29 20 6 0 22 10 36 23 14 12 42 35
63 50 20 15 37 35 37 43 0 7 7 14 16 14 8 0 12 4 9 10 -3 5 0 7 7 5 8 -3 22 1
33 9 18 14 -82 15 -898 16 l-918 0 3 -77z m1718 27 c-6 -11 -13 -20 -16 -20
-2 0 0 9 6 20 6 11 13 20 16 20 2 0 0 -9 -6 -20z m-601 -61 c-8 -5 -9 -9 -3
-9 5 0 14 4 20 9 13 13 64 2 64 -14 0 -19 -23 -24 -40 -10 -9 8 -22 10 -35 5
-11 -5 -14 -9 -7 -9 6 -1 12 -5 12 -10 0 -5 -8 -7 -18 -4 -12 3 -18 14 -19 38
-1 32 1 34 20 24 16 -9 17 -13 6 -20z m531 -9 c0 -5 -5 -10 -11 -10 -5 0 -7 5
-4 10 3 6 8 10 11 10 2 0 4 -4 4 -10z"/>
<path d="M2084 8179 c-10 -11 -14 -20 -9 -19 6 2 18 2 28 1 16 -1 16 -2 0 -19
-10 -10 -21 -14 -24 -10 -7 11 -49 19 -49 10 0 -4 -25 -23 -55 -41 -42 -27
-54 -39 -49 -53 6 -20 -11 -25 -22 -6 -5 7 -3 8 6 3 9 -6 11 -4 6 4 -6 10 -12
9 -24 -1 -10 -7 -43 -27 -75 -43 -32 -17 -74 -45 -92 -62 -19 -18 -38 -33 -43
-33 -5 0 -15 -6 -21 -14 -9 -10 -8 -15 3 -19 8 -3 16 -1 18 5 2 5 10 2 18 -8
13 -16 13 -17 -1 -12 -9 3 -22 2 -30 -3 -10 -6 -2 -9 24 -7 20 1 37 6 37 11 0
4 5 5 10 2 6 -4 7 -11 4 -17 -5 -7 1 -9 17 -5 13 3 37 0 53 -7 l29 -12 -24
-19 c-14 -11 -28 -28 -32 -38 -6 -16 -8 -16 -27 3 -26 26 -34 21 -55 -38 -13
-36 -23 -48 -39 -50 -11 0 -29 -11 -38 -23 l-18 -21 -9 23 -10 24 0 -25 c-1
-15 -7 -32 -13 -39 -10 -11 -10 -13 0 -7 15 9 15 -4 -1 -25 -11 -14 -16 -15
-30 -4 -10 7 -15 19 -11 29 3 9 1 16 -5 16 -7 0 -11 -14 -10 -32 2 -18 -3 -43
-9 -54 -6 -12 -9 -24 -6 -26 2 -3 -2 -11 -11 -18 -8 -7 -15 -19 -15 -28 0 -13
2 -13 18 1 32 29 32 19 1 -15 -16 -18 -32 -32 -35 -30 -3 2 -16 -4 -30 -13
-13 -9 -29 -13 -34 -10 -6 3 -10 0 -10 -8 0 -13 -33 -31 -52 -28 -4 0 -10 -9
-13 -20 -4 -12 -12 -18 -21 -15 -8 3 -14 -1 -14 -10 0 -8 -16 -30 -35 -48 -20
-19 -35 -43 -35 -56 0 -21 -3 -22 -85 -19 -47 2 -85 2 -85 -1 0 -5 -76 -13
-137 -14 -18 -1 -33 -5 -33 -11 0 -5 -19 -11 -42 -12 -44 -1 -114 -20 -135
-36 -10 -7 -40 -6 -129 8 -15 2 -21 -2 -20 -13 1 -11 -7 -17 -19 -17 -11 0
-30 -10 -42 -22 -12 -13 -27 -23 -33 -23 -6 0 -8 -4 -5 -10 3 -5 0 -10 -8 -10
-7 0 -20 -11 -27 -25 -9 -18 -19 -23 -32 -19 -10 3 -18 1 -18 -5 0 -6 -5 -10
-12 -9 -7 2 -12 -4 -13 -12 0 -8 -8 -14 -18 -14 -9 1 -14 -3 -10 -9 4 -6 0 -8
-11 -4 -10 4 -15 3 -11 -3 3 -6 -1 -10 -9 -10 -8 0 -19 -6 -23 -14 -12 -20
-132 -78 -145 -70 -7 5 -9 0 -6 -14 8 -28 -37 -53 -72 -40 -27 10 -29 8 -35
-22 -3 -18 -2 -20 10 -10 11 9 15 9 15 1 0 -6 -7 -14 -15 -17 -13 -5 -15 -348
-15 -2825 l0 -2818 42 -12 c24 -6 90 -17 148 -24 109 -12 120 -32 14 -23 -38
3 -58 1 -65 -9 -6 -7 -21 -13 -33 -13 -17 0 -18 2 -6 10 20 12 13 17 -46 28
l-51 9 24 -56 c13 -31 28 -65 32 -76 23 -53 71 -183 71 -192 0 -6 7 -24 15
-39 8 -16 15 -36 15 -44 0 -8 9 -40 21 -70 21 -55 39 -85 39 -63 0 7 -5 15
-11 19 -6 3 -9 19 -7 34 3 19 -2 31 -14 39 -21 13 -24 33 -4 25 8 -3 17 -1 21
5 3 7 0 8 -9 5 -9 -3 -16 -2 -16 4 0 6 6 12 12 14 7 3 13 15 13 29 0 13 5 23
11 22 16 -3 10 52 -7 73 -13 16 -12 16 10 5 15 -8 21 -9 17 -2 -4 6 0 18 8 27
9 9 14 20 11 25 -4 5 -1 9 4 9 6 0 11 -5 11 -11 0 -6 7 -4 15 5 8 8 15 21 15
29 0 17 26 30 43 21 7 -3 2 3 -11 14 -22 20 -31 39 -12 27 6 -3 10 -1 10 5 0
6 12 15 26 20 19 8 25 16 21 29 -3 15 -1 18 11 14 11 -5 13 -3 7 7 -5 9 -4 11
3 6 12 -7 72 22 72 36 0 4 -5 10 -11 13 -7 5 -4 14 7 26 12 13 21 16 29 9 12
-10 25 -4 25 11 0 5 -7 6 -15 3 -8 -4 -15 -1 -15 6 0 6 -5 8 -12 4 -6 -4 -8
-3 -5 3 4 6 21 9 39 7 18 -2 28 0 21 4 -8 5 -6 13 7 29 9 12 20 19 24 16 3 -4
6 -1 6 6 0 8 7 10 20 6 16 -5 20 -2 20 15 0 16 -4 20 -16 16 -8 -3 -12 -2 -9
4 3 6 15 10 26 10 10 0 19 4 19 9 0 5 9 7 20 4 17 -4 20 0 20 25 0 17 -6 33
-12 36 -7 3 -2 3 11 0 15 -4 21 -2 17 4 -3 6 -2 13 4 17 5 3 10 1 10 -4 0 -6
4 -11 9 -11 5 0 8 8 7 17 -2 25 27 27 42 3 7 -12 8 -20 2 -20 -5 0 -10 5 -10
10 0 6 -4 10 -10 10 -5 0 -10 -11 -10 -25 0 -27 9 -32 28 -13 17 17 14 -3 -3
-26 -8 -11 -14 -34 -14 -50 1 -17 3 -23 6 -13 6 21 23 23 23 1 0 -15 22 -44
34 -44 3 0 3 6 0 14 -3 8 -1 17 5 21 15 9 14 28 -2 20 -6 -4 -4 0 7 9 11 9 16
21 12 32 -3 9 -2 22 3 28 10 12 11 16 11 41 0 8 7 15 16 15 14 0 16 9 12 54
-4 50 -3 54 13 45 24 -13 26 -12 32 12 4 16 10 19 29 14 l23 -7 -22 19 c-26
23 -30 43 -8 43 19 0 19 5 0 33 -12 19 -13 28 -2 50 6 15 18 27 25 27 10 0 10
-5 2 -20 -6 -11 -15 -20 -20 -20 -6 0 -10 -4 -10 -10 0 -14 16 -12 32 3 11 12
16 12 28 -1 10 -11 15 -12 18 -4 6 18 18 14 18 -6 0 -14 -6 -17 -23 -14 -13 2
-23 8 -23 14 0 5 -6 3 -14 -4 -16 -15 -1 -29 21 -21 9 4 11 0 6 -12 -5 -15 -2
-17 15 -13 24 7 28 -2 10 -20 -9 -9 -9 -12 2 -12 11 0 11 -3 2 -12 -21 -21
-14 -38 16 -38 33 0 66 -25 76 -56 5 -18 3 -21 -16 -20 -13 0 -23 7 -23 14 0
6 -3 12 -7 12 -5 0 -8 -3 -7 -6 0 -3 -8 -12 -18 -20 -17 -12 -17 -13 0 -14 9
0 17 6 17 13 1 7 7 4 15 -7 8 -11 28 -19 47 -20 54 -2 64 -20 25 -50 -29 -24
-30 -26 -9 -26 12 0 22 4 22 9 0 6 9 8 20 6 11 -2 20 0 20 5 0 8 48 -1 83 -15
14 -6 16 -10 6 -16 -8 -4 -10 -11 -7 -15 4 -4 19 1 32 10 18 11 27 13 32 4 4
-7 3 -8 -4 -4 -7 4 -12 2 -12 -3 0 -6 5 -11 10 -11 19 0 10 -18 -12 -24 -27
-7 -14 -23 22 -28 14 -1 23 -7 21 -13 -1 -5 -8 -8 -15 -6 -30 9 -54 7 -50 -4
3 -7 -7 -10 -33 -7 l-38 4 30 -23 c61 -46 59 -45 52 -27 -7 20 23 32 67 26 25
-3 26 -4 12 -23 -12 -16 -17 -18 -27 -7 -20 19 -34 14 -16 -6 10 -10 17 -29
17 -43 0 -19 2 -21 10 -9 8 12 13 13 29 3 19 -12 20 -11 11 12 -9 24 -8 25 11
15 11 -6 25 -23 30 -38 11 -29 37 -62 50 -62 4 0 15 7 23 16 21 20 21 6 0 -17
-14 -16 -14 -18 6 -24 11 -4 20 -12 19 -18 -3 -26 2 -35 22 -40 12 -3 18 -10
14 -17 -9 -14 14 -72 26 -64 5 3 7 10 4 15 -4 5 6 9 22 9 22 0 25 2 13 10 -9
6 -10 10 -3 10 29 0 23 -29 -10 -47 -17 -9 -17 -11 -3 -25 8 -9 12 -18 9 -22
-4 -3 -2 -6 3 -6 6 0 15 10 20 23 6 12 9 16 7 8 -2 -8 2 -11 13 -7 8 3 18 6
20 6 3 0 2 4 -1 10 -4 6 2 7 17 1 13 -4 25 -17 27 -27 5 -25 22 -35 38 -22 25
20 14 -18 -12 -42 -18 -17 -22 -27 -15 -34 8 -8 18 -1 36 22 14 17 30 32 36
32 6 0 8 -3 5 -6 -3 -4 -2 -15 4 -26 9 -16 13 -17 27 -6 12 10 14 10 8 0 -4
-7 -1 -12 8 -12 9 0 16 -9 16 -20 0 -11 -7 -20 -15 -20 -8 0 -12 -6 -9 -15 5
-11 10 -12 27 -2 12 7 30 21 39 31 18 19 18 18 18 -10 0 -17 -5 -35 -11 -41
-6 -6 -8 -16 -4 -22 4 -8 13 -4 26 11 l20 23 -11 -22 c-10 -21 -7 -27 13 -24
4 0 7 -6 7 -15 0 -9 5 -14 11 -12 6 2 10 8 10 13 -1 11 50 27 58 19 3 -3 -1
-10 -9 -15 -12 -8 -10 -9 7 -4 12 3 24 1 28 -5 3 -5 14 -10 24 -10 9 0 26 -7
37 -16 10 -8 13 -13 7 -9 -8 4 -13 0 -13 -9 0 -20 9 -20 34 -1 27 20 36 19 36
-5 0 -11 7 -20 15 -20 8 0 15 7 15 15 0 13 3 13 20 3 17 -11 22 -10 30 2 5 8
10 10 10 4 0 -13 30 -28 38 -19 3 2 -1 11 -7 19 -21 26 8 29 34 4 24 -23 34
-45 15 -33 -5 3 -10 2 -10 -3 0 -12 21 -20 38 -15 10 4 10 8 1 19 -15 18 10
29 49 21 16 -3 35 0 46 9 26 18 36 18 36 -2 0 -9 -6 -14 -13 -11 -10 4 -14 -4
-14 -23 0 -16 3 -29 6 -28 37 4 51 -4 51 -27 0 -14 5 -25 10 -25 6 0 10 11 10
25 0 14 4 25 9 25 5 0 7 -9 4 -20 -7 -26 22 -37 45 -18 22 19 68 22 53 5 -6
-8 -6 -18 -1 -27 7 -10 10 -11 10 -2 0 6 4 12 10 12 5 0 7 -7 4 -15 -4 -8 -1
-15 6 -15 8 0 9 10 5 30 -5 25 -3 30 12 30 13 0 14 3 5 8 -12 8 -7 39 7 52 3
3 11 14 17 24 13 24 37 34 28 13 -3 -10 3 -16 20 -19 16 -3 26 -1 26 7 0 12
34 14 46 3 3 -4 17 -3 30 2 13 5 24 6 24 2 0 -4 14 9 31 28 24 27 28 29 15 8
-8 -15 -27 -38 -41 -52 -29 -29 -32 -46 -9 -46 8 0 12 -4 9 -10 -3 -5 -2 -10
4 -10 5 0 13 9 16 21 4 12 16 30 27 41 10 10 18 24 15 31 -5 15 25 49 33 37 8
-14 51 27 45 43 -6 15 26 37 50 33 9 -1 21 -9 27 -17 8 -11 9 -11 5 2 -3 10 7
29 27 48 35 34 60 43 31 11 -10 -11 -24 -41 -31 -67 -7 -27 -13 -40 -13 -30
-1 9 -5 17 -11 17 -6 0 -6 -10 1 -27 6 -17 6 -30 0 -36 -5 -5 -7 -16 -4 -25 4
-10 2 -13 -5 -8 -8 5 -10 2 -6 -8 4 -10 1 -16 -10 -16 -10 0 -13 -6 -10 -15 4
-10 0 -15 -11 -15 -11 0 -15 -5 -11 -15 8 -21 -16 -14 -32 10 -11 17 -13 17
-8 2 4 -12 2 -17 -6 -14 -7 2 -12 13 -10 25 2 11 -1 23 -6 26 -15 9 -22 -22
-12 -50 15 -38 12 -49 -8 -31 -23 21 -33 12 -26 -22 5 -24 4 -25 -9 -8 -11 14
-16 15 -20 5 -4 -10 -6 -10 -6 0 -1 18 -21 15 -21 -4 0 -8 -4 -13 -8 -10 -5 3
-16 -4 -26 -15 -11 -13 -25 -19 -37 -16 -10 3 -17 2 -14 -3 3 -4 -2 -11 -11
-14 -22 -9 -24 -8 -24 10 0 14 -3 14 -16 3 -13 -10 -17 -10 -25 2 -6 9 -7 3
-3 -18 6 -30 4 -33 -17 -33 -19 0 -21 2 -9 10 13 8 12 10 -4 10 -13 0 -16 4
-9 12 5 7 7 24 3 38 l-6 25 -7 -27 c-5 -17 -17 -30 -39 -37 l-32 -11 23 24
c22 24 22 24 3 19 -28 -7 -37 -35 -17 -49 10 -7 12 -15 6 -18 -5 -4 -12 -2
-16 4 -3 5 -11 10 -17 10 -6 0 -6 -6 2 -15 11 -13 10 -14 -4 -9 -10 4 -16 1
-16 -9 0 -18 34 -32 52 -21 10 5 10 4 1 -6 -6 -7 -9 -19 -6 -26 4 -10 -3 -14
-23 -15 -16 0 -23 -3 -16 -6 9 -3 10 -9 2 -18 -7 -9 -6 -16 5 -25 9 -7 19 -10
22 -6 4 4 2 10 -4 14 -7 5 -6 11 4 21 12 11 14 10 11 -4 -2 -10 3 -20 10 -22
6 -3 12 0 12 6 0 6 5 11 10 11 6 0 10 -9 10 -20 0 -14 7 -20 21 -20 11 0 18
-4 14 -10 -3 -5 -13 -7 -23 -4 -9 2 -7 -1 6 -7 26 -14 27 -22 8 -39 -8 -6 -12
-18 -9 -26 3 -9 -2 -14 -15 -14 -11 0 -22 7 -26 15 -3 8 -2 15 2 15 4 0 8 14
9 30 2 31 -11 43 -15 13 -5 -42 -5 -49 -4 -74 l2 -26 379 -2 379 -2 21 56 c12
31 37 111 57 178 91 309 95 345 52 481 -16 51 -32 126 -35 170 -5 71 -4 79 10
73 14 -5 17 1 17 42 0 52 19 110 43 129 8 7 20 34 27 60 8 26 20 51 27 55 8 5
11 16 8 28 -8 26 11 24 25 -2 19 -35 22 -14 6 52 -13 60 -13 63 2 43 17 -20
17 -20 39 13 20 31 21 33 4 33 -15 0 -18 6 -15 32 4 33 14 52 14 26 0 -22 26
-30 41 -12 10 12 14 12 21 2 6 -9 8 -5 7 12 -1 14 -1 34 0 45 2 18 3 18 16 -5
16 -28 21 -9 5 20 -17 32 3 29 70 -11 150 -89 169 -95 243 -67 35 14 150 -3
249 -36 40 -13 136 -36 213 -51 496 -93 623 -128 850 -230 58 -26 251 -77 289
-76 10 0 25 -7 33 -15 8 -7 23 -14 34 -14 10 0 19 -4 19 -9 0 -5 9 -12 19 -16
11 -3 37 -23 58 -43 21 -21 63 -57 93 -82 72 -58 215 -202 232 -234 21 -40
111 -190 118 -196 3 -3 18 -30 34 -60 16 -30 38 -66 48 -80 11 -14 41 -59 67
-100 60 -93 87 -124 96 -110 3 5 11 10 18 10 7 0 5 -6 -5 -16 -14 -15 -13 -19
10 -55 l25 -39 754 0 753 0 0 2288 c0 2205 -1 2290 -18 2305 -10 10 -26 17
-34 17 -9 0 -44 11 -80 24 -35 13 -104 34 -152 45 -80 19 -94 26 -145 73 -36
33 -89 67 -151 96 -152 71 -181 86 -190 103 -9 16 -14 54 -25 184 -3 39 -10
115 -16 170 -5 55 -11 122 -13 148 -4 69 -21 82 -109 82 -40 0 -98 -6 -130
-13 -77 -18 -89 -38 -99 -161 -5 -53 -11 -122 -14 -153 l-6 -57 -46 -6 c-26
-3 -69 -10 -95 -16 -75 -14 -96 -12 -106 14 -14 35 -31 70 -46 97 l-15 25 0
-27 c0 -34 -13 -42 -55 -34 -26 5 -47 22 -87 70 -29 35 -63 70 -75 77 -41 23
-24 25 73 9 96 -16 97 -16 116 -53 10 -20 20 -37 22 -37 6 0 -24 104 -51 178
-30 83 -28 86 42 98 22 3 353 68 735 144 382 75 712 140 732 144 l38 7 0 526
0 525 -23 -6 c-12 -3 -58 -15 -102 -27 -44 -11 -89 -24 -100 -30 -11 -5 -35
-11 -52 -12 -18 -1 -33 -5 -33 -8 0 -4 -12 -9 -27 -12 -28 -5 -99 -25 -323
-87 -110 -30 -140 -38 -167 -44 -7 -1 -16 -5 -19 -9 -4 -4 -18 -7 -30 -7 -13
0 -26 -5 -29 -10 -4 -6 -12 -10 -18 -9 -15 3 -51 -6 -149 -37 -42 -13 -88 -24
-101 -24 -13 0 -27 -3 -31 -7 -3 -4 -16 -8 -27 -10 -12 -2 -48 -12 -82 -23
-67 -22 -91 -25 -82 -10 4 6 11 8 16 5 5 -3 6 2 2 11 -4 12 -3 15 5 10 8 -5
10 -1 5 10 -5 13 -3 16 10 11 9 -3 17 -3 17 2 0 12 46 20 60 11 9 -6 9 -9 -1
-13 -8 -3 -1 -4 15 -2 21 1 30 8 33 23 1 12 -1 23 -6 26 -5 3 -8 -2 -7 -12 2
-25 -28 -21 -32 5 -2 12 6 30 19 42 31 29 17 37 -39 22 -26 -8 -59 -16 -74
-19 -16 -2 -28 -7 -28 -11 0 -3 -17 -7 -37 -9 -20 -1 -41 -6 -47 -11 -16 -12
-57 -21 -50 -10 3 5 0 9 -5 9 -6 0 -11 -4 -11 -9 0 -5 -9 -11 -20 -14 -11 -3
-18 -1 -14 4 9 15 -7 10 -33 -11 -15 -11 -34 -18 -44 -15 -9 3 -20 1 -24 -5
-3 -6 -11 -8 -16 -5 -5 4 -9 0 -9 -7 0 -9 -3 -9 -10 2 -6 10 -10 11 -10 3 0
-8 -15 -13 -37 -14 -31 0 -34 -2 -18 -9 16 -7 17 -9 3 -9 -9 -1 -19 3 -23 8
-7 12 32 34 44 26 5 -3 11 -1 13 4 1 5 17 12 33 14 17 3 54 15 84 26 30 11 57
18 62 16 4 -3 9 1 12 7 3 10 9 10 25 1 17 -10 20 -10 16 1 -4 9 20 21 83 40
48 15 129 39 178 55 50 15 133 41 185 56 52 15 120 37 150 47 30 11 66 22 79
24 13 3 49 13 80 24 31 10 90 28 131 40 41 12 102 30 135 40 33 10 92 27 130
39 39 11 129 39 201 61 72 22 138 40 147 40 13 0 17 9 17 41 0 22 -3 38 -7 36
-22 -12 -287 -90 -295 -86 -2 0 -21 -6 -43 -14 -22 -8 -85 -28 -140 -45 -191
-57 -271 -81 -390 -117 -132 -40 -152 -46 -240 -70 -33 -9 -71 -20 -85 -25
-30 -10 -164 -49 -275 -80 -44 -12 -87 -25 -95 -28 -8 -3 -19 -4 -24 -3 -4 1
-14 -3 -21 -9 -7 -6 -26 -13 -42 -16 -26 -4 -87 -21 -161 -45 -19 -6 -36 -8
-39 -5 -7 7 47 29 70 28 9 0 17 4 17 9 0 6 5 7 10 4 6 -4 17 -1 25 5 8 6 19 9
25 5 5 -3 10 -3 10 2 0 8 58 31 95 37 11 2 37 10 58 19 20 9 37 13 37 9 0 -4
5 1 11 11 7 12 18 16 40 12 18 -3 29 -1 29 7 0 6 3 8 7 5 3 -4 11 -3 17 2 6 4
32 14 59 21 26 7 47 17 47 22 0 6 7 8 15 4 8 -3 15 -2 15 2 0 4 8 9 18 10 45
4 67 12 146 50 5 3 5 -1 1 -7 -4 -7 16 0 45 14 29 14 58 24 66 21 7 -3 16 -1
19 4 4 6 12 10 20 10 8 0 26 5 42 12 15 6 34 10 41 9 6 -1 12 3 12 8 0 5 8 9
18 9 9 0 80 21 157 47 77 25 153 48 169 51 16 2 35 9 42 15 7 6 18 8 24 4 5
-3 10 -1 10 4 0 6 11 11 23 11 13 0 27 3 31 7 3 4 16 8 26 10 11 2 48 12 81
23 34 12 64 19 67 16 3 -3 11 -1 17 4 13 11 114 47 155 56 14 3 28 9 33 13 4
4 6 131 5 283 l-3 275 -160 -53 c-88 -30 -164 -54 -170 -54 -14 0 10 21 27 23
23 4 192 70 203 79 6 6 -6 7 -30 3 -60 -11 -33 9 58 40 l77 28 0 168 0 169
-910 0 -910 0 0 -28 c0 -25 -8 -32 -54 -55 -74 -36 -88 -35 -84 5 2 24 12 38
37 55 l34 23 -1329 -1 -1329 -1 -45 -29 c-25 -16 -55 -33 -67 -38 -12 -6 -52
-28 -88 -51 -37 -22 -70 -40 -73 -40 -3 0 -20 -11 -38 -25 -18 -14 -35 -25
-38 -25 -9 0 -131 -74 -138 -85 -4 -5 -8 -6 -8 -2 0 4 -24 -7 -52 -25 -29 -19
-64 -39 -78 -46 -14 -6 -33 -18 -44 -24 -15 -10 -19 -10 -23 0 -3 6 -11 12
-19 12 -9 0 -44 10 -80 22 -64 23 -78 40 -52 66 17 17 31 15 24 -4 -5 -14 -4
-15 9 -4 8 7 13 16 10 20 -3 4 22 16 54 26 46 15 57 22 49 32 -6 7 -8 15 -4
19 3 3 6 1 6 -6 0 -6 12 0 28 14 15 14 42 32 60 40 17 8 32 19 32 26 0 6 7 9
15 5 8 -3 15 -1 15 4 0 6 7 10 15 10 8 0 15 5 15 10 0 6 6 10 14 10 8 0 28 11
44 25 17 14 34 25 39 25 6 0 18 9 28 20 18 20 17 20 -283 20 -250 0 -302 -2
-302 -14 0 -15 -28 -42 -36 -34 -3 3 2 13 11 21 8 9 15 18 15 21 0 3 -58 6
-129 6 -94 0 -131 -3 -134 -12 -4 -10 -6 -10 -6 -1 -1 10 -38 13 -150 12 -136
0 -150 -2 -167 -20z m5011 -5 c22 -23 16 -78 -9 -82 -15 -3 -18 0 -13 18 3 12
3 19 0 16 -3 -3 -12 1 -19 9 -8 7 -19 16 -26 18 -9 4 -8 10 6 21 25 20 40 20
61 0z m-4894 -21 c-12 -20 -14 -14 -5 12 4 9 9 14 11 11 3 -2 0 -13 -6 -23z
m406 -62 c-9 -12 -9 -13 1 -7 24 14 11 -2 -56 -72 -38 -39 -79 -92 -93 -119
-13 -26 -39 -61 -56 -76 -18 -16 -31 -32 -28 -37 2 -4 -2 -16 -10 -26 -8 -10
-15 -14 -15 -8 0 6 3 14 7 18 8 7 15 46 9 46 -3 0 -12 -24 -21 -52 -27 -85
-52 -129 -80 -144 -19 -10 -25 -10 -21 -1 3 6 9 20 12 30 4 9 10 17 14 17 5 0
21 32 36 71 26 67 53 97 74 84 6 -3 10 3 10 13 0 11 7 25 14 32 8 6 25 32 37
57 23 48 84 113 106 113 7 0 13 8 13 17 0 25 43 84 52 70 4 -6 1 -18 -5 -26z
m-269 -48 c-19 -37 -43 -90 -53 -116 -10 -26 -22 -50 -26 -53 -5 -3 -1 14 7
38 9 24 17 48 18 53 1 6 12 32 24 59 12 27 22 51 22 54 0 9 33 42 38 38 2 -3
-11 -35 -30 -73z m-303 57 c-3 -5 -12 -10 -18 -10 -7 0 -6 4 3 10 19 12 23 12
15 0z m-50 -30 c-3 -5 -15 -15 -26 -21 -18 -9 -19 -9 -7 10 7 12 19 21 26 21
7 0 10 -4 7 -10z m4609 -45 c-4 -8 -11 -15 -18 -15 -25 0 -155 -70 -165 -89
-8 -13 -8 -28 -1 -46 13 -34 5 -48 -21 -35 -25 14 -25 69 0 102 11 13 50 37
88 52 37 15 77 32 88 36 30 13 35 12 29 -5z m-4004 -49 c0 -20 -11 -46 -19
-46 -3 0 -6 14 -6 30 0 17 5 30 13 30 6 0 12 -6 12 -14z m-820 -61 c0 -11 -29
-11 -33 -1 -4 10 1 12 14 9 10 -3 19 -7 19 -8z m855 5 c-3 -5 -12 -10 -18 -10
-7 0 -6 4 3 10 19 12 23 12 15 0z m-405 -49 c-6 -11 -20 -25 -31 -31 -17 -10
-17 -6 8 31 26 40 45 40 23 0z m300 28 c0 -5 5 -7 10 -4 6 3 0 -11 -12 -32
-12 -21 -26 -39 -30 -41 -4 -2 -8 -9 -8 -17 0 -14 -26 -38 -45 -41 -17 -3 -55
-36 -55 -50 0 -6 -9 -19 -20 -29 -11 -10 -20 -26 -20 -37 0 -10 -5 -18 -11
-18 -7 0 -8 7 -4 18 4 9 10 26 12 37 3 11 18 36 33 55 15 19 32 45 39 57 6 13
23 26 36 29 13 3 24 9 23 13 -3 16 15 39 27 35 10 -4 12 1 8 15 -3 12 -1 21 6
21 6 0 11 -5 11 -11z m57 -6 c-3 -10 -10 -33 -16 -52 l-11 -34 30 28 c17 16
30 34 30 41 0 6 7 17 15 24 23 19 19 -16 -6 -51 -11 -16 -17 -29 -12 -29 4 0
2 -4 -6 -9 -8 -5 -16 -17 -18 -25 -8 -40 -27 -90 -49 -129 -9 -15 -13 -35 -10
-43 3 -7 2 -14 -3 -14 -4 0 -8 -12 -9 -27 -1 -36 -24 -81 -39 -76 -6 2 -9 12
-6 22 3 10 0 22 -6 25 -7 4 -6 16 1 37 17 49 4 43 -33 -16 -19 -30 -37 -55
-41 -55 -9 0 11 58 23 66 5 3 7 10 4 15 -4 5 -2 9 4 9 6 0 16 10 22 22 10 18
8 24 -6 34 -17 12 -17 14 -2 20 10 3 17 10 17 16 0 5 11 24 25 42 14 18 25 40
25 49 0 19 20 23 20 5 0 -7 6 -4 12 6 8 14 8 24 -1 39 -7 10 -8 16 -2 13 5 -4
13 4 17 16 7 24 23 48 31 48 3 0 3 -8 0 -17z m-643 -16 c3 4 6 1 6 -6 0 -13
-37 -6 -55 11 -6 5 1 5 16 -1 15 -5 30 -7 33 -4z m925 -53 c2 -2 -3 -4 -12 -4
-9 0 -17 -7 -17 -15 0 -18 -21 -15 -37 5 -8 11 -8 17 0 22 11 6 56 1 66 -8z
m-959 -8 c0 -3 -4 -8 -10 -11 -5 -3 -10 -1 -10 4 0 6 5 11 10 11 6 0 10 -2 10
-4z m70 -16 c0 -5 -7 -10 -15 -10 -8 0 -15 -6 -15 -12 0 -7 -12 -19 -27 -25
-35 -17 -48 -16 -34 0 6 8 7 18 3 22 -4 5 -1 5 6 1 7 -4 12 -1 12 8 0 8 6 17
13 19 22 9 57 7 57 -3z m759 -11 c-16 -10 -23 -4 -14 10 3 6 11 8 17 5 6 -4 5
-9 -3 -15z m56 11 c3 -5 -1 -10 -10 -10 -9 0 -13 5 -10 10 3 6 8 10 10 10 2 0
7 -4 10 -10z m-511 -13 c-3 -8 -19 -24 -35 -36 -18 -14 -28 -29 -25 -37 3 -8
-1 -14 -10 -14 -8 0 -13 4 -10 9 3 5 -1 11 -9 15 -8 3 -15 1 -15 -4 0 -6 -3
-9 -7 -9 -25 4 -43 -3 -43 -16 0 -8 -5 -15 -11 -15 -6 0 -9 7 -6 15 4 8 2 17
-3 20 -6 4 -10 2 -10 -4 0 -6 -7 -8 -15 -4 -17 6 -11 18 8 18 7 0 15 16 18 35
5 29 7 32 14 16 5 -11 4 -26 -4 -37 -7 -12 -7 -19 -1 -19 5 0 10 5 10 11 0 5
5 7 10 4 6 -3 10 -1 10 5 0 6 10 8 24 4 22 -5 56 16 56 36 0 5 10 11 23 13 12
2 25 5 29 6 4 0 5 -5 2 -12z m-411 -20 c8 -20 -7 -39 -25 -32 -11 4 -17 -1
-22 -18 -3 -13 -12 -24 -20 -24 -8 0 -12 7 -9 16 3 9 -4 5 -15 -9 -12 -14 -23
-22 -26 -19 -4 4 35 49 76 86 18 16 35 16 41 0z m187 4 c0 -5 -12 -23 -26 -41
-16 -18 -31 -54 -38 -87 -6 -31 -17 -58 -24 -61 -10 -3 -12 5 -6 34 4 22 11
41 17 43 6 2 5 6 -1 10 -7 4 0 18 16 38 15 17 34 40 42 52 16 23 20 26 20 12z
m815 -20 c-8 -13 -35 -15 -35 -2 0 5 8 11 18 13 21 5 26 2 17 -11z m-905 5 c0
-2 -8 -10 -17 -17 -16 -13 -17 -12 -4 4 13 16 21 21 21 13z m760 -6 c0 -5 -5
-10 -11 -10 -5 0 -7 5 -4 10 3 6 8 10 11 10 2 0 4 -4 4 -10z m4260 -56 c0 -36
-4 -54 -12 -54 -9 0 -12 17 -10 60 5 74 22 69 22 -6z m-4306 40 c3 -8 2 -12
-4 -9 -6 3 -10 10 -10 16 0 14 7 11 14 -7z m120 -16 c6 -22 7 -23 21 -4 8 11
17 18 19 15 5 -5 -13 -29 -36 -47 -14 -11 -16 -11 -11 7 4 15 1 21 -11 21 -12
0 -16 -10 -16 -44 0 -26 5 -46 12 -48 9 -3 8 -9 -5 -22 -9 -10 -17 -22 -17
-27 0 -5 0 -11 0 -14 0 -3 3 -4 8 -2 4 1 6 5 5 9 -2 4 3 5 11 2 7 -3 19 2 26
11 16 20 30 19 30 -1 0 -10 -6 -14 -14 -11 -9 4 -12 0 -9 -13 3 -10 13 -20 23
-23 13 -3 17 0 13 9 -3 8 1 14 10 14 8 0 17 -7 21 -15 3 -8 10 -15 16 -15 6 0
9 4 6 9 -3 5 1 12 10 15 8 3 12 10 9 16 -4 6 -11 8 -16 5 -5 -4 -9 -1 -9 4 0
6 15 17 33 24 17 8 38 21 45 30 8 9 20 13 28 10 21 -8 17 -23 -6 -23 -21 0
-26 -5 -72 -70 -17 -24 -33 -39 -36 -32 -2 8 -9 9 -23 2 -13 -7 -19 -7 -19 0
0 11 -39 14 -41 3 -5 -32 -6 -66 -2 -55 3 7 14 17 26 24 l22 11 -20 -24 c-42
-49 -44 -51 -45 -32 -1 18 -8 84 -10 93 0 3 -6 -2 -13 -11 -7 -9 -23 -16 -37
-15 -20 1 -30 -8 -50 -48 -14 -27 -32 -52 -39 -54 -24 -8 -4 57 28 90 15 16
34 41 42 56 8 15 17 29 20 32 3 3 9 18 13 34 6 23 4 27 -8 23 -20 -8 -21 7 -1
27 20 19 19 26 -3 26 -10 0 -19 6 -19 14 0 8 8 11 19 8 10 -2 18 0 18 6 0 9
13 16 41 21 4 0 10 -9 13 -21z m-889 -9 c-9 -13 9 -11 25 4 8 6 6 2 -5 -11
-12 -15 -21 -19 -26 -11 -4 6 -12 8 -19 4 -9 -6 -9 -3 0 14 6 12 15 19 21 16
5 -4 7 -11 4 -16z m505 -9 c0 -5 -4 -10 -10 -10 -5 0 -10 5 -10 10 0 6 5 10
10 10 6 0 10 -4 10 -10z m-561 -22 c5 -15 3 -26 -9 -37 -24 -23 -57 -41 -75
-41 -18 0 -34 -29 -28 -50 3 -9 -1 -6 -10 5 -17 23 -6 55 19 55 8 0 12 5 9 10
-3 6 3 10 14 10 12 0 21 4 21 9 0 8 41 60 48 61 1 0 6 -10 11 -22z m1081 18
c0 -2 -7 -9 -15 -16 -13 -11 -14 -10 -9 4 5 14 24 23 24 12z m4885 -22 c-22
-9 -49 -20 -60 -24 -11 -5 -38 -14 -60 -21 -22 -6 -44 -14 -50 -18 -5 -3 -14
-6 -20 -8 -10 -2 -64 -20 -100 -34 -11 -4 -67 -23 -125 -42 -58 -19 -157 -54
-220 -77 -234 -85 -433 -148 -448 -143 -11 5 -13 3 -7 -7 6 -10 4 -12 -9 -7
-21 8 -68 -2 -61 -13 3 -5 0 -12 -6 -16 -8 -4 -9 -3 -5 4 12 20 -22 14 -43 -7
-11 -11 -21 -16 -23 -11 -3 10 -167 -45 -183 -61 -7 -7 -3 -8 10 -4 11 3 9 0
-5 -6 -45 -22 -83 -37 -242 -95 -87 -32 -158 -61 -158 -65 0 -6 26 -64 136
-296 19 -39 34 -74 34 -76 0 -3 15 -38 34 -79 30 -65 104 -240 239 -560 25
-60 43 -108 41 -108 -1 0 -58 12 -126 26 -68 14 -152 32 -188 39 -96 19 -320
66 -360 75 -19 5 -102 22 -185 39 -82 16 -303 62 -490 102 -187 39 -356 74
-376 78 -41 9 -78 41 -76 67 1 10 -4 19 -10 20 -7 1 -17 2 -23 3 -5 0 -10 8
-10 16 0 8 -4 15 -9 15 -5 0 -38 29 -75 64 -36 36 -66 62 -66 59 0 -3 -8 1
-18 10 -10 10 -22 14 -26 10 -4 -4 -11 -1 -16 7 -16 25 -11 31 13 19 12 -7 34
-12 50 -11 15 1 27 -2 27 -8 0 -5 5 -10 12 -10 8 0 6 6 -4 17 -10 9 -30 16
-47 16 -21 0 -28 4 -24 14 4 9 -6 18 -26 26 -37 14 -41 28 -6 21 17 -3 25 0
25 10 0 17 -27 29 -36 15 -4 -6 -11 -6 -20 2 -15 12 -9 33 7 24 5 -4 9 3 9 14
0 13 7 21 18 21 14 0 12 4 -8 20 -14 11 -20 20 -13 20 6 0 15 -4 18 -10 7 -12
65 -14 65 -2 0 4 -12 8 -26 8 -27 2 -41 10 -31 20 8 9 75 -15 81 -29 3 -9 7
-9 14 1 7 10 19 10 58 1 27 -6 59 -15 72 -20 33 -13 42 -11 42 7 0 10 -6 14
-15 10 -8 -3 -20 0 -27 7 -15 14 -74 38 -106 42 -13 2 -30 12 -39 22 -8 10
-12 12 -8 6 4 -9 1 -11 -9 -7 -9 3 -16 11 -16 16 0 6 -6 6 -15 -2 -18 -15
-121 4 -128 24 -5 11 2 11 36 1 23 -7 50 -16 60 -20 9 -4 17 -3 17 3 0 6 8 12
18 15 14 3 12 6 -10 15 -28 11 -44 30 -34 39 3 3 12 0 21 -7 26 -22 27 -5 1
19 -20 19 -38 24 -88 26 -61 2 -138 22 -138 36 0 9 38 19 78 19 34 0 38 6 21
30 -10 13 -10 13 -6 0 4 -12 -2 -16 -22 -15 -14 1 -30 -1 -36 -4 -5 -3 -12 -6
-15 -6 -3 -1 -19 -9 -37 -18 -33 -18 -57 -6 -26 12 18 10 16 12 -22 15 -11 0
-21 8 -23 16 -2 11 6 15 30 14 19 -1 32 -7 30 -13 -1 -8 4 -8 18 1 28 18 7 26
-60 22 -53 -3 -57 -2 -53 16 4 14 0 20 -11 20 -10 0 -14 -4 -11 -10 3 -5 2
-10 -4 -10 -5 0 -12 6 -14 13 -4 8 -6 7 -6 -3 -1 -19 -101 -27 -101 -7 0 9 -2
9 -8 0 -13 -21 -62 -4 -62 21 0 8 9 16 20 19 11 3 20 10 20 15 0 6 -9 8 -20 5
-24 -6 -25 0 -4 21 10 11 25 14 42 10 l27 -6 -24 20 c-18 14 -22 25 -16 38 5
13 9 15 12 6 3 -6 9 -10 13 -7 5 3 11 1 15 -5 3 -5 1 -10 -5 -10 -6 0 -8 -4
-5 -10 10 -16 35 -11 36 8 1 16 2 16 6 0 3 -11 14 -18 29 -18 14 0 34 -5 44
-10 16 -8 18 -8 14 5 -4 8 -17 15 -30 15 -24 0 -32 14 -14 25 6 3 10 1 10 -6
0 -7 2 -10 5 -7 6 6 -18 58 -27 58 -3 0 -4 -10 -1 -22 4 -22 4 -22 -11 -4 -14
17 -14 21 -1 36 8 9 15 20 15 24 0 10 -34 3 -42 -9 -5 -6 -8 -6 -8 1 0 7 -20
15 -44 18 -24 4 -47 13 -49 20 -4 9 -19 12 -47 10 -22 -1 -55 3 -73 11 -18 7
-45 14 -62 16 -16 2 -36 8 -43 13 -8 5 -26 10 -40 11 -15 0 -37 6 -49 13 -14
8 -24 9 -28 2 -4 -6 -13 -7 -23 -1 -9 5 -34 7 -55 6 -57 -4 -41 18 23 32 69
15 162 15 172 0 6 -9 8 -9 8 1 0 6 7 12 16 12 11 0 14 -5 10 -17 -6 -15 -5
-15 11 -1 19 16 65 11 63 -7 -4 -23 -19 -38 -33 -32 -22 8 -31 -9 -9 -18 44
-19 63 -15 69 16 4 23 8 27 19 18 13 -11 18 -5 15 14 -1 5 9 5 21 1 13 -5 35
-8 50 -9 14 0 24 -3 22 -6 -5 -8 46 -22 53 -15 10 10 -48 37 -123 57 -106 28
-114 29 -226 30 -81 0 -98 3 -98 16 0 9 -6 13 -15 9 -24 -9 -17 10 8 23 12 6
14 9 5 7 -16 -5 -46 20 -36 30 6 5 128 -10 168 -21 25 -7 25 -7 -3 12 -15 11
-24 23 -20 26 3 4 -23 7 -58 7 -60 0 -89 11 -89 32 0 4 15 8 33 8 34 0 243
-23 362 -40 71 -10 103 -14 610 -75 605 -74 716 -87 945 -115 129 -16 273 -32
318 -36 l84 -7 69 -141 c39 -77 72 -142 73 -144 2 -2 71 20 152 48 82 29 166
57 187 62 26 7 37 16 37 29 0 23 22 33 270 115 107 36 205 70 217 76 17 8 26
8 37 -1 11 -9 20 -10 35 -2 11 6 24 10 28 10 4 -1 22 3 38 10 35 15 134 50
325 116 74 25 158 55 185 65 126 47 253 89 283 94 19 2 36 7 40 10 3 3 12 6
21 5 9 0 -2 -7 -24 -15z m-6082 -9 c4 -8 2 -17 -3 -20 -6 -4 -10 3 -10 14 0
25 6 27 13 6z m927 -6 c0 -25 -63 -33 -68 -8 -2 11 6 15 33 15 19 0 35 -3 35
-7z m233 -20 c-5 -19 -7 -19 -15 -5 -10 18 -2 39 12 31 4 -3 6 -15 3 -26z
m-213 3 c0 -12 -39 -46 -45 -41 -6 7 24 49 36 49 5 0 9 -4 9 -8z m140 4 c0 -3
-4 -8 -10 -11 -5 -3 -10 -1 -10 4 0 6 5 11 10 11 6 0 10 -2 10 -4z m-1170 -21
c-7 -8 -17 -15 -22 -15 -11 0 14 29 26 30 5 0 3 -7 -4 -15z m917 -17 c-3 -8
-6 -5 -6 6 -1 11 2 17 5 13 3 -3 4 -12 1 -19z m903 8 c0 -11 -19 -15 -25 -6
-3 5 1 10 9 10 9 0 16 -2 16 -4z m-880 -19 c0 -2 -10 -12 -22 -23 l-23 -19 19
23 c18 21 26 27 26 19z m585 -7 c4 -6 1 -9 -6 -8 -7 2 -13 -2 -14 -9 0 -6 -3
-14 -7 -18 -9 -9 -5 16 5 33 10 15 14 15 22 2z m142 -17 c8 -10 12 -12 8 -5
-9 18 30 15 45 -3 13 -15 8 -19 -22 -16 -10 1 -18 -3 -18 -9 0 -6 -4 -9 -9 -6
-5 3 -11 -1 -15 -9 -3 -8 -12 -15 -20 -15 -8 0 -33 -11 -57 -24 -41 -24 -66
-26 -53 -5 3 5 10 6 16 3 7 -4 8 -2 4 4 -10 16 -33 15 -39 0 -4 -10 -7 -10
-18 0 -8 7 -9 12 -3 10 13 -3 65 48 57 56 -3 2 4 9 16 15 14 8 22 8 26 1 11
-17 -3 -40 -19 -34 -10 4 -14 0 -13 -15 2 -27 12 -26 42 3 22 22 25 22 41 7
13 -12 15 -13 8 -1 -11 19 -14 42 -8 52 8 12 15 10 31 -9z m-1661 -23 c-5 -45
-17 -51 -14 -7 1 20 6 37 10 37 4 0 6 -14 4 -30z m1784 11 c0 -11 6 -26 13
-33 8 -7 12 -19 9 -27 -3 -8 0 -11 7 -7 6 4 11 3 11 -3 0 -5 9 -13 20 -16 30
-10 24 -20 -14 -22 -32 -3 -35 -1 -34 26 1 15 -6 39 -16 52 -18 26 -21 49 -6
49 6 0 10 -9 10 -19z m-1722 -26 c-3 -3 -9 2 -12 12 -6 14 -5 15 5 6 7 -7 10
-15 7 -18z m-134 -15 c-6 -6 -10 -3 -10 10 0 13 4 16 10 10 7 -7 7 -13 0 -20z
m1056 18 c0 -7 -5 -20 -10 -28 -8 -12 -10 -9 -10 13 0 15 5 27 10 27 6 0 10
-6 10 -12z m-700 -7 c0 -6 -4 -13 -10 -16 -5 -3 -10 1 -10 9 0 9 5 16 10 16 6
0 10 -4 10 -9z m1183 -17 c-10 -7 -22 -9 -27 -4 -14 13 2 29 24 23 19 -5 19
-6 3 -19z m-163 -10 c0 -8 -4 -12 -10 -9 -5 3 -10 -2 -10 -11 0 -10 -3 -15 -6
-11 -8 8 5 47 17 47 5 0 9 -7 9 -16z m375 -4 c-3 -5 -12 -10 -18 -10 -7 0 -6
4 3 10 19 12 23 12 15 0z m-1630 -17 c-2 -10 -4 -19 -4 -21 -1 -2 -6 0 -11 3
-8 5 -7 11 1 21 15 18 18 18 14 -3z m1705 -8 c0 -7 6 -16 13 -18 7 -4 8 -6 1
-6 -6 -1 -17 6 -24 14 -17 21 -30 19 -25 -5 2 -12 -3 -21 -16 -25 -10 -4 -19
-11 -19 -16 0 -5 -4 -9 -8 -9 -4 0 -8 9 -8 20 0 10 2 17 4 15 2 -2 15 9 29 25
24 29 53 31 53 5z m-500 -17 c0 -15 -5 -18 -20 -13 -12 4 -27 1 -35 -5 -12
-10 -12 -8 -2 13 14 31 57 34 57 5z m-1204 -35 c-10 -10 -19 5 -10 18 6 11 8
11 12 0 2 -7 1 -15 -2 -18z m654 23 c0 -2 -8 -10 -17 -17 -16 -13 -17 -12 -4
4 13 16 21 21 21 13z m780 -26 c-6 -11 -15 -20 -20 -20 -19 0 -48 -33 -42 -48
4 -11 1 -14 -11 -9 -9 3 -19 2 -22 -2 -3 -5 -13 -7 -23 -4 -13 3 -22 -6 -35
-35 -9 -21 -17 -43 -17 -49 0 -6 -7 -16 -15 -23 -8 -7 -27 -34 -42 -61 -14
-27 -30 -46 -35 -42 -7 3 -6 8 0 12 6 3 14 19 17 34 4 15 11 27 15 27 8 0 43
67 38 74 -2 2 6 13 16 25 14 15 15 21 6 21 -9 0 -7 5 6 15 10 8 30 15 42 15
15 0 26 7 29 20 3 11 11 20 18 20 7 0 19 7 26 16 11 13 39 29 57 33 1 1 -2 -8
-8 -19z m-600 0 c0 -5 -5 -10 -11 -10 -5 0 -7 5 -4 10 3 6 8 10 11 10 2 0 4
-4 4 -10z m612 -43 c-10 -4 2 -6 28 -3 l45 4 -49 -23 c-30 -13 -45 -24 -38
-29 7 -4 18 -4 25 -1 6 4 1 -3 -12 -15 -14 -12 -33 -19 -42 -17 -10 3 -33 -8
-53 -25 -34 -28 -51 -27 -23 1 10 10 9 12 -3 9 -8 -2 -18 -7 -22 -13 -5 -6 -8
-3 -8 6 0 9 7 22 15 29 13 11 13 15 3 23 -10 6 -8 7 4 3 10 -3 20 0 24 5 4 7
10 7 17 0 14 -14 30 -14 22 -1 -3 6 4 14 17 19 13 6 19 10 14 10 -5 1 1 12 14
26 18 19 26 22 31 13 5 -8 2 -16 -9 -21z m-622 14 c0 -6 -4 -12 -8 -15 -5 -3
-9 1 -9 9 0 8 4 15 9 15 4 0 8 -4 8 -9z m-1046 -17 c4 -9 4 -19 1 -22 -2 -3
-7 3 -11 12 -6 15 -9 15 -30 1 -20 -13 -23 -13 -18 -1 5 13 18 20 45 25 4 0
10 -6 13 -15z m1809 -20 c-9 -15 -19 -22 -21 -16 -2 6 3 18 10 26 22 25 30 18
11 -10z m-43 -99 l-20 -40 6 40 c3 22 7 45 7 50 1 6 -4 9 -10 8 -7 -2 -13 3
-13 11 0 26 25 23 38 -3 11 -23 10 -32 -8 -66z m-419 58 c-21 -29 -29 -29 -24
1 3 16 11 24 23 23 17 -1 17 -3 1 -24z m379 -9 c0 -11 -5 -14 -16 -10 -9 3
-18 6 -20 6 -3 0 -2 5 1 10 10 16 35 12 35 -6z m-459 -47 c-6 -6 -11 -19 -11
-29 0 -10 -4 -18 -10 -18 -12 0 -12 0 1 41 20 62 22 66 27 40 2 -13 -1 -28 -7
-34z m816 -3 c-1 -2 -22 -5 -47 -8 -25 -3 -64 -14 -87 -26 -23 -11 -47 -20
-53 -20 -6 0 -22 -7 -36 -16 -13 -9 -27 -14 -30 -11 -9 9 5 27 21 27 8 0 36
13 62 28 67 39 83 44 100 30 10 -8 17 -8 21 -1 11 16 36 21 44 9 4 -6 6 -11 5
-12z m-2092 6 c-3 -5 -14 -10 -23 -9 -14 0 -13 2 3 9 27 11 27 11 20 0z m1627
-34 c-9 -17 -20 -33 -25 -34 -4 -2 -5 -8 -2 -12 3 -5 1 -11 -4 -14 -12 -8 -8
13 8 42 19 35 8 49 -17 22 -17 -19 -22 -20 -22 -7 0 22 37 46 61 40 18 -5 18
-6 1 -37z m50 22 c-7 -7 -12 -8 -12 -2 0 14 12 26 19 19 2 -3 -1 -11 -7 -17z
m238 13 c0 -5 -19 -20 -42 -33 -24 -13 -49 -36 -56 -51 -7 -15 -22 -32 -33
-37 -10 -6 -19 -17 -19 -25 0 -16 12 -20 24 -8 4 4 27 15 51 24 38 14 46 15
56 3 13 -16 39 -19 39 -4 0 6 -7 10 -16 10 -8 0 -12 5 -9 10 6 9 41 5 54 -6 8
-7 -38 -46 -48 -40 -6 4 -9 1 -5 -7 6 -17 34 -18 53 -3 11 8 15 8 18 0 4 -13
63 4 63 18 0 4 8 8 19 8 10 0 30 9 44 20 14 11 29 20 34 20 5 0 20 11 33 25
24 25 50 33 50 15 0 -5 -11 -12 -25 -16 -14 -3 -25 -12 -25 -18 0 -7 -11 -18
-24 -26 -13 -7 -27 -21 -29 -32 -3 -11 -14 -22 -24 -24 -11 -3 -24 -14 -31
-25 -14 -21 -9 -24 18 -9 27 14 37 -7 14 -29 -13 -12 -35 -17 -71 -16 -29 0
-53 -3 -53 -8 0 -4 -8 -7 -17 -5 -10 1 -24 -1 -31 -6 -23 -14 -72 -18 -72 -6
0 7 9 14 20 17 24 6 26 19 5 27 -8 3 -15 1 -15 -4 0 -6 -5 -10 -11 -10 -5 0
-8 3 -6 8 3 4 1 16 -3 27 -6 15 -1 25 19 42 30 24 22 42 -12 25 -12 -6 -33
-13 -47 -16 -14 -2 -37 -7 -52 -11 -30 -8 -36 2 -15 25 10 12 9 12 -5 1 -10
-7 -23 -11 -30 -9 -7 3 6 17 29 32 23 16 45 36 48 46 8 24 38 50 66 55 12 3
30 11 38 20 17 17 31 20 31 6z m560 -5 c0 -3 -4 -8 -10 -11 -5 -3 -10 -1 -10
4 0 6 5 11 10 11 6 0 10 -2 10 -4z m-2540 -28 c0 -5 5 -6 10 -3 6 3 10 0 11
-7 0 -10 2 -10 6 -1 3 10 9 10 24 0 26 -16 24 -27 -6 -27 -32 0 -81 24 -88 43
-4 10 1 13 19 9 13 -2 24 -9 24 -14z m1590 -18 c0 -5 -7 -10 -15 -10 -8 0 -15
5 -15 10 0 6 7 10 15 10 8 0 15 -4 15 -10z m-1672 -11 c-2 -6 -8 -10 -13 -10
-5 0 -11 4 -13 10 -2 6 4 11 13 11 9 0 15 -5 13 -11z m2582 1 c0 -5 -4 -10 -9
-10 -6 0 -13 5 -16 10 -3 6 1 10 9 10 9 0 16 -4 16 -10z m-695 -10 c-3 -5 -14
-10 -25 -10 -14 0 -17 -5 -12 -22 3 -13 1 -19 -5 -15 -6 4 -13 0 -17 -8 -3 -8
-11 -15 -17 -15 -7 0 -5 8 6 20 9 10 15 26 12 34 -8 19 1 26 35 26 17 0 27 -4
23 -10z m199 -10 c-14 -14 -56 -22 -49 -9 4 5 10 7 15 4 5 -3 11 -1 15 5 3 5
11 10 18 10 7 0 8 -3 1 -10z m343 4 c-3 -3 -12 -4 -19 -1 -8 3 -5 6 6 6 11 1
17 -2 13 -5z m-2322 -24 c-3 -5 -12 -10 -18 -10 -7 0 -6 4 3 10 19 12 23 12
15 0z m2319 3 c-5 -5 -12 -12 -16 -18 -4 -6 -8 -2 -8 8 0 9 7 17 17 17 9 0 12
-3 7 -7z m76 -18 c0 -9 -6 -12 -15 -9 -8 4 -15 10 -15 15 0 5 7 9 15 9 8 0 15
-7 15 -15z m-2651 -16 c13 -8 10 -9 -12 -6 -22 3 -27 1 -22 -10 4 -13 -1 -14
-30 -9 -21 4 -35 3 -35 -3 0 -6 -7 -8 -15 -5 -26 10 -16 24 18 25 26 0 28 2
12 8 -11 5 -30 5 -41 0 -27 -10 -66 0 -57 13 7 13 159 2 182 -13z m2586 -14
c22 1 52 5 68 9 21 6 27 5 27 -7 0 -17 -32 -27 -72 -23 -16 2 -28 0 -28 -4 0
-4 -11 -5 -25 -2 -14 2 -25 8 -25 13 0 10 -31 4 -59 -11 -38 -20 -22 5 22 33
39 26 42 26 47 9 4 -14 14 -18 45 -17z m-2945 -5 c0 -5 -10 -10 -22 -10 -19 0
-20 2 -8 10 19 13 30 13 30 0z m114 -15 c11 -12 21 -13 33 -6 12 6 28 5 48 -4
l30 -13 -40 -3 c-82 -5 -134 9 -119 32 8 14 31 11 48 -6z m-64 -5 c0 -5 -7 -7
-15 -4 -8 4 -15 8 -15 10 0 2 7 4 15 4 8 0 15 -4 15 -10z m2434 -39 c3 -5 -3
-11 -15 -14 -16 -4 -18 -3 -8 9 13 16 16 17 23 5z m326 -17 c0 -2 -7 -4 -15
-4 -8 0 -15 4 -15 10 0 5 7 7 15 4 8 -4 15 -8 15 -10z m23 1 c-3 -9 -8 -14
-10 -11 -3 3 -2 9 2 15 9 16 15 13 8 -4z m3 -62 c8 -30 -1 -40 -21 -23 -12 10
-16 10 -20 -2 -3 -8 -11 -15 -18 -16 -7 0 -27 -4 -44 -7 -23 -4 -33 -2 -33 6
0 7 3 9 7 6 3 -4 12 -2 19 3 6 6 16 10 20 9 19 -3 34 1 34 11 0 9 -43 7 -79
-5 -11 -3 -22 -1 -26 5 -4 6 -3 10 2 9 4 -1 10 -1 13 1 3 1 15 3 27 6 13 2 37
10 55 17 40 17 56 12 64 -20z m479 17 c3 -6 -2 -13 -12 -16 -10 -3 -31 -12
-48 -19 -103 -48 -168 -75 -192 -81 -55 -12 -63 -16 -63 -29 0 -9 -7 -11 -22
-7 -13 3 -17 7 -10 10 7 2 17 15 23 29 5 13 13 22 18 19 5 -3 11 0 14 8 3 7
17 16 31 18 33 7 33 2 -1 -16 -16 -8 -22 -15 -15 -16 13 0 100 36 207 86 58
27 62 27 70 14z m-815 -9 c0 -10 -24 -21 -43 -21 -7 0 -3 7 7 15 22 17 36 19
36 6z m550 -10 c0 -5 -13 -14 -30 -20 -21 -7 -30 -17 -30 -31 0 -13 -4 -19
-12 -14 -6 4 -17 0 -23 -10 -11 -14 -14 -14 -25 -1 -10 12 -8 16 11 24 13 5
27 7 32 4 4 -2 7 0 7 6 0 12 -63 2 -68 -11 -2 -4 -12 -8 -22 -8 -10 0 -20 -8
-23 -17 -4 -17 -4 -17 -12 0 -10 25 1 47 25 47 11 0 23 7 27 16 4 11 17 15 44
13 21 -2 41 0 45 4 11 10 54 9 54 -2z m-1806 -87 c6 -15 8 -15 24 0 14 12 21
13 30 4 7 -7 12 -18 12 -26 0 -12 3 -12 17 -1 14 12 16 12 9 -1 -4 -9 -1 -8 7
3 16 19 47 23 47 6 0 -6 7 -9 15 -5 8 3 15 0 15 -5 0 -6 9 -9 20 -6 11 3 18 2
15 -3 -3 -4 2 -14 11 -21 11 -9 18 -9 22 -2 11 17 53 -3 46 -22 -4 -10 0 -15
11 -15 9 0 14 4 11 9 -4 5 -3 16 0 25 5 14 8 14 21 1 17 -18 43 -20 43 -4 0 8
5 7 15 -1 13 -10 19 -10 33 4 21 18 42 21 42 5 0 -5 -4 -8 -9 -5 -5 4 -7 -3
-4 -14 5 -17 7 -17 20 -5 17 18 29 19 38 5 10 -16 25 -1 25 26 0 33 28 31 36
-2 6 -22 8 -24 16 -10 5 9 14 14 19 11 5 -4 7 -10 4 -15 -3 -5 -1 -12 5 -15 6
-4 10 -3 9 2 -4 21 2 33 16 33 8 0 12 -6 9 -14 -9 -24 17 -29 33 -7 11 17 18
19 28 11 8 -6 11 -19 8 -28 -4 -13 -2 -12 10 3 11 14 18 17 28 8 15 -11 42
-10 74 3 18 7 18 6 6 -9 -9 -11 -10 -17 -2 -17 6 0 11 -9 11 -20 0 -14 5 -18
16 -13 13 5 13 7 2 14 -9 6 -9 9 -1 9 6 0 19 -10 27 -22 12 -17 18 -20 28 -10
17 17 29 15 22 -3 -5 -11 1 -15 23 -15 32 0 62 -28 55 -50 -4 -11 0 -11 15 2
18 17 20 16 33 -2 10 -14 21 -18 35 -14 18 6 19 5 5 -11 -8 -11 -10 -16 -3
-12 6 4 15 2 18 -3 4 -6 18 -15 32 -21 13 -5 22 -13 19 -18 -3 -5 10 -12 30
-16 25 -4 38 -13 42 -27 3 -15 11 -19 29 -15 20 4 24 1 20 -14 -3 -12 2 -20
14 -24 10 -4 19 -11 19 -16 0 -6 5 -7 10 -4 6 3 13 -1 16 -9 3 -9 15 -16 25
-16 10 0 19 -4 19 -10 0 -5 13 -8 29 -6 24 3 29 0 26 -15 -4 -18 20 -33 36
-23 5 3 9 -2 9 -11 0 -12 6 -15 19 -10 11 3 22 1 26 -5 3 -5 1 -10 -6 -10 -8
0 -8 -4 1 -15 7 -8 22 -15 34 -15 26 0 76 -22 76 -33 0 -19 65 -88 80 -84 14
4 40 -14 40 -28 0 -16 55 -75 65 -71 8 3 11 -2 8 -15 -4 -14 0 -19 15 -19 29
0 35 -14 23 -55 -8 -29 -7 -35 6 -35 11 0 14 -6 10 -21 -3 -12 -3 -18 0 -15 3
3 14 -5 23 -17 13 -16 15 -24 7 -30 -9 -6 -9 -10 0 -13 7 -3 9 -12 6 -20 -3
-8 0 -14 7 -14 6 0 8 5 5 10 -3 6 4 10 17 10 16 0 19 -3 10 -9 -11 -7 -11 -9
2 -14 9 -4 16 -13 16 -21 0 -10 6 -13 16 -9 13 5 15 2 10 -15 -7 -20 9 -60 28
-73 5 -4 6 -14 3 -23 -4 -10 -1 -16 8 -16 9 0 12 -6 9 -15 -4 -9 0 -15 10 -15
17 0 41 -72 32 -96 -3 -8 0 -11 10 -7 7 3 14 0 14 -6 0 -6 -8 -12 -17 -12 -17
-1 -17 -2 0 -6 9 -2 17 -11 17 -19 0 -9 7 -22 15 -31 8 -8 13 -18 10 -23 -3
-5 3 -24 13 -42 11 -18 17 -42 15 -53 -11 -56 -9 -78 7 -82 15 -4 21 -46 8
-59 -3 -3 1 -20 10 -37 9 -18 15 -40 14 -49 -2 -10 1 -26 7 -36 7 -14 5 -21
-10 -30 -10 -7 -19 -18 -18 -25 0 -9 2 -9 6 1 2 6 9 12 15 12 6 0 7 -7 4 -16
-4 -9 -1 -23 5 -30 9 -11 8 -14 -2 -14 -11 0 -11 -2 1 -10 17 -10 18 -21 25
-292 l6 -198 -26 0 c-14 0 -25 -4 -25 -9 0 -5 8 -7 19 -4 11 3 21 -2 24 -11 5
-12 0 -16 -18 -16 -13 0 -27 5 -31 11 -4 8 -9 7 -16 -2 -5 -9 -6 -4 -2 15 7
27 6 29 -20 22 -34 -9 -69 1 -60 17 5 8 2 8 -7 0 -15 -15 -33 -17 -24 -4 3 5
-4 12 -15 16 -11 4 -17 11 -14 17 5 7 0 9 -14 6 -12 -4 -22 -2 -22 3 0 5 -5 9
-10 9 -7 0 -7 -6 0 -19 15 -28 12 -35 -6 -20 -19 16 -59 19 -94 7 -19 -7 -28
-5 -42 14 -12 16 -20 19 -25 12 -5 -7 -21 -12 -37 -12 -16 0 -23 4 -16 8 20
12 7 45 -18 44 -12 0 -22 5 -22 11 0 15 -67 13 -97 -3 -14 -8 -23 -8 -25 -2
-5 15 -147 21 -172 8 -15 -8 -21 -8 -24 2 -3 9 -11 5 -23 -11 -10 -13 -21 -20
-26 -15 -4 5 -2 11 5 13 6 3 12 9 12 15 0 6 -6 6 -15 -2 -8 -7 -15 -9 -15 -5
0 4 -15 -8 -33 -28 -25 -28 -36 -34 -50 -26 -12 7 -17 6 -17 -2 0 -6 -6 -9
-14 -6 -10 4 -12 0 -9 -14 3 -11 0 -19 -6 -19 -7 0 -9 5 -5 11 4 8 0 8 -15 0
-11 -7 -21 -17 -21 -23 0 -7 -5 -7 -14 1 -26 22 -69 -18 -91 -84 -5 -16 -8
-17 -16 -5 -6 10 -8 3 -4 -23 2 -23 0 -35 -5 -32 -6 4 -10 -1 -10 -9 0 -27 -1
-31 -15 -46 -10 -12 -13 -46 -10 -145 5 -187 12 -225 39 -225 16 0 27 -11 40
-40 10 -22 21 -40 26 -40 14 0 19 40 6 53 -36 38 -48 69 -37 95 14 29 21 25
25 -14 3 -26 7 -29 40 -27 35 2 49 -10 24 -20 -7 -3 -3 -6 10 -6 12 -1 22 -5
22 -11 0 -5 9 -10 20 -10 11 0 20 -4 20 -10 0 -11 69 -10 76 2 3 4 18 1 34 -7
40 -20 56 -20 39 2 -13 15 -12 16 9 11 15 -4 22 -2 22 8 0 8 -4 14 -9 14 -5 0
-18 3 -28 6 -15 5 -15 4 -3 -5 10 -7 11 -11 3 -11 -7 0 -17 9 -23 19 -5 11
-22 21 -37 23 -60 7 -31 54 36 57 11 1 10 5 -5 19 -11 11 -28 17 -43 14 -19
-4 -23 -1 -18 10 4 12 -1 15 -23 14 -16 -1 -33 -6 -37 -11 -4 -4 -1 -6 8 -2
16 5 39 -9 39 -25 0 -4 -10 -12 -22 -19 -18 -10 -20 -9 -15 4 4 11 -3 20 -23
29 -41 18 -53 78 -15 78 7 0 15 -6 18 -14 8 -20 140 -37 157 -20 9 9 -33 34
-57 34 -13 0 -23 5 -23 11 0 5 5 7 10 4 9 -6 11 -1 14 38 1 6 7 18 14 25 6 7
12 21 12 31 0 23 57 77 103 96 20 8 37 13 37 10 0 -4 -16 -27 -35 -52 -26 -35
-35 -56 -35 -85 0 -93 82 -165 188 -167 56 -1 106 32 133 87 21 42 21 57 4
142 -3 14 -2 19 1 11 5 -11 8 -11 15 0 7 11 9 10 9 -3 0 -10 11 -20 25 -24 14
-4 24 -9 21 -12 -3 -3 8 -18 24 -34 33 -31 38 -48 15 -48 -9 0 -15 -6 -14 -12
2 -14 -7 -42 -22 -71 -5 -10 -7 -23 -3 -29 4 -7 3 -8 -4 -4 -7 4 -12 1 -12 -8
0 -19 11 -21 27 -5 8 8 17 8 32 -1 12 -6 31 -8 41 -5 15 5 18 3 14 -9 -3 -9
-10 -13 -15 -10 -5 3 -9 1 -9 -5 0 -5 -12 -10 -27 -10 -56 -1 -92 -6 -99 -14
-7 -6 9 -11 28 -8 4 0 5 -5 2 -13 -10 -27 54 -54 99 -40 14 4 15 9 7 19 -9 11
-7 12 7 9 12 -3 24 5 36 23 10 15 16 20 13 11 -3 -10 0 -18 6 -18 6 0 5 -6 -3
-17 -12 -15 -12 -16 5 -10 13 5 17 3 13 -7 -9 -22 5 -28 19 -8 12 15 13 15 14
1 0 -9 11 -22 25 -29 27 -15 49 -4 60 31 5 14 12 18 31 13 21 -6 24 -3 24 24
0 30 14 42 51 42 12 0 19 -7 19 -18 0 -10 5 -23 12 -30 8 -8 8 -15 -2 -27 -9
-10 -9 -15 -1 -15 7 0 10 -13 8 -35 -7 -56 7 -51 20 7 l12 53 -3 -45 c-1 -25
-5 -51 -9 -57 -5 -7 -4 -21 1 -30 11 -23 -1 -79 -16 -76 -7 2 -12 -1 -12 -6 0
-5 -9 -13 -21 -16 -21 -7 -21 -7 2 -19 17 -9 26 -9 31 -2 5 7 8 5 8 -5 0 -9
-7 -19 -15 -23 -9 -3 -15 0 -15 9 0 8 -5 15 -11 15 -6 0 -9 -9 -6 -20 3 -11 1
-23 -4 -26 -5 -3 -9 -34 -8 -70 1 -38 -3 -70 -11 -79 -7 -8 -10 -21 -7 -29 7
-17 -11 -36 -29 -29 -10 4 -11 0 -1 -21 7 -14 15 -26 20 -26 4 0 7 -5 7 -11 0
-6 -7 -9 -15 -5 -17 6 -20 -5 -5 -20 16 -16 -8 -64 -27 -57 -12 5 -13 -2 -7
-33 7 -39 7 -39 -13 -21 -19 16 -21 16 -27 2 -3 -9 -3 -21 0 -27 4 -6 -3 -5
-15 1 -25 14 -25 12 -6 -25 21 -40 19 -74 -2 -74 -15 0 -16 2 -3 10 13 9 13
10 0 10 -9 0 -22 9 -30 20 -19 26 -30 25 -30 -1 0 -11 -4 -17 -10 -14 -5 3
-10 -1 -10 -9 0 -9 -4 -16 -10 -16 -14 0 -12 -47 3 -54 6 -3 2 -3 -10 -1 -12
3 -25 0 -29 -6 -4 -8 -3 -9 4 -5 7 4 12 5 12 2 0 -2 3 -12 6 -20 4 -12 2 -15
-9 -10 -20 7 -57 -13 -57 -31 0 -8 4 -15 10 -15 12 0 4 -60 -10 -74 -8 -8 -9
-6 -4 8 7 18 4 18 -26 -4 -18 -13 -30 -19 -26 -12 4 8 1 12 -10 12 -13 0 -14
-3 -4 -15 7 -8 17 -15 22 -15 5 0 16 -7 24 -15 12 -12 12 -15 2 -15 -10 0 -9
-3 2 -10 21 -14 -5 -13 -31 1 -16 8 -19 7 -17 -3 4 -19 -3 -21 -36 -8 -16 6
-34 9 -40 6 -6 -2 -4 -5 4 -5 8 -1 21 -10 28 -22 10 -15 10 -19 1 -14 -8 6
-10 -1 -7 -24 2 -17 3 -31 1 -31 -1 0 -21 16 -43 36 -22 20 -40 32 -40 27 0
-5 -12 -8 -27 -7 -16 0 -31 -4 -35 -10 -4 -6 -12 -12 -18 -12 -5 -1 -15 -2
-21 -3 -13 -1 -2 -21 12 -21 6 0 7 4 4 10 -3 5 0 7 8 4 8 -3 18 -1 22 5 9 16
25 13 19 -3 -6 -17 -46 -28 -68 -20 -17 7 -22 34 -6 34 5 0 7 6 4 13 -7 19
-33 17 -28 -2 3 -9 -1 -6 -7 7 -7 12 -21 22 -32 22 -11 0 -17 3 -14 6 11 11
-40 44 -63 42 -17 -2 -27 6 -39 29 -9 17 -34 40 -56 52 -37 19 -37 20 -10 15
27 -5 28 -4 12 9 -15 13 -15 15 -2 20 11 5 13 12 6 31 -6 13 -7 27 -4 30 4 3
-1 6 -11 6 -9 0 -14 -4 -11 -10 3 -6 1 -10 -5 -10 -16 0 -8 34 10 41 12 6 11
8 -5 15 -11 4 -26 15 -33 23 -8 9 -11 11 -8 4 4 -6 2 -14 -4 -18 -6 -4 -7 -11
-4 -17 4 -6 -1 -8 -15 -3 -12 4 -21 2 -21 -4 0 -6 4 -11 8 -11 5 0 -27 -36
-70 -80 -44 -44 -76 -80 -72 -80 5 0 -9 -18 -30 -39 -25 -25 -44 -37 -54 -34
-9 4 -13 2 -9 -4 7 -12 -20 -27 -41 -24 -8 1 -20 -3 -28 -10 -11 -9 -14 -9
-14 1 0 9 -3 10 -13 1 -21 -17 -87 -10 -100 11 -14 22 -27 23 -27 2 0 -8 4
-13 8 -10 4 3 13 -9 19 -25 9 -24 9 -30 -1 -26 -6 3 -22 -10 -35 -28 -13 -19
-29 -31 -36 -29 -7 3 -16 0 -21 -7 -4 -7 -3 -10 3 -6 6 4 14 0 17 -9 10 -26 7
-32 -14 -27 -14 4 -22 -1 -29 -18 -9 -22 -9 -21 -8 8 1 18 5 33 10 33 4 0 7 7
7 15 0 8 -5 15 -11 15 -5 0 -7 6 -3 13 5 8 3 8 -9 -2 -9 -7 -14 -18 -10 -24 3
-6 1 -7 -5 -3 -13 8 -62 -32 -62 -51 0 -7 -7 -13 -15 -13 -8 0 -15 -4 -15 -10
0 -5 5 -10 10 -10 6 0 10 -9 10 -19 0 -11 -4 -23 -10 -26 -5 -3 -10 -17 -10
-31 0 -25 -15 -33 -23 -11 -3 6 -6 -3 -6 -22 -1 -24 3 -32 13 -28 8 3 18 -5
25 -19 7 -17 7 -24 0 -24 -7 0 -9 -10 -5 -25 9 -37 -2 -50 -25 -29 -10 9 -19
23 -19 30 0 7 -25 -12 -56 -43 -31 -30 -62 -52 -69 -49 -8 3 -25 -4 -39 -15
-20 -15 -26 -17 -26 -6 0 7 10 19 23 25 56 30 98 59 111 77 14 21 11 75 -5 75
-5 0 -9 -2 -9 -4 0 -2 -3 -12 -6 -21 -4 -10 -2 -15 6 -13 7 2 15 -3 17 -9 3
-7 -1 -13 -8 -13 -7 0 -21 -7 -31 -17 -10 -9 -18 -11 -18 -5 0 6 8 15 18 21
13 7 14 12 5 22 -22 22 -44 2 -41 -35 4 -44 -14 -52 -19 -10 -2 19 4 46 17 68
26 48 26 49 -10 18 -16 -15 -30 -32 -30 -39 0 -6 -7 -19 -16 -28 -15 -15 -18
-15 -37 2 -11 10 -18 13 -14 7 3 -5 -4 -23 -17 -39 l-23 -28 -13 30 c-12 27
-16 29 -28 16 -11 -10 -17 -11 -22 -3 -13 21 -29 -14 -24 -55 6 -44 7 -73 5
-94 -1 -11 -4 -11 -15 -1 -12 9 -13 17 -4 36 14 31 3 42 -20 21 -22 -20 -37
-22 -26 -5 9 14 15 58 9 58 -3 0 -13 -17 -24 -39 -29 -56 -73 -65 -56 -11 6
19 4 20 -22 14 -25 -7 -27 -6 -14 9 7 10 9 17 3 17 -5 0 -17 -10 -26 -22 -16
-23 -17 -22 -11 16 4 22 16 47 28 57 13 11 17 18 9 19 -16 0 -34 -17 -51 -48
-13 -25 -31 -29 -31 -8 0 15 -24 28 -34 19 -3 -4 -1 -12 5 -19 8 -9 5 -16 -11
-24 -13 -7 -19 -18 -16 -26 7 -19 -18 -18 -34 1 -11 13 -9 20 9 39 19 20 20
24 7 29 -9 3 -18 2 -21 -3 -4 -6 -11 -10 -16 -10 -6 0 -7 5 -4 10 8 13 -1 13
-26 0 -13 -7 -19 -7 -19 0 0 5 -4 10 -10 10 -5 0 -9 -3 -7 -7 1 -5 -2 -9 -8
-11 -19 -7 -15 15 9 51 14 20 21 37 16 37 -5 0 -16 -13 -25 -30 -16 -30 -42
-43 -31 -15 3 8 9 22 12 30 4 10 0 15 -10 15 -9 0 -16 1 -16 3 0 1 7 25 15 52
l15 50 -30 -33 c-18 -19 -30 -26 -30 -18 0 8 4 17 9 20 11 7 20 66 9 66 -4 0
-10 -11 -14 -24 -3 -14 -12 -27 -19 -30 -11 -4 -12 0 -5 20 14 36 12 47 -5 40
-14 -5 -13 -2 0 24 22 43 4 37 -33 -12 -25 -33 -32 -37 -32 -21 0 11 13 38 30
61 18 26 26 44 19 48 -9 5 -22 -7 -51 -50 -4 -6 -10 -7 -14 -3 -4 4 1 15 10
26 11 12 14 21 7 26 -6 3 -11 0 -12 -7 0 -10 -2 -10 -6 -1 -2 7 5 26 17 43
l22 30 -36 -21 c-25 -15 -36 -28 -36 -45 0 -13 -9 -28 -20 -34 -11 -6 -18 -15
-15 -20 8 -13 -14 -52 -25 -45 -4 3 -11 -1 -13 -7 -3 -8 -6 -8 -6 -2 -1 6 8
19 18 28 11 10 17 24 15 31 -3 7 3 16 14 19 13 5 18 13 15 25 -2 10 2 24 9 32
18 17 29 59 17 59 -5 0 -9 -7 -9 -15 0 -8 -7 -15 -15 -15 -8 0 -24 -5 -35 -12
-23 -15 -28 -11 -36 29 -4 21 -1 35 13 48 10 10 18 31 19 45 1 15 5 33 9 40 6
10 4 12 -8 7 -10 -3 -17 -2 -17 3 0 6 4 10 8 10 4 0 8 9 9 20 1 17 -1 18 -17
8 -10 -7 -24 -22 -31 -35 -8 -15 -18 -21 -29 -18 -14 4 -16 0 -12 -21 4 -23 2
-26 -12 -21 -13 5 -16 3 -12 -11 4 -13 -5 -28 -30 -50 -41 -36 -44 -38 -44
-17 0 9 -6 12 -15 9 -20 -8 -19 -3 10 36 26 35 20 65 -7 42 -24 -19 -17 29 9
68 15 23 19 36 12 39 -7 2 -16 -4 -21 -13 -5 -9 -13 -14 -18 -11 -4 3 -6 -4
-3 -14 3 -13 -1 -21 -14 -25 -10 -4 -26 -24 -36 -46 -21 -45 -47 -53 -47 -15
0 14 4 25 10 25 5 0 7 6 4 13 -3 8 9 25 25 38 17 13 31 30 31 37 0 7 5 10 10
7 6 -3 10 -1 10 4 0 11 -13 15 -36 12 -8 -1 -9 11 -4 39 5 28 4 37 -4 32 -6
-3 -24 -7 -39 -8 -20 -1 -27 3 -23 12 6 16 -10 19 -19 5 -3 -5 2 -17 11 -25 8
-9 12 -16 8 -16 -5 0 -3 -5 3 -11 9 -9 8 -19 -3 -40 -17 -35 -38 -39 -29 -6 5
17 4 19 -4 7 -6 -8 -11 -11 -11 -6 0 5 -8 2 -17 -5 -17 -13 -17 -12 0 14 10
15 13 27 8 27 -5 0 -11 -4 -13 -10 -1 -5 -13 -7 -25 -4 -17 5 -23 14 -23 35 0
17 6 32 15 35 11 5 12 9 2 19 -10 11 -15 10 -29 -2 -21 -18 -22 -15 -8 21 7
21 6 26 -5 26 -17 0 -18 18 -6 73 5 21 5 37 0 37 -5 0 -9 -7 -9 -15 0 -9 -11
-28 -25 -43 l-25 -27 -1 40 -1 40 -17 -52 c-16 -51 -31 -77 -31 -55 0 6 4 22
9 35 12 30 4 41 -18 25 -13 -10 -14 -10 -4 2 9 10 10 17 2 26 -6 8 -11 29 -12
47 -1 28 -4 33 -19 29 -10 -2 -18 1 -18 7 0 7 4 10 9 6 6 -3 9 4 8 15 -1 11
-5 20 -10 20 -4 0 -7 8 -5 17 2 12 -4 18 -17 18 -14 0 -20 7 -21 24 -1 13 -5
26 -10 30 -5 3 -11 17 -13 31 -1 14 -7 33 -12 42 -5 9 -9 28 -9 42 0 14 -7 29
-15 33 -12 7 -13 16 -6 41 10 34 4 41 -18 20 -10 -11 -11 -10 -5 5 3 9 1 23
-5 30 -5 7 -13 40 -16 73 -9 85 -10 91 -21 106 -14 18 -17 88 -4 88 5 0 10 7
10 15 0 8 -4 15 -8 15 -4 0 -8 20 -8 45 -1 25 2 45 5 45 3 0 7 10 8 23 2 18 8
51 12 65 1 1 1 5 0 8 0 4 5 11 13 15 10 7 10 9 1 9 -7 0 -13 7 -13 16 0 9 6
14 13 11 10 -4 13 7 11 44 -1 27 2 49 8 49 5 0 6 10 3 21 -5 16 -4 19 5 14 9
-5 11 -4 6 4 -4 6 -2 19 6 28 9 12 9 15 1 9 -7 -4 -13 -3 -13 3 0 5 4 12 10
16 5 3 6 15 1 28 -5 12 -4 33 1 46 5 14 6 37 3 53 -5 19 -3 28 6 28 7 0 9 3 6
7 -4 3 -2 12 4 20 7 7 7 13 2 13 -6 0 -8 11 -5 25 2 14 9 25 14 25 6 0 7 11 4
26 -4 14 -3 24 1 21 4 -3 9 11 10 31 1 20 8 41 16 47 7 5 12 16 9 23 -2 7 3
21 13 32 11 12 13 19 4 22 -7 2 -1 16 16 36 14 17 24 36 20 41 -3 5 5 19 17
30 l22 21 -24 0 c-22 0 -22 1 -6 19 22 25 27 68 10 86 -12 12 -11 15 8 21 12
3 29 14 38 22 13 14 13 15 -7 10 -28 -8 -30 8 -3 24 23 15 27 30 5 22 -22 -9
-18 9 5 26 13 9 18 21 14 35 -4 16 2 26 21 39 27 18 26 40 -2 29 -11 -4 -14
-3 -9 5 4 7 13 12 21 12 8 0 17 5 20 10 4 7 -3 8 -22 4 -25 -7 -27 -6 -14 9
17 21 2 22 -25 2 -22 -16 -58 -20 -49 -5 4 6 10 8 15 5 4 -3 24 10 44 29 29
29 32 36 18 39 -12 3 -10 5 6 6 13 0 21 5 18 10 -4 6 -20 5 -42 -1 -40 -11
-56 -5 -27 11 16 8 19 20 18 56 -1 25 2 48 6 51 21 13 7 26 -21 21 -35 -7 -49
8 -17 18 12 4 25 8 29 9 15 3 21 18 20 50 -1 22 4 36 13 40 20 7 19 21 -2 41
-16 16 -15 18 5 34 13 9 26 30 31 46 4 17 13 29 19 28 13 -3 4 28 -12 40 -7 5
-4 7 7 3 15 -5 17 -2 12 14 -5 15 -3 18 8 14 9 -3 16 3 20 15 4 18 2 19 -14
10 -25 -13 -24 -1 2 20 11 9 22 29 22 44 2 19 7 27 20 27 10 0 15 5 12 10 -4
6 -1 18 6 26 10 12 9 13 -4 9 -8 -4 -18 -2 -21 3 -3 6 6 13 21 17 21 5 24 8
12 16 -11 8 -9 14 14 34 16 14 25 30 21 36 -4 8 -9 7 -16 -2 -8 -11 -9 -11 -6
-1 2 8 7 13 12 12 13 -3 24 20 21 46 -1 15 2 21 11 17 8 -3 11 2 8 14 -3 11 2
25 10 32 9 8 16 19 16 25 0 6 12 22 25 35 14 13 28 34 31 47 3 13 10 24 15 24
5 0 6 -8 2 -17 -3 -11 2 -7 13 7 10 14 17 27 15 28 -6 7 53 62 66 62 7 0 13 5
13 10 0 6 6 9 13 8 7 -2 11 5 9 16 -2 12 1 16 9 10 8 -4 10 -3 5 5 -6 9 -11 9
-22 0 -17 -14 -19 2 -2 19 9 9 15 9 26 -1 13 -10 14 -9 3 11 -7 14 -8 22 -1
22 5 0 10 -6 10 -12 0 -10 3 -9 9 1 5 7 13 11 19 7 6 -4 9 4 8 19 -3 21 -1 23
17 14 14 -8 17 -8 13 0 -10 15 16 51 36 51 12 0 15 5 11 17 -5 11 -3 14 6 8
10 -5 11 -2 6 14 -6 19 -2 21 29 21 24 0 35 4 33 13 -2 13 6 13 38 1 19 -7 19
-7 3 13 -25 27 -23 30 23 36 23 3 45 11 50 18 6 10 11 10 23 -1 14 -11 16 -10
10 4 -4 9 -3 16 2 14 5 -1 19 3 31 10 12 7 47 13 78 15 39 1 54 6 50 15 -6 16
27 16 43 0 9 -9 12 -8 12 5 0 22 16 22 24 1z m1467 -14 c-19 -16 -38 -27 -43
-24 -13 8 46 51 72 53 3 0 -10 -13 -29 -29z m124 9 c-4 -5 -13 -9 -21 -9 -12
0 -12 2 -2 14 14 15 32 11 23 -5z m-1335 -20 c0 -6 -4 -7 -10 -4 -5 3 -10 11
-10 16 0 6 5 7 10 4 6 -3 10 -11 10 -16z m1414 12 c3 -5 -10 -19 -30 -30 l-36
-21 24 29 c25 32 33 36 42 22z m231 -21 c3 -5 -3 -10 -15 -10 -11 0 -33 -11
-48 -25 -15 -14 -38 -25 -52 -24 -14 0 -19 3 -11 6 21 8 50 41 43 48 -4 3 1 3
10 0 9 -4 19 -2 23 4 8 14 42 14 50 1z m276 -47 c13 -16 12 -17 -3 -4 -10 7
-18 15 -18 17 0 8 8 3 21 -13z m154 -44 c16 -16 -19 -9 -40 7 -19 16 -19 16 5
9 14 -4 29 -11 35 -16z m-659 -4 c-22 -16 -57 -21 -40 -6 7 8 29 15 54 20 3 0
-4 -6 -14 -14z m609 -5 c8 -13 -5 -13 -25 0 -13 8 -13 10 2 10 9 0 20 -4 23
-10z m-91 -25 c15 -11 16 -15 5 -15 -8 0 -19 4 -24 9 -6 5 -19 11 -30 14 -16
4 -15 5 5 6 14 0 34 -6 44 -14z m-269 -5 c7 -12 -2 -12 -30 0 -19 8 -19 9 2 9
12 1 25 -3 28 -9z m348 -19 c4 -1 7 -8 7 -16 0 -8 5 -15 11 -15 5 0 7 -5 4
-10 -4 -6 -16 -3 -32 10 -14 11 -29 17 -34 14 -5 -3 -14 -2 -20 2 -16 10 11
24 36 19 11 -2 23 -4 28 -4z m-253 -61 c0 -5 -5 -10 -11 -10 -5 0 -7 5 -4 10
3 6 8 10 11 10 2 0 4 -4 4 -10z m316 -72 c12 -14 13 -18 3 -10 -9 6 -18 10
-21 7 -2 -3 -5 2 -5 10 0 19 0 19 23 -7z m1964 -22 c0 -3 -4 -8 -10 -11 -5 -3
-10 -1 -10 4 0 6 5 11 10 11 6 0 10 -2 10 -4z m-5680 -26 c0 -5 -5 -10 -11
-10 -5 0 -7 5 -4 10 3 6 8 10 11 10 2 0 4 -4 4 -10z m6070 -20 c13 0 13 1 0
10 -17 11 -4 12 22 2 13 -5 8 -11 -23 -24 -33 -14 -39 -14 -39 -2 0 8 -6 14
-12 14 -9 0 -8 3 2 10 9 6 18 6 24 0 6 -6 17 -10 26 -10z m-65 -22 c-3 -7 -17
-14 -31 -15 -29 -1 -21 12 11 20 11 3 21 5 22 6 1 0 0 -5 -2 -11z m-90 -28
c-3 -5 -16 -10 -28 -9 -21 0 -21 1 -2 9 28 12 37 12 30 0z m-6175 -48 c0 -4
-5 -13 -12 -20 -16 -16 -3 -15 22 0 25 16 37 4 17 -17 -9 -8 -18 -15 -21 -15
-3 0 -29 -23 -58 -50 -29 -28 -77 -62 -106 -76 -50 -24 -58 -25 -105 -13 -61
14 -91 28 -82 37 4 4 10 7 13 7 7 1 35 16 77 42 11 7 27 15 35 19 8 4 46 27
85 51 45 28 81 43 102 43 18 0 33 -4 33 -8z m4250 -94 c0 -6 -6 -5 -15 2 -8 7
-15 14 -15 16 0 2 7 1 15 -2 8 -4 15 -11 15 -16z m3161 -21 c-10 -9 -11 -8 -5
6 3 10 9 15 12 12 3 -3 0 -11 -7 -18z m-34 -3 c-3 -3 -12 -4 -19 -1 -8 3 -5 6
6 6 11 1 17 -2 13 -5z m-267 -48 c0 -2 -7 -7 -16 -10 -8 -3 -12 -2 -9 4 6 10
25 14 25 6z m-1971 -240 c97 -19 116 -27 125 -45 7 -16 6 -29 -3 -43 -7 -11
-8 -17 -2 -13 8 4 10 -20 9 -79 -1 -46 -6 -82 -10 -80 -4 3 -8 0 -8 -5 0 -6 5
-11 10 -11 13 0 13 -63 -1 -77 -7 -7 -30 -6 -77 3 -37 7 -93 19 -124 25 l-58
12 0 168 c0 129 3 169 13 169 6 0 64 -11 126 -24z m-4516 -191 c-3 -9 -8 -14
-10 -11 -3 3 -2 9 2 15 9 16 15 13 8 -4z m-113 -239 c0 -3 -4 -8 -10 -11 -5
-3 -10 -1 -10 4 0 6 5 11 10 11 6 0 10 -2 10 -4z m-60 -26 c0 -5 -5 -10 -11
-10 -5 0 -7 5 -4 10 3 6 8 10 11 10 2 0 4 -4 4 -10z m5469 -139 c69 -11 91
-21 45 -21 -16 -1 -56 -7 -88 -15 -33 -8 -63 -12 -68 -9 -4 3 -8 -2 -8 -10 0
-9 -5 -16 -11 -16 -5 0 -7 -5 -3 -12 4 -7 3 -8 -5 -4 -6 4 -9 11 -6 15 2 5 -7
9 -22 9 -15 0 -29 5 -31 11 -6 17 -22 13 -22 -6 -1 -17 -2 -17 -15 1 -7 10
-18 15 -24 11 -6 -3 -11 1 -11 10 0 9 -4 13 -10 10 -5 -3 -10 -1 -10 5 0 6 -4
8 -10 5 -5 -3 -10 -2 -10 4 0 5 8 10 18 10 9 0 39 6 65 14 48 13 71 12 226
-12z m-1001 -100 c66 -18 81 -18 160 -6 48 7 91 10 95 5 9 -8 -118 -40 -159
-40 -12 0 -35 -5 -51 -11 -15 -6 -45 -11 -65 -11 -21 0 -38 -4 -38 -9 0 -5
-18 -9 -40 -9 -22 0 -40 -4 -40 -10 0 -5 -15 -13 -32 -18 -18 -5 -64 -21 -102
-36 -50 -19 -72 -23 -81 -16 -10 8 -15 7 -21 -1 -4 -8 -3 -9 4 -5 7 4 12 2 12
-3 0 -6 -10 -11 -22 -11 -17 0 -28 11 -41 38 -27 59 -27 84 3 88 14 2 67 13
119 24 72 16 101 19 124 11 29 -11 51 -6 42 8 -2 5 7 6 21 3 14 -2 24 -1 23 4
-5 29 -5 29 89 5z m839 -27 c-3 -3 -12 -4 -19 -1 -8 3 -5 6 6 6 11 1 17 -2 13
-5z m43 -14 c0 -5 -7 -7 -15 -4 -8 4 -12 10 -9 15 6 11 24 2 24 -11z m-1350
-77 c7 -27 12 -52 11 -56 -1 -4 6 -7 15 -5 29 5 26 -17 -5 -35 -36 -21 -45
-21 -38 -2 4 8 1 17 -5 21 -7 5 -8 2 -3 -6 5 -9 4 -11 -4 -6 -6 4 -9 12 -5 17
3 5 10 6 16 3 8 -5 9 -1 5 10 -4 10 -7 22 -7 27 0 4 -6 6 -14 3 -14 -5 -49 50
-38 60 10 11 21 6 25 -11 4 -14 5 -12 6 5 2 40 28 24 41 -25z m-1315 -563 c3
-5 1 -10 -4 -10 -6 0 -11 5 -11 10 0 6 2 10 4 10 3 0 8 -4 11 -10z m445 -84
c0 -3 -4 -8 -10 -11 -5 -3 -10 -1 -10 4 0 6 5 11 10 11 6 0 10 -2 10 -4z m25
-6 c3 -5 1 -10 -4 -10 -6 0 -11 5 -11 10 0 6 2 10 4 10 3 0 8 -4 11 -10z
m-805 -18 c0 -4 -10 -9 -22 -9 -18 -2 -20 0 -8 7 18 12 30 13 30 2z m-40 -42
c0 -5 -4 -10 -10 -10 -5 0 -10 5 -10 10 0 6 5 10 10 10 6 0 10 -4 10 -10z
m753 -28 c15 -2 27 -9 27 -16 0 -6 4 -6 9 3 6 10 13 11 29 2 11 -6 31 -11 44
-12 13 0 17 -3 11 -6 -7 -2 -13 -10 -13 -16 0 -8 21 -13 57 -14 109 -3 141
-13 93 -28 -23 -7 -27 -25 -6 -25 8 0 14 -10 14 -25 0 -14 -5 -25 -11 -25 -5
0 -18 -9 -28 -21 -16 -19 -18 -19 -27 -3 -6 11 -17 15 -30 12 -24 -7 -78 34
-68 50 3 6 2 13 -4 17 -5 3 -10 -1 -10 -9 0 -23 -13 -20 -39 8 -13 14 -40 28
-61 31 -21 4 -46 15 -55 25 -15 17 -15 19 4 25 12 3 18 12 15 20 -3 8 -13 11
-22 8 -15 -4 -15 -3 -2 6 8 6 22 8 30 4 8 -3 27 -8 43 -11z m-109 -8 c3 -8 10
-12 16 -9 6 4 7 -1 3 -11 -4 -11 -8 -13 -11 -6 -2 7 -16 12 -30 13 -15 0 -21
3 -14 6 6 2 10 9 6 14 -3 5 1 9 9 9 8 0 18 -7 21 -16z m283 -10 c-3 -3 -12 -4
-19 -1 -8 3 -5 6 6 6 11 1 17 -2 13 -5z m-3629 -66 c7 -7 12 -9 12 -5 0 4 13
1 29 -7 16 -9 31 -12 35 -9 3 4 6 1 6 -5 0 -7 5 -12 11 -12 5 0 7 4 4 10 -3 5
0 7 8 4 8 -3 20 -16 27 -29 8 -14 18 -21 27 -18 12 5 14 1 8 -18 -5 -13 -9
-39 -10 -56 -1 -18 -7 -39 -14 -46 -6 -8 -8 -16 -5 -19 11 -12 15 -60 4 -56
-6 2 -10 6 -8 10 5 9 -34 48 -49 48 -7 0 -13 7 -13 15 0 8 -4 15 -10 15 -16 0
-12 -14 10 -38 11 -12 20 -26 20 -31 0 -5 9 -16 20 -24 15 -11 18 -21 13 -50
-5 -34 -16 -43 -45 -38 -4 0 -4 -7 -1 -16 4 -9 -1 -21 -12 -29 -11 -8 -15 -19
-11 -30 5 -12 2 -15 -10 -10 -11 4 -15 2 -11 -8 3 -8 -1 -20 -8 -26 -8 -7 -12
-16 -9 -22 3 -5 1 -15 -5 -22 -8 -10 -5 -16 15 -24 37 -18 61 -15 78 10 20 28
30 18 21 -22 -5 -21 -11 -30 -21 -26 -11 4 -14 -4 -11 -37 1 -23 6 -48 11 -56
6 -10 5 -12 -2 -7 -11 7 -16 -17 -15 -61 1 -7 -3 -11 -7 -8 -4 3 -7 -7 -7 -20
0 -14 3 -25 8 -25 5 0 6 -7 3 -15 -4 -8 0 -23 7 -32 12 -15 12 -16 -5 -10 -17
7 -18 3 -14 -52 2 -34 11 -68 20 -78 12 -14 15 -40 13 -113 -1 -52 2 -100 6
-105 16 -21 5 -67 -18 -76 -16 -6 -32 0 -67 28 -25 20 -46 41 -46 48 0 7 -7
18 -15 25 -9 7 -13 15 -11 18 3 2 -1 20 -9 38 -15 37 -15 36 -15 58 0 8 -6 21
-14 29 -21 21 -84 153 -101 211 -7 28 -24 98 -35 156 -19 91 -53 190 -106 305
-42 89 -63 228 -43 274 19 44 34 28 34 -37 0 -48 5 -65 34 -110 18 -29 31 -55
28 -59 -6 -5 16 -33 26 -33 2 0 0 23 -5 51 -12 65 -6 84 22 69 11 -6 20 -19
20 -29 0 -11 10 -21 22 -25 17 -4 20 -8 10 -14 -9 -7 -10 -15 -3 -35 6 -15 8
-64 6 -109 -3 -53 -1 -76 5 -63 5 11 9 42 9 68 1 27 5 46 10 43 13 -8 19 50 8
70 -8 14 -7 16 7 11 10 -4 16 -1 16 7 0 8 -6 16 -12 19 -10 3 -10 7 1 20 7 9
11 24 7 32 -3 9 4 29 15 45 12 15 18 33 15 39 -4 6 -2 11 3 11 6 0 11 -5 11
-11 0 -7 10 -9 26 -5 15 4 32 2 40 -5 11 -9 14 -9 14 1 0 8 8 4 19 -8 10 -12
23 -22 30 -22 12 0 15 26 4 32 -13 5 -73 86 -73 97 0 6 -6 10 -12 9 -7 -2 -13
4 -13 12 0 8 -4 18 -10 22 -5 4 1 8 16 8 14 0 30 -5 37 -12z m2798 -67 c-4 -5
0 -11 6 -14 10 -3 5 -22 -17 -68 -16 -35 -35 -71 -42 -79 -11 -12 -13 -8 -13
28 0 31 5 44 19 52 18 9 29 29 36 69 5 22 4 21 11 21 3 0 3 -4 0 -9z m363 -5
c14 -17 0 -29 -23 -20 -10 4 -16 1 -16 -7 0 -11 -2 -11 -9 0 -7 10 -4 19 7 28
22 16 27 16 41 -1z m39 -5 c3 -8 -1 -12 -9 -9 -7 2 -15 10 -17 17 -3 8 1 12 9
9 7 -2 15 -10 17 -17z m-308 -40 c0 -11 6 -22 13 -24 6 -3 2 -6 -10 -6 -22 -1
-33 15 -25 37 7 19 22 14 22 -7z m-2940 -1 c0 -5 -5 -10 -11 -10 -5 0 -7 5 -4
10 3 6 8 10 11 10 2 0 4 -4 4 -10z m3707 -30 c-1 -11 -5 -20 -10 -20 -5 0 -6
7 -3 16 4 10 -1 22 -11 31 -16 13 -16 13 4 4 13 -7 21 -19 20 -31z m63 20 c13
-8 13 -10 -2 -10 -9 0 -20 5 -23 10 -8 13 5 13 25 0z m20 -40 c0 -5 -2 -10 -4
-10 -3 0 -8 5 -11 10 -3 6 -1 10 4 10 6 0 11 -4 11 -10z m-29 -23 c-13 -13
-26 -3 -16 12 3 6 11 8 17 5 6 -4 6 -10 -1 -17z m-3551 -17 c0 -5 -2 -10 -4
-10 -3 0 -8 5 -11 10 -3 6 -1 10 4 10 6 0 11 -4 11 -10z m2508 -23 c2 -10 -3
-17 -11 -17 -16 0 -30 24 -19 34 10 10 27 1 30 -17z m792 -32 c-7 -8 -17 -12
-23 -8 -6 4 -3 9 9 14 27 11 28 11 14 -6z m-800 -5 c0 -5 -4 -10 -10 -10 -5 0
-10 5 -10 10 0 6 5 10 10 10 6 0 10 -4 10 -10z m1040 -11 c0 -6 -4 -7 -10 -4
-5 3 -10 11 -10 16 0 6 5 7 10 4 6 -3 10 -11 10 -16z m-1020 -14 c0 -14 -4
-25 -10 -25 -11 0 -14 33 -3 43 11 11 13 8 13 -18z m-43 -17 c-3 -8 -6 -5 -6
6 -1 11 2 17 5 13 3 -3 4 -12 1 -19z m1097 -4 c8 -20 7 -21 -18 -26 -10 -1
-21 3 -24 11 -3 9 2 11 19 7 13 -3 18 -3 12 0 -15 7 -17 24 -4 24 5 0 12 -7
15 -16z m111 -2 c4 -10 0 -12 -11 -8 -8 3 -20 6 -25 6 -5 0 -9 4 -9 8 0 14 39
8 45 -6z m142 -94 c1 -61 8 -137 14 -167 12 -61 13 -172 1 -180 -4 -4 -7 -31
-7 -60 0 -35 -6 -62 -16 -74 -14 -18 -14 -11 -6 74 8 85 7 94 -10 107 -16 12
-16 14 -2 22 11 7 17 24 17 55 1 29 -2 43 -9 39 -6 -3 -8 -12 -5 -20 3 -8 1
-14 -5 -14 -7 0 -9 10 -5 25 3 13 6 81 7 150 0 70 3 133 6 141 13 33 18 7 20
-98z m-3836 69 c-13 -13 -26 -3 -16 12 3 6 11 8 17 5 6 -4 6 -10 -1 -17z
m3559 -21 c0 -11 -19 -15 -25 -6 -3 5 1 10 9 10 9 0 16 -2 16 -4z m435 -146
c-14 -58 -27 -116 -31 -130 -3 -14 -9 -29 -15 -35 -5 -5 -9 -17 -9 -27 0 -10
-4 -26 -10 -36 -9 -16 -51 -154 -70 -228 -4 -18 -11 -37 -14 -43 -12 -18 -26
-2 -25 27 1 15 0 34 -2 42 -2 9 2 15 13 14 12 -1 19 10 25 40 4 22 8 47 8 54
0 7 5 16 11 20 6 4 10 24 10 45 0 23 6 42 15 48 12 8 12 10 -1 20 -12 9 -10
10 8 6 13 -3 21 -3 18 0 -3 3 2 19 11 36 11 22 12 32 4 35 -17 6 -13 24 14 76
14 26 23 51 20 56 -3 5 -1 11 3 14 5 3 8 15 7 28 -3 30 14 63 26 51 5 -5 -2
-53 -16 -113z m2071 48 c-3 -17 0 -33 9 -42 10 -9 11 -17 5 -21 -5 -3 -10 -1
-10 6 0 7 -11 10 -28 7 -25 -4 -28 -1 -28 24 0 15 3 28 8 28 4 0 8 -5 8 -11 0
-5 5 -7 11 -3 6 4 8 21 5 43 -6 34 -6 35 9 16 10 -12 14 -30 11 -47z m-6080
-45 c-10 -10 -19 5 -10 18 6 11 8 11 12 0 2 -7 1 -15 -2 -18z m6049 -33 c-3
-5 -11 -10 -16 -10 -6 0 -7 5 -4 10 3 6 11 10 16 10 6 0 7 -4 4 -10z m42 -30
c4 -13 3 -13 -7 0 -9 12 -11 9 -8 -17 3 -18 1 -30 -4 -27 -4 3 -8 -2 -8 -10 0
-8 -4 -17 -9 -20 -9 -6 -7 29 4 57 6 14 4 16 -11 10 -16 -6 -17 -5 -4 10 18
20 42 18 47 -3z m-2367 -124 c0 -3 -4 -8 -10 -11 -5 -3 -10 -1 -10 4 0 6 5 11
10 11 6 0 10 -2 10 -4z m-28 -128 c-9 -9 -12 -7 -12 12 0 19 3 21 12 12 9 -9
9 -15 0 -24z m145 -260 c-8 -24 -12 -28 -15 -15 -5 23 4 47 17 47 6 0 5 -13
-2 -32z m-367 -138 c13 -8 13 -11 1 -22 -10 -10 -12 -10 -7 0 4 7 1 12 -8 12
-9 0 -16 5 -16 10 0 12 11 13 30 0z m-3050 -29 c0 -17 -4 -33 -10 -36 -5 -3
-10 2 -10 12 0 15 -2 16 -10 3 -8 -13 -10 -12 -10 3 0 18 19 46 33 47 4 0 7
-13 7 -29z m2950 -91 c0 -5 -4 -10 -10 -10 -5 0 -10 5 -10 10 0 6 5 10 10 10
6 0 10 -4 10 -10z m-2769 -103 c-29 -29 -37 -15 -9 16 13 14 25 21 27 15 2 -5
-6 -19 -18 -31z m2215 7 c19 -15 19 -15 -1 -6 -11 5 -27 12 -35 15 -13 5 -13
6 1 6 8 1 24 -6 35 -15z m-2129 -106 c0 -7 -11 -24 -24 -38 l-24 -25 21 38
c24 41 27 43 27 25z m145 -30 c-7 -7 -12 -8 -12 -2 0 14 12 26 19 19 2 -3 -1
-11 -7 -17z m14 -54 c-3 -9 -6 -18 -6 -20 0 -2 -6 -4 -14 -4 -7 0 -16 -9 -19
-20 -3 -11 -12 -20 -21 -20 -22 0 -21 4 15 45 32 36 56 47 45 19z m1624 -84
c0 -5 -4 -10 -10 -10 -5 0 -10 5 -10 10 0 6 5 10 10 10 6 0 10 -4 10 -10z
m-172 -55 c-3 -3 -9 2 -12 12 -6 14 -5 15 5 6 7 -7 10 -15 7 -18z m31 -67
c-13 -25 -20 -23 -15 5 3 12 5 27 5 32 1 6 5 3 10 -4 6 -9 6 -22 0 -33z m-89
-4 c0 -27 -18 -23 -22 6 -4 24 -2 27 9 19 7 -7 13 -17 13 -25z m-1283 -16 c-3
-8 -6 -5 -6 6 -1 11 2 17 5 13 3 -3 4 -12 1 -19z m136 -10 c-6 -30 -23 -39
-23 -13 0 13 21 46 27 41 1 0 -1 -13 -4 -28z m1182 -17 c3 -5 2 -12 -3 -15 -5
-3 -9 1 -9 9 0 17 3 19 12 6z m-1206 -78 l-11 -28 -11 23 c-8 18 -8 25 2 32 9
5 10 9 2 14 -6 4 -9 12 -5 17 3 6 12 2 20 -10 11 -15 12 -26 3 -48z m1357 40
c-10 -10 -19 5 -10 18 6 11 8 11 12 0 2 -7 1 -15 -2 -18z m-175 -40 c-10 -17
-10 -16 -11 3 0 23 13 41 18 25 2 -6 -1 -18 -7 -28z m-1117 1 c3 -8 2 -12 -4
-9 -6 3 -10 10 -10 16 0 14 7 11 14 -7z m642 -27 c1 -9 -2 -17 -7 -17 -5 0 -9
2 -9 4 0 2 -3 12 -7 22 -4 11 -2 15 7 12 7 -2 14 -12 16 -21z m-87 -8 c-12 -8
-12 -10 -1 -18 8 -4 14 -12 15 -17 1 -5 5 -8 10 -6 4 1 7 -2 7 -6 0 -14 -59
-10 -64 5 -3 7 -1 13 5 13 6 0 7 5 4 10 -9 14 14 42 27 34 6 -4 5 -10 -3 -15z
m-419 -23 c-6 -8 -18 -12 -26 -9 -23 9 -16 23 12 23 22 0 24 -2 14 -14z m760
-5 c12 -24 13 -41 2 -41 -8 0 -32 43 -32 55 0 13 21 3 30 -14z m-130 -42 c0
-11 -4 -18 -10 -14 -5 3 -7 12 -3 20 7 21 13 19 13 -6z m397 -14 c-4 -8 -11
-15 -17 -15 -7 0 -7 6 0 21 13 23 26 19 17 -6z m-241 -8 c-3 -20 -35 -67 -45
-67 -5 0 0 18 12 40 22 40 37 52 33 27z m3749 -9 c44 -5 85 -11 92 -11 7 0 10
-4 7 -9 -3 -5 -9 -6 -14 -3 -5 3 -32 7 -62 10 -91 8 -191 25 -198 32 -3 3 18
3 45 -1 28 -4 86 -12 130 -18z m-4255 2 c0 -5 -5 -10 -11 -10 -5 0 -7 5 -4 10
3 6 8 10 11 10 2 0 4 -4 4 -10z m577 -42 c-3 -7 -5 -2 -5 12 0 14 2 19 5 13 2
-7 2 -19 0 -25z m3829 14 c-10 -2 -22 0 -28 6 -6 6 0 7 19 4 21 -5 23 -7 9
-10z m44 -2 c0 -5 -2 -10 -4 -10 -3 0 -8 5 -11 10 -3 6 -1 10 4 10 6 0 11 -4
11 -10z m-4468 -32 c-7 -7 -12 -8 -12 -2 0 6 3 14 7 17 3 4 9 5 12 2 2 -3 -1
-11 -7 -17z m4427 -14 c2 -2 -10 -4 -27 -4 -18 0 -32 5 -32 10 0 9 47 4 59 -6z
m61 -3 c0 -4 -11 -6 -25 -3 -14 2 -25 6 -25 8 0 2 11 4 25 4 14 0 25 -4 25 -9z
m-4710 -9 c0 -5 -9 -17 -20 -27 -23 -21 -26 -14 -8 15 13 20 28 27 28 12z
m4823 1 c-7 -2 -21 -2 -30 0 -10 3 -4 5 12 5 17 0 24 -2 18 -5z m-4957 -30
c-3 -22 -26 -30 -26 -9 0 9 5 16 11 16 5 0 7 5 3 12 -4 6 -3 8 4 5 5 -4 9 -15
8 -24z m1579 -24 c-5 -20 -10 -27 -15 -19 -4 6 -2 22 4 35 14 31 20 24 11 -16z
m-1115 27 c0 -2 -9 -6 -20 -9 -11 -3 -20 -1 -20 4 0 5 9 9 20 9 11 0 20 -2 20
-4z m357 -33 c-3 -10 -5 -4 -5 12 0 17 2 24 5 18 2 -7 2 -21 0 -30z m725 -32
c-54 -38 -57 -42 -42 -52 13 -9 12 -10 -2 -5 -10 3 -20 0 -24 -5 -3 -6 -15 -9
-25 -6 -20 5 -43 -15 -31 -28 4 -5 1 -5 -5 -1 -8 4 -13 2 -13 -7 0 -10 -8 -13
-25 -9 -22 4 -25 1 -25 -22 0 -17 -5 -26 -16 -26 -11 0 -14 -5 -9 -17 4 -12 3
-14 -3 -8 -6 6 -12 19 -14 29 -3 18 -57 43 -59 28 0 -4 -2 -15 -4 -24 -2 -10
1 -18 6 -18 6 0 7 -5 4 -10 -4 -6 -10 -8 -15 -5 -15 9 -17 -19 -4 -50 7 -17
11 -51 9 -75 -4 -62 -4 -60 -13 -60 -5 0 -7 26 -5 58 1 31 0 51 -3 45 -10 -22
-20 -14 -19 15 0 20 -4 26 -17 24 -9 -1 -19 2 -22 7 -4 6 -18 6 -35 1 -16 -4
-32 -6 -35 -3 -3 3 -3 -7 -1 -23 l4 -29 -12 25 c-7 14 -20 26 -31 28 -15 3
-17 -1 -12 -22 5 -20 3 -24 -9 -20 -8 4 -15 12 -15 20 0 8 -9 14 -20 14 -11 0
-20 -7 -20 -16 0 -8 4 -12 10 -9 6 3 7 -1 4 -9 -3 -9 -10 -16 -14 -16 -5 0
-12 -9 -15 -20 -3 -11 -13 -20 -21 -20 -41 0 -81 -89 -52 -118 15 -15 4 -27
-16 -19 -10 4 -13 13 -9 23 5 13 3 16 -10 11 -15 -6 -16 -3 -7 13 6 11 7 20 2
20 -14 0 -34 -28 -28 -38 3 -5 -3 -17 -13 -26 -16 -15 -19 -15 -24 -1 -4 9 -1
15 8 15 8 0 15 5 15 10 0 6 -7 10 -15 10 -13 0 -14 4 -5 21 7 11 9 24 5 27 -8
8 -25 -18 -25 -40 0 -10 -5 -18 -12 -18 -6 0 -19 -6 -27 -14 -14 -12 -18 -12
-31 2 -13 14 -12 15 3 9 9 -3 17 -2 17 3 0 6 -7 10 -16 10 -13 0 -11 5 7 21
l24 20 -27 -5 c-39 -9 -35 10 7 30 49 23 55 37 11 29 -39 -8 -52 9 -16 20 11
3 20 11 20 17 0 6 7 20 17 30 22 24 2 23 -29 -2 -14 -10 -28 -17 -31 -14 -3 3
-4 -2 -3 -12 0 -9 -5 -19 -13 -22 -10 -3 -12 0 -8 12 7 19 3 20 -24 6 -15 -8
-19 -7 -19 5 0 8 4 15 9 15 12 0 41 29 41 41 0 5 -12 7 -26 5 -25 -5 -26 -5
-9 14 18 20 8 29 -10 11 -6 -5 -20 -12 -32 -16 -36 -10 -28 19 11 46 19 13 32
27 29 32 -2 4 -10 4 -16 -1 -7 -6 -25 -10 -41 -10 -27 0 -28 2 -12 13 13 10
14 14 4 18 -13 5 15 11 39 8 8 -1 10 5 6 15 -4 11 -2 15 4 11 6 -4 17 0 24 9
11 13 9 14 -14 9 -21 -6 -26 -4 -22 7 3 7 15 18 28 23 15 7 21 18 19 34 -2 19
0 21 11 12 8 -6 17 -8 20 -4 4 3 7 -1 7 -9 0 -9 7 -21 15 -28 9 -8 13 -21 10
-34 -5 -19 -5 -19 5 -3 6 9 8 22 5 27 -3 6 1 10 10 10 8 0 20 10 25 23 5 12 9
16 9 9 1 -8 15 -12 39 -12 34 0 205 -6 260 -9 12 0 22 -7 22 -16 0 -20 17 -19
29 3 7 12 21 17 55 16 32 0 43 3 36 10 -6 8 7 12 46 12 42 1 54 -2 50 -12 -4
-11 -2 -11 15 -1 16 10 21 9 29 -3 9 -13 10 -13 11 0 0 10 3 8 9 -5 7 -19 8
-19 15 -2 6 15 10 16 16 5 7 -10 11 -7 15 10 4 15 14 22 30 22 33 0 30 -1 61
15 26 14 28 13 36 -7 4 -12 4 -24 -1 -27z m-165 -223 c-3 -8 -6 -5 -6 6 -1 11
2 17 5 13 3 -3 4 -12 1 -19z m493 -18 c0 -5 -9 -10 -19 -10 -11 0 -23 5 -26
10 -4 6 5 10 19 10 14 0 26 -4 26 -10z m-505 -20 c3 -5 2 -10 -4 -10 -5 0 -13
5 -16 10 -3 6 -2 10 4 10 5 0 13 -4 16 -10z m-1195 -35 c0 -2 -6 -8 -13 -14
-10 -8 -14 -7 -14 2 0 8 6 14 14 14 7 0 13 -1 13 -2z m1020 -11 c0 -8 -4 -12
-10 -9 -5 3 -10 10 -10 16 0 5 5 9 10 9 6 0 10 -7 10 -16z m-515 -23 c5 -9
-35 -44 -43 -37 -5 6 21 46 30 46 4 0 9 -4 13 -9z m304 -24 c-10 -23 -13 -24
-27 -11 -8 8 -13 16 -11 17 2 1 13 7 24 13 26 15 28 12 14 -19z m211 -2 c0 -8
-2 -15 -4 -15 -2 0 -12 -3 -21 -6 -15 -6 -15 -4 -4 15 16 25 29 27 29 6z
m-586 -19 c-6 -15 -54 -40 -54 -27 0 9 40 40 52 40 4 1 5 -5 2 -13z m-467 -32
c-19 -19 -27 -22 -27 -12 0 15 41 50 49 42 2 -2 -8 -16 -22 -30z m-933 17 c3
-5 -4 -11 -15 -14 -13 -4 -18 -10 -13 -18 4 -8 3 -10 -4 -5 -9 5 -9 13 -2 27
11 20 25 25 34 10z m1771 -12 c4 -5 1 -24 -6 -41 -11 -26 -14 -28 -19 -13 -13
38 8 83 25 54z m-355 -9 c0 -5 -5 -10 -11 -10 -5 0 -7 5 -4 10 3 6 8 10 11 10
2 0 4 -4 4 -10z m549 -21 c-25 -16 -32 -9 -13 12 12 13 20 16 22 9 3 -7 -2
-16 -9 -21z m-337 -56 c5 -21 -16 -66 -25 -57 -4 4 -13 1 -21 -5 -11 -10 -14
-9 -12 1 1 7 5 18 9 25 4 6 2 13 -5 15 -6 2 -8 10 -4 16 5 8 16 10 28 6 14 -4
18 -2 14 5 -4 6 -3 11 2 11 5 0 12 -8 14 -17z m82 8 c3 -5 -1 -11 -9 -14 -9
-4 -12 -1 -8 9 6 16 10 17 17 5z m3120 -49 c3 -5 -1 -9 -9 -9 -8 0 -12 4 -9 9
3 4 7 8 9 8 2 0 6 -4 9 -8z m-3143 -39 c-12 -20 -14 -14 -5 12 4 9 9 14 11 11
3 -2 0 -13 -6 -23z m3253 15 c-3 -4 -11 -5 -19 -1 -21 7 -19 12 4 10 11 0 18
-5 15 -9z m91 -8 c2 -4 -7 -6 -21 -4 -35 3 -41 12 -9 12 14 0 27 -4 30 -8z
m-2209 -48 c-12 -11 -18 7 -10 30 l8 23 4 -23 c2 -13 1 -26 -2 -30z m2292 41
c-10 -2 -26 -2 -35 0 -10 3 -2 5 17 5 19 0 27 -2 18 -5z m105 0 c-13 -2 -35
-2 -50 0 -16 2 -5 4 22 4 28 0 40 -2 28 -4z m177 3 c0 -9 -30 -14 -35 -6 -4 6
3 10 14 10 12 0 21 -2 21 -4z m-5330 -21 c10 -13 9 -15 -11 -14 -13 0 -18 3
-11 6 6 2 10 9 6 14 -9 15 2 10 16 -6z m1424 0 c-8 -19 -43 -39 -52 -30 -7 7
34 45 49 45 5 0 6 -7 3 -15z m236 -54 c0 -12 -20 -25 -27 -18 -7 7 6 27 18 27
5 0 9 -4 9 -9z m337 -13 c-3 -8 -6 -5 -6 6 -1 11 2 17 5 13 3 -3 4 -12 1 -19z
m-419 0 c-2 -6 -10 -14 -16 -16 -7 -2 -10 2 -6 12 7 18 28 22 22 4z m-108 -8
c0 -5 -5 -10 -11 -10 -5 0 -7 5 -4 10 3 6 8 10 11 10 2 0 4 -4 4 -10z m64 -62
c-24 -27 -94 -78 -107 -78 -5 0 19 27 54 59 35 32 66 55 68 49 1 -5 -5 -19
-15 -30z m343 36 c-3 -3 -12 -4 -19 -1 -8 3 -5 6 6 6 11 1 17 -2 13 -5z
m-2232 -24 c-3 -5 -11 -10 -16 -10 -6 0 -7 5 -4 10 3 6 11 10 16 10 6 0 7 -4
4 -10z m442 4 c-3 -3 -12 -4 -19 -1 -8 3 -5 6 6 6 11 1 17 -2 13 -5z m806 -29
c-3 -9 -8 -14 -10 -11 -3 3 -2 9 2 15 9 16 15 13 8 -4z m219 -12 c-6 -3 -9
-10 -6 -15 4 -7 2 -8 -5 -4 -9 6 -9 11 0 22 6 8 15 12 18 8 3 -4 0 -9 -7 -11z
m4110 1 c-12 -8 -19 -9 -23 -2 -4 6 -11 8 -17 4 -6 -3 -13 -2 -17 3 -3 6 11 9
34 8 33 -1 37 -3 23 -13z m-3816 -21 c-10 -10 -19 5 -10 18 6 11 8 11 12 0 2
-7 1 -15 -2 -18z m3751 11 c-3 -3 -12 -4 -19 -1 -8 3 -5 6 6 6 11 1 17 -2 13
-5z m-3451 -74 c-9 -22 -16 -51 -16 -65 0 -13 -4 -27 -10 -30 -20 -12 1 96 27
138 14 23 14 -7 -1 -43z m-643 -5 c-13 -25 -29 -48 -34 -51 -21 -12 -18 3 7
39 13 20 21 37 17 37 -9 0 19 20 29 20 4 0 -5 -20 -19 -45z m321 -39 c-3 -8
-13 -17 -22 -21 -13 -5 -13 -2 3 15 21 24 26 25 19 6z m822 -42 c-3 -9 -6 -23
-6 -32 -1 -15 -2 -15 -11 1 -12 21 -5 47 12 47 6 0 8 -7 5 -16z m-819 -19 c0
-8 -4 -12 -9 -9 -5 3 -6 10 -3 15 9 13 12 11 12 -6z m-74 -50 c-31 -57 -47
-67 -27 -18 18 42 32 63 45 63 4 0 -4 -20 -18 -45z m-213 20 c0 -8 -4 -15 -8
-15 -5 0 -9 7 -9 15 0 8 4 15 9 15 4 0 8 -7 8 -15z m22 -30 c-9 -25 -19 -45
-23 -45 -14 0 -18 30 -5 37 7 5 18 18 25 31 19 37 21 25 3 -23z m1419 22 c-10
-9 -11 -8 -5 6 3 10 9 15 12 12 3 -3 0 -11 -7 -18z m-2161 -2 c0 -2 -9 -3 -19
-2 -11 0 -18 5 -15 9 4 6 34 0 34 -7z m1593 -58 c2 -35 -1 -47 -11 -47 -10 0
-12 7 -8 23 3 12 6 35 6 51 0 45 10 25 13 -27z m-1513 13 c0 -5 -4 -10 -10
-10 -5 0 -10 5 -10 10 0 6 5 10 10 10 6 0 10 -4 10 -10z m-1080 -10 c0 -5 -4
-10 -10 -10 -5 0 -10 5 -10 10 0 6 5 10 10 10 6 0 10 -4 10 -10z m2888 -78
c13 -13 21 -26 18 -30 -8 -7 -95 77 -96 92 0 9 23 -10 78 -62z m-918 44 c0 -3
-4 -8 -10 -11 -5 -3 -10 -1 -10 4 0 6 5 11 10 11 6 0 10 -2 10 -4z m1178 -27
c-1 -20 -4 -26 -9 -17 -12 18 -11 48 0 48 5 0 9 -14 9 -31z m-1308 -28 c0 -5
-7 -11 -14 -14 -10 -4 -13 -1 -9 9 6 15 23 19 23 5z m527 -76 c0 -8 -4 -12 -9
-9 -4 3 -8 9 -8 15 0 5 4 9 8 9 5 0 9 -7 9 -15z m443 -265 c0 -5 -5 -10 -11
-10 -5 0 -7 5 -4 10 3 6 8 10 11 10 2 0 4 -4 4 -10z m-260 -60 c-6 -11 -24
-27 -40 -35 -44 -23 -45 5 -1 32 44 28 55 29 41 3z m-790 -21 c0 -6 -4 -7 -10
-4 -5 3 -10 11 -10 16 0 6 5 7 10 4 6 -3 10 -11 10 -16z m240 17 c0 -3 -4 -8
-10 -11 -5 -3 -10 -1 -10 4 0 6 5 11 10 11 6 0 10 -2 10 -4z m457 -22 c0 -9
-5 -10 -17 -4 -10 5 -20 6 -24 3 -3 -3 -6 -2 -6 4 0 6 11 11 23 11 13 0 24 -6
24 -14z m-142 -43 c3 -5 -6 -22 -19 -38 -21 -24 -27 -26 -38 -14 -9 10 -10 12
0 7 6 -4 20 1 29 10 13 13 14 19 5 22 -6 2 -12 8 -12 13 0 12 27 12 35 0z
m-170 -21 c3 -5 -1 -10 -10 -10 -9 0 -13 5 -10 10 3 6 8 10 10 10 2 0 7 -4 10
-10z m67 -12 c-7 -7 -12 -8 -12 -2 0 14 12 26 19 19 2 -3 -1 -11 -7 -17z m253
-177 c3 -5 0 -13 -6 -17 -9 -5 -7 -11 6 -20 15 -11 13 -12 -21 -7 -43 7 -56
13 -36 20 7 3 18 11 25 19 14 16 24 17 32 5z m-88 -17 c-3 -3 -12 -4 -19 -1
-8 3 -5 6 6 6 11 1 17 -2 13 -5z m-77 -54 c0 -5 -4 -10 -10 -10 -5 0 -10 5
-10 10 0 6 5 10 10 10 6 0 10 -4 10 -10z m115 0 c3 -5 -1 -10 -9 -10 -9 0 -16
5 -16 10 0 6 4 10 9 10 6 0 13 -4 16 -10z m3855 -39 c0 -11 -31 -24 -39 -16
-3 3 1 10 9 15 19 12 30 12 30 1z m-74 -19 c-5 -14 -1 -18 16 -18 13 1 22 -4
21 -11 -4 -18 7 -16 28 3 21 19 54 11 45 -11 -4 -12 0 -14 22 -10 23 5 23 4
-7 -10 -41 -18 -41 -18 -41 0 0 17 -2 18 -24 9 -9 -3 -16 -12 -16 -20 0 -17
17 -18 23 -1 3 7 6 5 6 -5 1 -10 7 -18 15 -18 8 0 18 -4 21 -10 3 -5 -12 -3
-35 5 -24 9 -40 10 -40 4 0 -6 -5 -7 -10 -4 -8 5 -7 11 1 21 8 10 9 18 0 27
-6 8 -7 17 -3 21 4 5 -2 6 -13 4 -11 -1 -23 -7 -26 -12 -4 -4 -10 -3 -13 3 -4
6 -2 11 4 11 7 0 9 7 6 16 -3 8 -2 12 4 9 6 -3 10 -1 10 4 0 6 3 11 6 11 3 0
3 -8 0 -18z m134 -12 c0 -5 -4 -10 -10 -10 -5 0 -10 5 -10 10 0 6 5 10 10 10
6 0 10 -4 10 -10z m7 -82 c-3 -7 -5 -2 -5 12 0 14 2 19 5 13 2 -7 2 -19 0 -25z
m-3959 -29 c0 -22 -2 -29 -10 -21 -5 5 -7 19 -3 31 9 29 12 26 13 -10z m182
12 c0 -6 -4 -13 -10 -16 -5 -3 -10 1 -10 9 0 9 5 16 10 16 6 0 10 -4 10 -9z"/>
<path d="M2443 7795 c-8 -9 -9 -16 -3 -20 6 -3 13 1 16 10 9 21 2 26 -13 10z"/>
<path d="M3665 7560 c-3 -6 16 -9 49 -8 78 2 95 18 19 18 -34 0 -65 -4 -68
-10z"/>
<path d="M3578 7503 c7 -3 16 -2 19 1 4 3 -2 6 -13 5 -11 0 -14 -3 -6 -6z"/>
<path d="M3860 7370 c0 -5 5 -10 10 -10 6 0 10 5 10 10 0 6 -4 10 -10 10 -5 0
-10 -4 -10 -10z"/>
<path d="M3817 7363 c-11 -11 -8 -20 9 -27 9 -4 13 -2 8 5 -4 6 0 15 7 20 11
7 11 9 -2 9 -9 0 -19 -3 -22 -7z"/>
<path d="M4106 7141 c-5 -8 0 -18 13 -27 18 -13 19 -19 10 -37 l-12 -22 22 20
c22 19 22 20 3 35 -10 9 -21 22 -24 30 -3 11 -6 11 -12 1z"/>
<path d="M4270 6950 c0 -5 7 -10 16 -10 8 0 12 5 9 10 -3 6 -10 10 -16 10 -5
0 -9 -4 -9 -10z"/>
<path d="M4460 6900 c0 -5 5 -10 10 -10 6 0 10 5 10 10 0 6 -4 10 -10 10 -5 0
-10 -4 -10 -10z"/>
<path d="M3180 7520 c0 -5 5 -10 11 -10 5 0 7 5 4 10 -3 6 -8 10 -11 10 -2 0
-4 -4 -4 -10z"/>
<path d="M3046 7313 c-6 -14 -5 -15 5 -6 7 7 10 15 7 18 -3 3 -9 -2 -12 -12z"/>
<path d="M2089 6863 c-13 -16 -12 -17 4 -4 16 13 21 21 13 21 -2 0 -10 -8 -17
-17z"/>
<path d="M3680 6301 c0 -11 29 -35 35 -29 2 2 -4 12 -15 21 -11 9 -20 13 -20
8z"/>
<path d="M3778 6194 c12 -8 22 -23 23 -32 1 -10 4 -7 8 8 10 33 5 40 -27 40
l-26 0 22 -16z"/>
<path d="M3915 6070 c-3 -5 -1 -10 4 -10 6 0 11 5 11 10 0 6 -2 10 -4 10 -3 0
-8 -4 -11 -10z"/>
<path d="M1007 5543 c-8 -15 -1 -57 11 -61 7 -2 10 -8 7 -13 -4 -5 1 -6 11 -2
14 5 14 7 -4 17 -17 10 -18 13 -5 24 8 8 12 19 10 25 -4 14 -24 20 -30 10z"/>
<path d="M4190 5448 c0 -9 5 -20 10 -23 13 -8 13 5 0 25 -8 13 -10 13 -10 -2z"/>
<path d="M1488 5263 c7 -3 16 -2 19 1 4 3 -2 6 -13 5 -11 0 -14 -3 -6 -6z"/>
<path d="M1035 5250 c-3 -5 -1 -10 4 -10 6 0 11 5 11 10 0 6 -2 10 -4 10 -3 0
-8 -4 -11 -10z"/>
<path d="M1380 5231 c0 -6 7 -8 15 -5 8 4 23 0 32 -7 14 -12 16 -12 11 1 -5
17 -58 27 -58 11z"/>
<path d="M1315 5212 c-16 -12 -16 -32 0 -32 8 0 15 -4 15 -8 0 -5 6 -9 13 -9
6 0 20 -4 30 -8 13 -6 16 -3 11 9 -3 9 -17 16 -31 16 -16 0 -22 4 -17 12 5 7
3 8 -6 3 -10 -6 -12 -4 -7 8 7 19 6 20 -8 9z"/>
<path d="M1821 5144 c0 -11 3 -14 6 -6 3 7 2 16 -1 19 -3 4 -6 -2 -5 -13z"/>
<path d="M960 5040 c0 -5 5 -10 10 -10 6 0 10 5 10 10 0 6 -4 10 -10 10 -5 0
-10 -4 -10 -10z"/>
<path d="M4287 4983 c-4 -3 -7 -18 -6 -32 1 -26 1 -25 10 3 9 31 7 41 -4 29z"/>
<path d="M1720 4760 c-14 -4 -38 -9 -55 -9 -31 -2 -73 -26 -63 -36 3 -4 33 1
66 9 64 17 214 20 247 6 11 -5 16 -9 11 -9 -12 -1 14 -31 28 -31 6 0 4 5 -4
10 -23 15 -2 12 28 -4 15 -8 47 -22 72 -32 25 -10 52 -23 60 -30 46 -36 123
-85 127 -81 9 10 -20 43 -80 90 -55 44 -157 104 -157 93 0 -3 -19 2 -42 10
-50 17 -202 27 -238 14z"/>
<path d="M1110 4721 c-8 -6 -19 -7 -25 -4 -5 4 -7 3 -3 -2 4 -4 0 -14 -10 -22
-16 -13 -15 -13 3 -4 23 11 62 40 55 41 -3 0 -12 -4 -20 -9z"/>
<path d="M1579 4718 c-1 -7 -1 -16 -1 -19 1 -3 -12 -6 -28 -6 -16 0 -27 4 -24
9 3 4 0 8 -5 8 -6 0 -11 -7 -11 -15 0 -8 -4 -15 -10 -15 -5 0 -10 7 -10 15 0
8 -5 15 -11 15 -5 0 -7 -4 -4 -10 3 -5 1 -10 -5 -10 -6 0 -9 -4 -6 -9 4 -5 1
-11 -5 -13 -7 -2 6 -5 27 -5 51 -2 104 22 104 47 0 22 -9 28 -11 8z"/>
<path d="M3897 4634 c-9 -10 2 -24 18 -24 9 0 12 6 9 15 -6 16 -17 19 -27 9z"/>
<path d="M1765 4620 c-38 -5 -90 -15 -114 -24 -62 -23 -204 -127 -191 -140 15
-15 12 -24 -11 -31 -15 -5 -18 -10 -11 -17 8 -8 6 -15 -4 -26 -21 -20 -13 -24
25 -11 17 6 38 8 46 5 23 -8 30 -6 27 9 -1 7 2 16 8 20 5 3 10 13 10 22 0 18
89 103 108 103 7 0 24 7 37 16 14 9 25 13 25 9 0 -4 7 -1 17 6 18 16 276 22
267 7 -3 -4 1 -8 9 -8 8 0 26 -9 40 -20 14 -11 31 -20 39 -20 8 0 24 -9 36
-21 22 -20 42 -18 42 3 0 6 -3 9 -6 5 -3 -3 -17 7 -30 22 -13 16 -36 32 -51
36 -16 3 -35 13 -44 21 -9 8 -38 17 -65 20 -26 2 -64 9 -83 14 -20 5 -40 9
-46 9 -5 -1 -41 -5 -80 -9z"/>
<path d="M3998 4623 c7 -3 16 -2 19 1 4 3 -2 6 -13 5 -11 0 -14 -3 -6 -6z"/>
<path d="M1806 4544 c-22 -8 -48 -22 -59 -32 -29 -26 -57 -87 -57 -124 0 -66
76 -151 147 -164 104 -19 203 67 203 177 0 23 -29 79 -54 104 -41 42 -124 60
-180 39z m20 -60 c-3 -8 -1 -14 4 -14 5 0 10 7 12 15 2 11 10 9 36 -11 42 -33
41 -42 -5 -38 -21 2 -48 3 -61 3 -30 1 -39 28 -16 50 21 20 38 17 30 -5z m-21
-93 c-3 -6 -11 -11 -17 -11 -6 0 -6 6 2 15 14 17 26 13 15 -4z m201 -10 c-4
-5 -1 -11 5 -13 7 -2 5 -9 -5 -17 -13 -11 -17 -11 -22 4 -4 10 -1 21 7 26 18
11 22 11 15 0z m-38 -68 c-10 -2 -18 -11 -18 -19 0 -8 -5 -14 -10 -14 -7 0 -7
6 0 20 6 11 18 19 28 19 16 -1 16 -2 0 -6z"/>
<path d="M2244 4395 c8 -8 17 -15 20 -15 3 0 3 7 0 15 -4 8 -13 15 -21 15 -12
0 -12 -2 1 -15z"/>
<path d="M3920 4046 c0 -2 7 -7 16 -10 8 -3 12 -2 9 4 -6 10 -25 14 -25 6z"/>
<path d="M3390 4020 c0 -5 5 -10 11 -10 5 0 7 5 4 10 -3 6 -8 10 -11 10 -2 0
-4 -4 -4 -10z"/>
<path d="M4240 4000 c0 -5 5 -10 11 -10 5 0 7 5 4 10 -3 6 -8 10 -11 10 -2 0
-4 -4 -4 -10z"/>
<path d="M745 3990 c3 -5 8 -10 11 -10 2 0 4 5 4 10 0 6 -5 10 -11 10 -5 0 -7
-4 -4 -10z"/>
<path d="M3788 3986 c-26 -19 -22 -26 15 -26 25 0 29 -3 17 -11 -11 -8 -9 -9
10 -4 37 10 43 20 25 39 -20 19 -44 20 -67 2z"/>
<path d="M3700 3970 c0 -5 4 -10 9 -10 6 0 13 5 16 10 3 6 -1 10 -9 10 -9 0
-16 -4 -16 -10z"/>
<path d="M3108 3936 c-24 -18 -23 -29 2 -16 20 11 30 -3 10 -15 -19 -12 -10
-26 11 -20 13 5 19 3 15 -3 -6 -10 21 -38 29 -30 5 5 -37 98 -45 97 -3 0 -13
-6 -22 -13z"/>
<path d="M3525 3850 c-3 -6 1 -7 9 -4 18 7 21 14 7 14 -6 0 -13 -4 -16 -10z"/>
<path d="M3195 3840 c3 -5 8 -10 11 -10 2 0 4 5 4 10 0 6 -5 10 -11 10 -5 0
-7 -4 -4 -10z"/>
<path d="M4300 3843 c0 -7 4 -14 9 -17 4 -3 7 -18 5 -33 l-4 -28 11 28 c9 24
8 32 -5 45 -9 10 -16 12 -16 5z"/>
<path d="M4230 3540 c0 -5 5 -10 10 -10 6 0 10 5 10 10 0 6 -4 10 -10 10 -5 0
-10 -4 -10 -10z"/>
<path d="M4230 3469 c0 -5 5 -7 10 -4 6 3 10 8 10 11 0 2 -4 4 -10 4 -5 0 -10
-5 -10 -11z"/>
<path d="M3255 3420 c-3 -5 -1 -10 4 -10 6 0 11 5 11 10 0 6 -2 10 -4 10 -3 0
-8 -4 -11 -10z"/>
<path d="M4045 3210 c3 -5 8 -10 11 -10 2 0 4 5 4 10 0 6 -5 10 -11 10 -5 0
-7 -4 -4 -10z"/>
<path d="M1146 3129 c-3 -17 -6 -35 -6 -40 0 -15 67 -3 85 14 16 16 15 17 -16
15 -21 -2 -34 2 -35 10 -1 6 -2 17 -3 22 -3 22 -19 8 -25 -21z"/>
<path d="M3244 3065 c3 -21 16 -31 16 -12 0 9 -4 18 -9 21 -5 4 -8 -1 -7 -9z"/>
<path d="M3280 3070 c-9 -6 -10 -10 -3 -10 6 0 15 5 18 10 8 12 4 12 -15 0z"/>
<path d="M1165 3060 c-3 -5 -1 -10 4 -10 6 0 11 5 11 10 0 6 -2 10 -4 10 -3 0
-8 -4 -11 -10z"/>
<path d="M1463 3028 c-19 -39 -21 -54 -13 -68 6 -10 10 -8 14 11 2 13 7 36 11
52 7 33 2 35 -12 5z"/>
<path d="M1357 3011 c-4 -17 -3 -21 5 -13 5 5 8 16 6 23 -3 8 -7 3 -11 -10z"/>
<path d="M3235 3020 c-3 -5 -12 -7 -19 -4 -7 3 -16 -2 -20 -11 -3 -9 -2 -14 3
-10 5 3 11 1 13 -4 1 -5 11 2 21 15 10 13 16 24 13 24 -3 0 -7 -4 -11 -10z"/>
<path d="M2531 3001 c-8 -5 -11 -16 -6 -30 3 -12 10 -19 15 -16 4 3 11 -2 14
-11 4 -10 14 -14 25 -11 11 2 24 -3 32 -14 9 -13 17 -15 25 -8 8 6 14 4 18 -7
4 -9 9 -14 13 -11 3 4 19 -3 34 -14 16 -11 29 -17 29 -14 0 4 12 0 26 -10 19
-12 29 -14 34 -6 5 9 14 9 34 1 50 -19 24 13 -40 48 -178 98 -228 118 -253
103z"/>
<path d="M3173 2969 c-2 -23 3 -25 10 -4 4 8 3 16 -1 19 -4 3 -9 -4 -9 -15z"/>
<path d="M3137 2922 c-18 -20 -22 -32 -9 -32 4 0 12 11 19 25 13 30 12 31 -10
7z"/>
<path d="M1560 2892 c0 -4 9 -8 20 -9 11 -1 18 2 15 8 -7 11 -35 12 -35 1z"/>
<path d="M3096 2877 c3 -10 9 -15 12 -12 3 3 0 11 -7 18 -10 9 -11 8 -5 -6z"/>
<path d="M3875 2879 c-4 -6 -5 -12 -2 -15 2 -3 7 2 10 11 7 17 1 20 -8 4z"/>
<path d="M3660 2860 c0 -5 5 -10 10 -10 6 0 10 5 10 10 0 6 -4 10 -10 10 -5 0
-10 -4 -10 -10z"/>
<path d="M3720 2861 c0 -5 7 -12 16 -15 14 -5 15 -4 4 9 -14 17 -20 19 -20 6z"/>
<path d="M1385 2830 c-3 -5 -1 -10 4 -10 6 0 11 5 11 10 0 6 -2 10 -4 10 -3 0
-8 -4 -11 -10z"/>
<path d="M1636 2824 c-4 -9 -4 -19 -1 -22 2 -3 7 3 11 12 4 9 4 19 1 22 -2 3
-7 -3 -11 -12z"/>
<path d="M1566 2814 c-11 -8 -16 -14 -10 -14 13 0 39 18 34 24 -3 2 -14 -2
-24 -10z"/>
<path d="M1725 2729 c-4 -6 -5 -12 -2 -15 2 -3 7 2 10 11 7 17 1 20 -8 4z"/>
<path d="M2589 2658 c0 -7 -2 -21 -4 -30 -2 -10 2 -21 8 -25 7 -3 9 -3 5 1 -4
5 -3 19 2 32 6 14 6 26 0 29 -6 4 -10 0 -11 -7z"/>
<path d="M2605 2560 c3 -5 10 -10 16 -10 5 0 9 5 9 10 0 6 -7 10 -16 10 -8 0
-12 -4 -9 -10z"/>
<path d="M2615 2450 c-3 -5 1 -10 10 -10 9 0 13 5 10 10 -3 6 -8 10 -10 10 -2
0 -7 -4 -10 -10z"/>
<path d="M5444 5985 c-4 -8 -1 -21 4 -28 13 -15 19 -88 8 -105 -4 -7 -2 -12 3
-12 6 0 11 7 11 16 0 13 8 14 48 8 71 -10 125 -28 130 -42 2 -7 -2 -10 -11 -6
-18 7 -32 -12 -16 -22 8 -4 9 -3 5 4 -4 7 -2 12 3 12 6 0 11 -5 11 -12 0 -6 3
-8 7 -5 3 4 13 1 21 -6 13 -10 14 -9 7 3 -22 36 -27 112 -7 126 12 9 12 13 2
19 -9 5 -11 4 -6 -3 7 -11 -8 -17 -29 -12 -5 1 -44 9 -85 17 -72 14 -100 26
-100 43 0 5 8 11 18 13 16 4 16 5 -1 6 -10 0 -20 -6 -23 -14z"/>
<path d="M5580 5960 c0 -5 5 -10 10 -10 6 0 10 5 10 10 0 6 -4 10 -10 10 -5 0
-10 -4 -10 -10z"/>
<path d="M5443 5814 c0 -8 4 -14 9 -14 4 0 8 -13 8 -29 0 -17 4 -32 9 -35 17
-11 173 -37 180 -31 7 8 9 74 1 72 -8 -2 -163 33 -186 42 -15 7 -21 5 -21 -5z"/>
<path d="M5444 5720 c0 -13 4 -16 10 -10 7 7 7 13 0 20 -6 6 -10 3 -10 -10z"/>
<path d="M5618 5673 c7 -3 16 -2 19 1 4 3 -2 6 -13 5 -11 0 -14 -3 -6 -6z"/>
<path d="M3975 4400 c-3 -5 -1 -10 4 -10 6 0 11 5 11 10 0 6 -2 10 -4 10 -3 0
-8 -4 -11 -10z"/>
<path d="M298 3810 c2 -16 6 -30 8 -30 2 0 4 14 4 30 0 17 -4 30 -8 30 -5 0
-7 -13 -4 -30z"/>
<path d="M301 3744 c0 -11 3 -14 6 -6 3 7 2 16 -1 19 -3 4 -6 -2 -5 -13z"/>
<path d="M305 3680 c3 -5 8 -10 11 -10 2 0 4 5 4 10 0 6 -5 10 -11 10 -5 0 -7
-4 -4 -10z"/>
<path d="M3066 2081 c-17 -6 -17 -8 -4 -14 10 -3 19 0 22 9 3 8 4 14 3 13 -1
0 -11 -4 -21 -8z"/>
<path d="M2625 2000 c-3 -6 1 -7 9 -4 18 7 21 14 7 14 -6 0 -13 -4 -16 -10z"/>
<path d="M2547 1993 c-10 -9 -9 -23 2 -23 5 0 11 7 15 15 5 15 -5 20 -17 8z"/>
<path d="M2450 1980 c-8 -5 -11 -12 -7 -16 4 -4 13 -2 19 4 15 15 7 24 -12 12z"/>
<path d="M2589 1988 c-10 -35 0 -43 30 -24 11 7 11 10 0 17 -14 8 -28 12 -30
7z"/>
<path d="M2651 1847 c-8 -11 -5 -19 14 -37 27 -25 35 -19 10 7 -12 12 -13 18
-4 29 7 8 7 14 1 14 -5 0 -15 -6 -21 -13z"/>
<path d="M2567 1824 c-3 -3 -3 -13 1 -22 5 -15 4 -15 -11 -3 -9 7 -17 9 -17 3
0 -19 28 -21 44 -3 19 21 3 45 -17 25z"/>
<path d="M2747 1816 c-4 -10 -5 -21 -2 -24 9 -9 17 6 13 25 -3 17 -4 17 -11
-1z"/>
<path d="M8155 7820 c-13 -6 -15 -9 -5 -9 8 0 22 4 30 9 18 12 2 12 -25 0z"/>
<path d="M1461 7444 c0 -11 3 -14 6 -6 3 7 2 16 -1 19 -3 4 -6 -2 -5 -13z"/>
<path d="M3 7042 c2 -203 3 -216 19 -203 9 8 15 18 12 23 -9 14 14 43 33 43
10 0 17 6 15 13 -1 7 8 16 21 21 12 5 29 17 37 26 8 9 25 21 39 27 20 7 22 11
11 18 -12 8 -12 10 3 16 9 3 24 3 32 0 10 -3 15 -1 13 7 -2 7 -1 12 2 12 3 0
19 12 35 27 16 15 32 25 37 22 4 -3 8 0 8 7 0 7 3 10 6 7 3 -3 20 8 38 26 17
18 38 31 46 29 13 -4 13 -3 0 5 -15 10 -370 92 -396 92 -10 0 -12 -47 -11
-218z"/>
<path d="M7196 6735 c4 -8 10 -15 15 -15 5 0 9 7 9 15 0 8 -7 15 -15 15 -9 0
-12 -6 -9 -15z"/>
<path d="M7135 6720 c3 -5 15 -10 26 -10 11 0 17 5 14 10 -3 6 -15 10 -26 10
-11 0 -17 -4 -14 -10z"/>
<path d="M7038 6709 c-2 -6 -20 -11 -40 -12 -36 -2 -36 -3 -23 -24 10 -15 11
-24 4 -29 -7 -4 -8 -9 0 -17 12 -12 44 10 35 25 -3 5 3 12 15 15 12 3 21 10
21 15 0 5 -6 6 -12 2 -10 -5 -10 -4 -2 5 7 8 18 9 35 2 13 -5 17 -10 9 -10 -8
-1 -21 -10 -28 -21 -15 -24 -9 -26 13 -4 12 13 19 14 30 4 12 -10 15 -10 15 1
0 20 -12 33 -42 46 -17 8 -28 8 -30 2z"/>
<path d="M6990 6595 c-20 -24 -6 -28 15 -5 10 11 13 20 8 20 -6 0 -16 -7 -23
-15z"/>
<path d="M8159 5336 c-2 -2 -33 -7 -69 -11 -36 -4 -68 -9 -71 -10 -3 -2 -25
-6 -50 -9 -52 -7 -152 -23 -386 -62 -149 -24 -173 -31 -173 -46 0 -12 7 -18
21 -18 27 0 152 18 209 30 25 6 79 14 120 19 186 23 311 42 335 51 15 6 44 10
66 10 35 0 39 3 39 25 0 18 -5 25 -18 25 -10 0 -21 -2 -23 -4z"/>
<path d="M1241 1284 c-1 -5 -14 -9 -31 -8 -19 1 -30 -3 -30 -11 0 -16 79 -10
95 7 7 8 5 9 -7 5 -9 -3 -19 -1 -22 6 -2 7 -5 7 -5 1z"/>
<path d="M1170 1211 c0 -12 29 -23 41 -15 16 10 9 20 -16 22 -14 1 -25 -2 -25
-7z"/>
<path d="M3723 1205 c0 -8 4 -12 9 -9 5 3 6 10 3 15 -9 13 -12 11 -12 -6z"/>
<path d="M1260 1206 c0 -9 30 -14 35 -6 4 6 -3 10 -14 10 -12 0 -21 -2 -21 -4z"/>
<path d="M741 1174 c0 -11 3 -14 6 -6 3 7 2 16 -1 19 -3 4 -6 -2 -5 -13z"/>
<path d="M1385 1039 c-4 -5 -11 -6 -17 -3 -7 5 -8 2 -4 -5 5 -7 14 -10 22 -7
8 3 14 1 14 -5 0 -6 5 -7 10 -4 6 3 10 10 10 15 0 12 -29 20 -35 9z"/>
<path d="M1470 918 c12 -11 35 -24 53 -29 l32 -9 -30 24 c-16 14 -40 26 -53
29 l-23 4 21 -19z"/>
<path d="M1700 774 c0 -8 5 -12 10 -9 6 3 10 10 10 16 0 5 -4 9 -10 9 -5 0
-10 -7 -10 -16z"/>
<path d="M1740 725 c0 -8 5 -15 10 -15 6 0 10 7 10 15 0 8 -4 15 -10 15 -5 0
-10 -7 -10 -15z"/>
<path d="M1865 620 c3 -5 8 -10 11 -10 2 0 4 5 4 10 0 6 -5 10 -11 10 -5 0 -7
-4 -4 -10z"/>
<path d="M3138 617 c-10 -6 -8 -7 4 -3 11 3 18 -1 20 -12 3 -14 5 -13 10 4 6
22 -11 28 -34 11z"/>
<path d="M3114 568 c-4 -7 -3 -8 5 -4 6 4 14 0 17 -8 7 -18 39 -22 49 -6 3 6
-1 10 -9 10 -9 0 -16 5 -16 10 0 14 -37 13 -46 -2z"/>
<path d="M3070 526 c0 -2 7 -7 16 -10 8 -3 12 -2 9 4 -6 10 -25 14 -25 6z"/>
<path d="M3113 507 c-1 -11 -1 -18 0 -16 2 2 8 11 15 20 9 12 9 16 -1 16 -7 0
-14 -9 -14 -20z"/>
<path d="M3155 520 c-3 -6 1 -7 9 -4 18 7 21 14 7 14 -6 0 -13 -4 -16 -10z"/>
<path d="M2470 480 c0 -5 5 -10 10 -10 6 0 10 5 10 10 0 6 -4 10 -10 10 -5 0
-10 -4 -10 -10z"/>
<path d="M2515 480 c3 -5 8 -10 11 -10 2 0 4 5 4 10 0 6 -5 10 -11 10 -5 0 -7
-4 -4 -10z"/>
<path d="M231 454 c0 -11 3 -14 6 -6 3 7 2 16 -1 19 -3 4 -6 -2 -5 -13z"/>
<path d="M2840 450 c0 -5 5 -10 11 -10 5 0 7 5 4 10 -3 6 -8 10 -11 10 -2 0
-4 -4 -4 -10z"/>
<path d="M2546 442 c-3 -6 -1 -14 5 -17 15 -10 25 3 12 16 -7 7 -13 7 -17 1z"/>
<path d="M2685 400 c3 -5 11 -10 16 -10 6 0 7 5 4 10 -3 6 -11 10 -16 10 -6 0
-7 -4 -4 -10z"/>
<path d="M2581 384 c0 -11 3 -14 6 -6 3 7 2 16 -1 19 -3 4 -6 -2 -5 -13z"/>
<path d="M2648 373 c7 -3 16 -2 19 1 4 3 -2 6 -13 5 -11 0 -14 -3 -6 -6z"/>
<path d="M2663 113 c-19 -7 -16 -21 7 -28 12 -4 20 -15 20 -28 1 -19 3 -17 14
8 11 25 10 31 -1 33 -7 2 -13 8 -13 13 0 10 -8 10 -27 2z"/>
<path d="M2650 35 c0 -28 4 -35 19 -35 11 0 27 7 35 16 20 20 22 41 2 24 -12
-9 -17 -7 -28 9 -19 30 -28 26 -28 -14z"/>
</g>
</svg>
